<svg xmlns="http://www.w3.org/2000/svg" xmlns:inkscape="http://www.inkscape.org/namespaces/inkscape" xmlns:ns1="http://sodipodi.sourceforge.net/DTD/sodipodi-0.dtd" version="1.1" id="svg1" width="1408" height="988" viewBox="0 0 1408 988" ns1:docname="公路车模板分离图.svg" inkscape:version="1.4.4 (dcaf3e7, 2026-05-05)">
  <defs id="defs1" />
  <ns1:namedview id="namedview1" pagecolor="#ffffff" bordercolor="#000000" borderopacity="0.25" inkscape:showpageshadow="2" inkscape:pageopacity="0.0" inkscape:pagecheckerboard="0" inkscape:deskcolor="#d1d1d1" inkscape:zoom="1.1205064" inkscape:cx="862.55639" inkscape:cy="270.85966" inkscape:window-width="2560" inkscape:window-height="1494" inkscape:window-x="-11" inkscape:window-y="-11" inkscape:window-maximized="1" inkscape:current-layer="g1" />
  <g inkscape:groupmode="layer" inkscape:label="Image" id="g1">
    <path style="fill:#2b83ba;stroke-width:0.969463" d="m 1105.2815,118.49908 c -2.4789,-1.12009 -7.5892,-5.28588 -12.1432,-9.89897 -4.3245,-4.38075 -9.9937,-9.662779 -12.598,-11.737837 -4.9272,-3.925942 -9.3584,-11.595238 -7.6706,-13.276044 0.4902,-0.488183 4.3563,-1.282288 8.5914,-1.764665 36.2977,-4.134373 43.2919,-7.699975 49.9643,-25.471335 3.0364,-8.087143 8.7447,-11.022045 18.0652,-9.28798 5.8871,1.095295 14.8161,5.161047 15.5569,7.083738 0.3765,0.977255 -2.1251,4.483328 -7.2779,10.200261 -4.3185,4.791147 -8.1411,9.859413 -8.4947,11.262828 -0.371,1.471823 0.033,4.683429 0.9513,7.589064 0.8769,2.770577 1.5945,6.656525 1.5945,8.635425 0,3.550113 -0.1002,3.643299 -7.5289,7.001108 -4.1408,1.871697 -9.597,5.131147 -12.125,7.243197 -2.5279,2.11205 -7.3367,5.37797 -10.6861,7.25758 -3.3495,1.87964 -6.9925,4.25509 -8.0955,5.27881 -2.4675,2.29002 -2.7905,2.28542 -8.1037,-0.11518 z" id="shift_lever" inkscape:label="shift'_lever" inkscape:highlight-color="#f3359a" />
    <path style="fill:#2b83ba;stroke-width:0.969463" d="m 915.5269,148.95028 c -0.34089,-0.33946 -0.21051,-1.68917 0.28969,-2.99937 1.20453,-3.15511 1.15624,-8.69651 -0.0962,-11.02699 -0.62795,-1.1685 -2.03085,-1.87132 -3.73528,-1.87132 -5.97753,0 -7.99128,-6.8368 -3.07906,-10.45362 2.61343,-1.92422 2.77577,-2.36862 1.84072,-5.03968 -1.15011,-3.28575 -3.39371,-4.82346 -7.03748,-4.82346 -2.44509,0 -4.46962,-2.3354 -4.46962,-5.15595 0,-2.55552 8.30283,-10.229743 13.75907,-12.717424 7.44259,-3.393276 16.35909,-4.235068 20.62509,-1.947159 3.18193,1.706551 3.56265,1.686901 17.70651,-0.914099 35.16016,-6.46577 41.49147,-7.982222 43.32208,-10.376272 0.95313,-1.246646 2.15595,-2.776953 2.67266,-3.400687 0.88734,-1.071032 6.09962,-2.342251 15.26012,-3.72174 3.3384,-0.502734 4.4186,-0.249432 6.1072,1.432216 1.1283,1.123632 1.8304,2.399012 1.5603,2.834178 -0.27,0.435175 -3.1384,1.066804 -6.3742,1.403617 -6.8821,0.71635 -10.5062,2.374149 -13.8553,6.33788 -6.42898,7.608879 -3.02454,19.71158 6.5635,23.33339 1.6029,0.60549 6.1931,0.98538 10.2003,0.84421 5.9302,-0.20892 7.228,0.003 6.9738,1.13745 -0.5202,2.32258 -1.6996,3.00216 -7.6154,4.38828 -7.363,1.72523 -11.4622,1.70427 -12.9375,-0.0662 -2.3553,-2.8263 -7.27937,-2.59511 -29.68035,1.3935 -12.27291,2.18529 -23.48644,4.20287 -24.91886,4.48352 -6.43452,1.26069 -5.49811,7.1094 1.95595,12.2168 l 4.41899,3.02784 -4.29048,1.81468 c -4.50867,1.90693 -26.51566,8.7715 -31.58526,9.85228 -1.62866,0.34721 -3.24013,0.35355 -3.58102,0.0141 z" id="steam-cap" inkscape:highlight-color="#356af3" inkscape:label="steam_cap" />
    <path style="fill:#bebebe;stroke-width:0.969463" d="m 494.538,75.741516 c 1.37975,2.698937 30.34451,91.313644 30.86645,94.489434 0.2609,1.58741 -1.07072,2.26823 -8.92226,4.56174 -15.34172,4.48145 -14.15511,4.54195 -15.8646,-0.80897 -11.80832,-36.96168 -15.99698,-50.22585 -21.02165,-66.56893 -3.27193,-10.642114 -7.27007,-21.575619 -7.82516,-22.992965" id="seat_post" inkscape:label="seat_post" ns1:nodetypes="cssssc" />
    <path style="fill:#2b83ba;stroke-width:0.969463" d="m 471.05657,77.746777 c -1.18847,-3.034675 0.14993,2.933542 -9.91299,0.60946 -9.19763,-2.124253 -13.56656,-6.482671 -10.02937,-10.005288 0.64116,-0.638527 0.96903,-1.177946 0.72859,-1.198699 -0.24044,-0.0208 -4.37159,-0.165852 -9.18034,-0.322436 -11.14698,-0.362964 -14.65007,-1.993848 -22.82676,-10.627155 -7.0602,-7.45449 -10.77164,-9.508389 -15.73301,-8.706583 -5.14358,0.831246 -17.69636,-4.652548 -22.64258,-9.891611 -2.74546,-2.908015 -5.45389,-4.607667 -9.22892,-5.791524 -2.93868,-0.921578 -6.10809,-2.331087 -7.04312,-3.132245 -2.10636,-1.804757 -2.19341,-5.829575 -0.18779,-8.681206 1.46885,-2.088437 2.01994,-2.150007 19.18645,-2.143369 9.7208,0.0039 26.19877,0.754612 36.61775,1.668566 15.84308,1.389773 28.7897,1.622535 79.10206,1.422183 50.5829,-0.201435 61.53967,-0.002 68.83574,1.251715 10.52482,1.808802 17.4189,4.625623 20.63391,8.43072 2.56912,3.040636 3.20153,7.894106 1.19191,9.147224 -0.66788,0.416475 -5.8045,1.060439 -11.41471,1.431046 -5.61022,0.370607 -12.86475,0.980602 -16.12119,1.355563 -4.79628,0.552248 -6.41016,0.362402 -8.49737,-0.999556 -1.99459,-1.30153 -4.08194,-1.596577 -9.24113,-1.306261 -6.19476,0.348597 -7.47899,0.849066 -18.21794,7.099557 -19.07525,11.102556 -23.3655,12.997249 -32.93174,14.543587 -4.80539,0.776768 -9.06494,1.41396 -9.46567,1.415981 -2.08483,0.01054 -0.19956,1.668597 3.72495,3.276039 5.30652,2.173506 3.63571,1.369748 5.4205,4.860981 M 449.94845,57.975132 c 0,-2.129826 3.0201,-2.982529 15.05772,-4.251447 5.87736,-0.619545 11.66307,-1.332586 12.85711,-1.584523 1.37921,-0.291004 2.91771,0.285547 4.21833,1.580818 1.84206,1.834468 2.72171,1.971442 8.77364,1.366176 7.01725,-0.701818 12.8667,-3.185068 29.52445,-12.533951 l 7.77174,-4.361756 -4.02497,-0.01219 c -7.62133,-0.02312 -31.83523,2.912629 -40.12692,4.865061 -4.569,1.075849 -14.64608,3.761734 -22.39352,5.968647 -12.39344,3.530347 -15.33089,4.020803 -24.44319,4.081173 -11.16849,0.07401 -11.74465,0.582249 -5.18651,4.575383 3.89786,2.373346 17.97212,2.613461 17.97212,0.306618 z" id="saddle" inkscape:highlight-color="#35f387" inkscape:label="saddle" />
    <path style="fill:#2b83ba;stroke-width:0.969463" d="m 1169.7333,179.2016 c -12.0551,-8.63138 -19.3204,-17.07949 -23.5981,-27.43974 -5.1751,-12.53413 -4.8361,-14.83012 3.5006,-23.70598 l 4.4074,-4.69253 -0.6109,-6.52309 c -0.4759,-5.08162 -1.2581,-7.43792 -3.5399,-10.66308 -1.611,-2.27701 -2.929,-4.55147 -2.929,-5.05435 0,-0.50289 1.3051,-1.586474 2.9002,-2.407968 3.6607,-1.885182 4.5799,-5.380864 2.9123,-11.075971 -0.7103,-2.425899 -1.4727,-6.422467 -1.6944,-8.881269 -0.3989,-4.426015 -0.3225,-4.55941 7.6672,-13.393959 l 8.0703,-8.923411 3.1869,3.463234 c 4.3757,4.755021 4.1472,7.455312 -1.1758,13.894544 -2.3996,2.902723 -4.8706,6.965146 -5.4911,9.027597 -0.9917,3.296791 -0.8316,4.549677 1.3257,10.368659 2.4023,6.480339 2.4434,7.032584 1.9572,26.406834 -0.7613,30.33961 1.3269,44.40456 7.6558,51.5649 2.0749,2.34751 3.7726,4.92767 3.7726,5.73368 0,4.89821 -3.3831,5.83456 -8.317,2.3019 z" id="brake_lever" inkscape:highlight-color="#d1f335" inkscape:label="brake_lever" />
    <path style="fill:#bebebe;stroke-width:0.969463" d="m 496.76844,192.66464 c -1.86496,-2.23788 -2.39828,-8.64173 -0.8278,-9.93973 0.74153,-0.61289 9.40046,-3.36273 19.24206,-6.11076 l 17.89383,-4.99642 1.71418,2.1082 c 1.80544,2.22044 3.38843,8.42676 2.40032,9.41078 -1.08457,1.08011 -34.12552,10.92545 -36.69227,10.93334 -1.40391,0.004 -3.08256,-0.62812 -3.73032,-1.40541 z" id="seat_post_clamp" inkscape:label="seat_post_clamp" />
    <path style="fill:#2b83ba;stroke-width:0.969463" d="m 999.10905,219.96302 c -2.40138,-1.87862 -6.33487,-15.91806 -5.04998,-18.02515 1.81492,-2.97664 7.44773,-4.89694 24.19433,-8.24831 25.6932,-5.14172 35.4965,-10.08292 51.0075,-25.70926 12.1081,-12.19821 18.4432,-23.48628 18.4432,-32.86292 0,-5.3691 -3.243,-10.67473 -11.546,-18.88969 l -7.7156,-7.63398 -8.0985,-0.77044 c -12.2041,-1.16106 -29.3069,-1.05084 -39.917,0.25723 -8.9632,1.10503 -9.7026,1.05793 -13.6917,-0.87218 -10.57069,-5.11449 -9.44472,-19.75705 1.8497,-24.052632 3.9244,-1.492566 7.0085,-1.605498 28.4031,-1.040102 13.2004,0.348848 26.0621,0.905663 28.5816,1.237348 4.2778,0.563181 4.6834,0.867052 6.1299,4.592749 1.904,4.90404 3.3737,6.668957 10.1702,12.213117 2.9354,2.39448 8.6184,7.68525 12.6287,11.75724 5.8618,5.95178 8.2367,7.67697 12.1107,8.79743 4.2214,1.22091 4.9273,1.80259 5.6916,4.68966 1.5504,5.85634 0.2421,20.05452 -2.4604,26.70072 -5.8533,14.39565 -17.7472,29.15506 -33.7118,41.83373 -15.7937,12.54301 -24.2051,16.3262 -49.7408,22.37178 -20.0039,4.73597 -25.0339,5.40968 -27.27875,3.65366 z" id="handle_bar" inkscape:label="handle_bar" />
    <path style="fill:#d4d4d4;stroke-width:0.969463" d="m 1011.9297,282.1213 c 0,-0.48859 -0.2339,-1.49541 -0.5199,-2.23738 -0.3926,-1.01897 0.4197,-1.33421 3.3197,-1.28845 5.2959,0.0836 5.8515,1.11981 1.5582,2.90629 -4.2437,1.76583 -4.358,1.78208 -4.358,0.61954 z" id="path84" />
    <path style="fill:#d4d4d4;stroke-width:0.969463" d="m 438.4963,299.63961 c -2.22602,-1.34507 -3.52617,-3.08544 -2.30499,-3.08544 1.42885,0 6.45949,2.2896 6.45949,2.93993 0,1.64875 -1.57548,1.704 -4.1545,0.14551 z" id="path83" />
    <path style="fill:#d4d4d4;stroke-width:0.969463" d="m 1021.7639,303.68506 c -0.64,-1.39895 -1.0381,-2.63585 -0.8845,-2.74857 0.1536,-0.11271 2.3066,-0.85137 4.7846,-1.6415 4.0934,-1.3053 4.8925,-1.28324 8.7431,0.24061 2.7473,1.08725 3.7254,1.86518 2.7807,2.21153 -0.8014,0.29392 -3.8616,1.42227 -6.8002,2.50758 -6.8132,2.51599 -7.2244,2.48889 -8.6237,-0.56965 z" id="path82" />
    <path style="fill:#2b83ba;stroke-width:0.969463" d="m 407.86402,309.31957 c -5.84609,-6.24556 -7.065,-7.98593 -6.37348,-9.10026 0.26651,-0.42946 -0.90311,-1.53866 -2.59916,-2.4649 -6.61026,-3.60991 -7.24507,-4.46293 -5.83824,-7.84533 1.77106,-4.25811 4.84001,-4.76824 12.61018,-2.0961 l 6.3863,2.19624 5.8288,-2.77419 c 5.21624,-2.48265 5.87984,-3.13006 6.31452,-6.16032 0.26716,-1.86237 2.3817,-7.19673 4.69899,-11.85414 4.42104,-8.88564 6.19652,-10.31597 11.24031,-9.05528 1.81164,0.45282 2.23446,1.07613 1.87594,2.76542 -0.32936,1.55189 1.22936,0.36725 5.40484,-4.1077 5.82447,-6.2422 6.32409,-7.10691 8.93788,-15.46932 1.07434,-3.4372 2.3093,-4.9629 5.91874,-7.31208 2.50861,-1.63272 6.16867,-5.33782 8.13346,-8.23356 8.08832,-11.92072 18.752,-19.76406 28.42148,-20.90454 4.21838,-0.49755 4.79781,-0.33933 5.26441,1.43758 0.63423,2.41534 0.0771,3.07766 -2.58357,3.07137 -4.17979,-0.01 -11.73619,3.53652 -16.37331,7.6844 -6.42343,5.74574 -14.30881,17.02728 -14.30881,20.47149 0,1.48147 -0.40353,2.94194 -0.89673,3.24549 -0.4932,0.30357 -1.18281,1.84913 -1.53248,3.43459 -0.34967,1.58547 -2.10229,4.08652 -3.89472,5.55792 -2.78955,2.2899 -14.07685,16.83314 -14.07685,18.13745 0,0.24601 1.05829,-0.0329 2.35177,-0.61982 2.55371,-1.15876 5.53101,0.37986 10.02983,5.18324 l 2.1812,2.32887 -2.99385,4.05423 c -3.38656,4.58605 -3.5078,4.63222 -6.56514,2.49958 -2.0965,-1.46239 -2.37202,-1.42061 -4.64315,0.70422 -1.57289,1.47156 -2.23863,2.92828 -1.91007,4.17951 0.65541,2.496 -2.00473,5.37811 -4.96393,5.37811 -1.27948,0 -3.64348,-0.67831 -5.25331,-1.50736 -2.91471,-1.50104 -2.94258,-1.48989 -6.64702,2.66051 l -3.72002,4.16794 3.28917,1.87979 c 3.91453,2.23726 4.74341,4.25587 3.16456,7.70682 -1.60921,3.51731 -4.43258,3.943 -10.61929,1.60125 -2.90037,-1.09778 -5.28327,-1.99626 -5.29534,-1.99646 -0.012,-2.9e-4 -0.84594,1.52328 -1.85304,3.38565 -1.00711,1.86236 -2.3087,3.36203 -2.89244,3.33262 -0.58375,-0.029 -3.38203,-2.53273 -6.21843,-5.56293 z" id="Caliper_Brake" inkscape:label="Caliper_Brake" />
    <path style="fill:#d4d4d4;stroke-width:0.969463" d="m 420.73562,319.3487 c -1.72688,-1.27483 -1.7553,-1.52405 -0.33728,-2.9587 1.06327,-1.07581 2.35693,-1.36461 4.12873,-0.92171 2.76515,0.69106 3.29693,2.23688 1.41451,4.11154 -1.53259,1.52627 -2.90806,1.46523 -5.20596,-0.23113 z" id="path80" />
    <path style="fill:#d4d4d4;stroke-width:0.969463" d="m 618.23932,459.86928 c 1.38991,-2.77459 1.62236,-2.89765 2.28593,-1.20933 1.28939,3.28067 0.93929,4.29816 -1.47898,4.29816 -2.32279,0 -2.33356,-0.0416 -0.80695,-3.08883 z" id="path79" />
    <path style="fill:#d4d4d4;stroke-width:0.969463" d="m 557.76811,475.09273 c -0.14936,-0.55485 -1.0223,-5.58006 -1.93985,-11.16716 -5.90625,-35.96406 -24.46599,-76.16424 -49.3711,-106.93726 -7.83083,-9.67591 -22.95301,-24.87362 -32.92552,-33.0901 l -7.56286,-6.23115 2.92623,-4.02611 c 1.60944,-2.21433 4.36338,-5.71694 6.11985,-7.78364 l 3.19361,-3.75763 9.17934,7.5914 c 36.59327,30.26308 63.59649,69.01062 79.02497,113.3947 l 3.45949,9.95221 -2.58227,4.60601 -2.58227,4.606 1.87393,3.82362 c 1.03067,2.10307 3.10045,4.40322 4.59951,5.1116 3.27494,1.54746 3.89015,3.04828 5.6191,13.70781 1.68907,10.41341 1.71684,9.91381 -0.57294,10.31038 -5.15568,0.89276 -18.21014,0.8145 -18.45922,-0.11068 z" id="path78" />
    <path style="fill:#d4d4d4;stroke-width:0.969463" d="m 533.91888,476.78317 c -2.35567,-0.3536 -2.58621,-0.95633 -4.65756,-12.17777 -5.93473,-32.15088 -23.04699,-67.9075 -45.00533,-94.04018 -7.56407,-9.00207 -23.80417,-25.08317 -30.19048,-29.89495 -2.00364,-1.50963 -3.64299,-3.19041 -3.64299,-3.73499 0,-0.54459 2.05231,-3.4316 4.56068,-6.41555 2.50836,-2.98395 4.67081,-5.58353 4.80541,-5.77683 0.50674,-0.72763 17.69121,14.5198 26.17365,23.22331 24.16301,24.79283 41.62122,53.5305 52.90906,87.09272 3.84774,11.44047 8.69777,32.87774 8.69777,38.44435 0,2.91371 -0.15824,3.03657 -3.643,2.8276 -2.00364,-0.12015 -4.51732,0.0164 -5.58593,0.30292 -1.06861,0.28665 -3.05818,0.3539 -4.42128,0.14937 z" id="path77" />
    <path style="fill:#d4d4d4;stroke-width:0.969463" d="m 559.22668,497.00909 c 0,-4.2434 0.99264,-4.8709 5.13018,-3.24284 1.51678,0.59682 1.30721,1.08888 -1.70006,3.99156 l -3.43012,3.31095 z" id="path76" />
    <path style="fill:#8ab5ab;stroke-width:0.969463" d="m 1108.7063,513.39359 c -0.9035,-0.99417 -3.0722,-4.15053 -4.8195,-7.01412 -1.7473,-2.8636 -8.6261,-11.95457 -15.2865,-20.20222 -49.6374,-61.46718 -83.7248,-112.3331 -107.30012,-160.11541 -11.68925,-23.69166 -29.00913,-65.09356 -28.43451,-67.97046 0.18837,-0.94344 4.14253,-2.57882 11.26298,-4.65819 6.03494,-1.76238 14.69469,-4.60336 19.24396,-6.31329 9.61377,-3.61354 9.50575,-3.65722 13.37353,5.41459 2.37741,5.57661 3.61446,6.28848 1.55548,0.89515 -1.28252,-3.35927 0.49215,-5.46881 5.97728,-7.10542 3.6766,-1.097 4.1618,-1.01727 6.4554,1.06087 1.3642,1.23586 2.124,1.63618 1.6886,0.88959 -0.4354,-0.74658 -1.7793,-5.31786 -2.9864,-10.15838 -1.2071,-4.84052 -2.4907,-9.73566 -2.8523,-10.87806 -0.5823,-1.83957 -0.1754,-2.16774 3.5583,-2.86975 6.1921,-1.16423 6.1505,-1.18429 6.2577,3.01192 0.054,2.12842 1.2216,6.34852 2.5938,9.37799 2.4366,5.37959 2.559,5.48462 5.2441,4.50102 1.9255,-0.70535 3.555,-0.69413 5.4383,0.0375 2.7582,1.07143 5.0662,5.23831 4.1782,7.54301 -0.7393,1.91845 1.133,6.11327 2.7284,6.11327 1.4946,0 3.5193,4.746 3.5193,8.24936 0,2.39898 -1.485,3.94414 -4.2911,4.46544 -3.0946,0.57487 -2.8255,2.55212 0.586,4.30776 1.7707,0.91115 3.7019,2.31271 4.2919,3.11458 0.9509,1.29265 1.8413,1.25935 7.854,-0.2937 8.146,-2.10411 11.6645,-1.51957 12.5739,2.089 0.8764,3.47769 -0.4057,5.23758 -5.7699,7.91974 -4.2403,2.12021 -4.5587,2.53863 -4.5587,5.98957 0,2.04057 -0.4112,3.96318 -0.9136,4.27238 -1.9998,1.23081 -12.7497,0.70103 -14.9534,-0.73692 -2.0106,-1.31197 -2.9323,-1.30077 -8.8425,0.10749 l -6.5982,1.57223 -1.8326,-2.25381 c -3.6359,-4.47178 -1.1586,-10.74663 4.243,-10.74663 2.8947,0 3.0444,-2.71165 0.3443,-6.23716 -2.2561,-2.94561 -2.9167,-3.25398 -5.9285,-2.76726 -4.2511,0.68704 -6.0965,-0.76068 -6.8362,-5.36289 -1.4711,-9.15474 -2.1376,-10.23796 -5.5128,-8.95999 -1.722,0.65201 -2.8314,0.59025 -3.6716,-0.20437 -1.54392,-1.46018 -1.1079,0.0438 4.5779,15.79196 16.5711,45.89791 43.5241,104.63444 64.6758,140.94387 17.9895,30.8808 42.0807,66.72333 50.3584,74.92201 3.0222,2.99334 6.0202,6.4201 6.6624,7.61511 1.6603,3.0894 1.4443,8.33413 -0.4624,11.23217 -3.2384,4.92208 -14.0856,7.04914 -17.3921,3.41051 z" id="fork" inkscape:highlight-color="#35c8f3" inkscape:label="fork" />
    <path style="fill:#d4d4d4;stroke-width:0.969463" d="m 1107.5435,524.47096 c -9.3554,-4.05687 -16.614,-16.20726 -14.5574,-24.36772 0.623,-2.47217 0.6859,-2.49094 2.5925,-0.77253 1.0747,0.96853 3.9157,4.89557 6.3134,8.72673 6.2993,10.0654 10.8048,11.87834 19.8688,7.99513 5.5987,-2.39855 8.6877,-6.62888 8.6877,-11.8976 0,-4.64566 -1.7535,-7.81614 -7.2671,-13.14039 -4.9735,-4.80259 -8.8459,-10.39753 -7.8696,-11.36984 1.2368,-1.23158 11.8093,1.73428 15.6224,4.38262 2.2867,1.58819 5.0572,4.86228 6.7322,7.95604 8.659,15.99306 -2.5987,33.8541 -21.3043,33.8008 -3.2057,-0.01 -7.1742,-0.60012 -8.8186,-1.31324 z" id="path74" />
    <path style="fill:#d4d4d4;stroke-width:0.969463" d="m 538.86191,525.67914 c -3.45318,-0.49109 -6.32874,-0.9815 -6.39012,-1.08995 -0.0614,-0.10846 0.14099,-6.94515 0.44972,-15.19278 l 0.56133,-14.9957 5.82879,-0.0687 c 3.20583,-0.0377 6.76771,-0.37964 7.91527,-0.75947 1.93645,-0.64084 2.13495,-0.27456 2.76062,5.0941 0.78666,6.7499 -0.006,11.26322 -2.54504,14.48836 -2.18625,2.7771 -2.36477,7.16088 -0.35912,8.81854 2.04056,1.68658 1.87685,4.86683 -0.24287,4.71794 -0.93504,-0.0658 -4.52539,-0.52117 -7.97858,-1.01226 z" id="path73" />
    <path style="fill:#d4d4d4;stroke-width:0.969463" d="m 502.64789,624.23844 c -1.20719,-0.45055 -3.84385,-0.66697 -5.85926,-0.48082 -4.34399,0.4013 -4.43335,0.73323 2.65855,-9.87502 7.12139,-10.65236 18.083,-32.7005 22.36222,-44.97937 1.85293,-5.3167 3.82281,-9.81744 4.37752,-10.00165 0.5547,-0.18411 4.06256,0.17821 7.79523,0.80522 8.09206,1.35929 8.01429,1.07592 3.76299,13.71295 -4.45416,13.24004 -10.64778,26.60218 -18.29987,39.4802 -6.7036,11.2817 -6.82866,11.41957 -10.69272,11.78652 -2.15037,0.20424 -4.89748,0 -6.10466,-0.44803 z" id="path72" />
    <path style="fill:#d4d4d4;stroke-width:0.969463" d="m 531.5399,625.74914 c -3.20583,-0.19978 -6.20939,-0.74012 -6.67457,-1.20082 -0.47901,-0.47434 0.69968,-3.37113 2.71806,-6.68005 1.96013,-3.21344 6.34174,-11.62864 9.73693,-18.70052 5.16907,-10.76663 7.54329,-16.83021 12.73376,-32.52094 0.33307,-1.00693 0.75709,-0.94937 1.98028,0.26877 1.22268,1.21764 1.30901,1.84698 0.4026,2.9347 -1.36751,1.64092 -0.49539,6.63101 1.43826,8.22916 0.86402,0.71409 1.13966,2.22498 0.79349,4.34934 -0.42423,2.60354 -0.0452,3.73847 1.8936,5.66915 1.74219,1.73505 2.28903,3.11727 1.94413,4.91404 -0.26392,1.37496 0.0585,3.1458 0.71636,3.93535 0.98026,1.17625 0.0571,3.77196 -5.11337,14.37827 -3.47026,7.11861 -6.68938,13.16275 -7.15356,13.43141 -1.48174,0.85776 -9.39761,1.36722 -15.41597,0.99214 z" id="path71" />
    <path style="fill:#a50026;stroke-width:0.969463" d="m 655.67407,704.34055 c -0.30755,-0.79815 -1.59698,-1.4512 -2.8654,-1.4512 -1.67089,0 -2.48012,-0.68999 -2.93745,-2.50476 -1.16331,-4.61587 0.27355,-12.31331 3.10143,-16.61475 3.04107,-4.62574 3.76716,-4.91202 5.48996,-2.1647 1.40655,2.24296 9.09885,2.91816 8.26654,0.72559 -0.25249,-0.66513 -5.29015,-15.14082 -11.19478,-32.1682 -13.24409,-38.19241 -17.32516,-48.79872 -19.71932,-51.24884 -1.85221,-1.89535 -1.86431,-1.89216 -1.83157,0.48374 0.0181,1.31556 0.87762,4.1333 1.90997,6.26172 2.1929,4.52116 2.42508,6.92115 0.7286,7.53172 -0.8114,0.29207 -0.313,1.39517 1.50202,3.3244 1.49399,1.58809 4.01096,6.32548 5.59326,10.52756 4.22284,11.21457 4.81757,13.70298 3.5004,14.64596 -1.1201,0.80203 -16.33901,0.70713 -37.55385,-0.23403 -17.8971,-0.79399 -33.99837,-1.57851 -40.80156,-1.98804 -3.47299,-0.20907 -7.62601,-0.34906 -9.22893,-0.31113 -1.60291,0.0377 -3.78871,0 -4.85733,-0.0784 -1.06861,-0.0812 -4.34731,-0.33494 -7.28599,-0.56422 -11.61399,-0.90633 -19.05515,-1.34265 -21.37224,-1.25326 -2.79162,0.10768 -5.00376,0 -13.11479,-0.63872 -8.33403,-0.65623 -9.43141,-0.71292 -12.14332,-0.62769 -1.33577,0.0416 -5.37949,-0.12674 -8.98605,-0.37509 l -13.1148,-0.90312 c -3.60656,-0.24835 -7.65028,-0.41717 -8.98605,-0.37509 -1.33577,0.0416 -3.30299,0 -4.3716,-0.0861 -1.06862,-0.089 -4.56589,-0.35013 -7.77172,-0.57932 -3.20584,-0.22919 -8.67034,-0.62121 -12.14332,-0.8712 -3.473,-0.25 -7.40743,-0.43865 -8.7432,-0.41921 -3.34043,0.0483 -6.23539,-0.09 -13.60052,-0.65101 -9.24278,-0.70392 -15.65655,-1.12709 -28.1725,-1.85859 -6.14452,-0.35912 -13.57623,-0.83269 -16.51492,-1.05231 -2.93868,-0.21972 -7.96602,-0.59519 -11.17186,-0.83454 -3.20583,-0.23925 -10.85612,-0.70161 -17.00065,-1.02735 -6.14451,-0.32574 -13.68552,-0.78935 -16.75777,-1.03035 -6.53702,-0.51256 -14.05815,-0.99542 -23.61173,-1.51582 -5.48008,-0.29857 -8.31803,-1.0943 -14.15815,-3.97009 -10.21774,-5.0313 -12.5061,-6.99951 -12.49145,-10.7436 0.01,-2.44188 0.70879,-3.5235 3.40013,-5.25972 2.55737,-1.64982 3.38811,-2.85837 3.38811,-4.92923 0,-1.51495 0.87012,-3.52777 1.94292,-4.49465 1.06862,-0.96311 1.94293,-2.569 1.94293,-3.56868 0,-1.04351 1.41429,-2.64863 3.3205,-3.76876 1.82627,-1.07302 4.02214,-3.01753 4.87971,-4.32089 0.85759,-1.30347 2.01568,-2.36991 2.57356,-2.36991 1.70325,0 7.79048,-7.03569 7.26565,-8.39769 -0.27063,-0.70237 -1.70795,-1.27424 -3.19407,-1.27086 -1.98135,0.01 -3.14341,0.77861 -4.3569,2.9024 -2.20457,3.85825 -5.75656,3.89443 -8.47937,0.0861 -1.10499,-1.54543 -2.00908,-4.17984 -2.00908,-5.85413 0,-2.55933 -0.53665,-3.26761 -3.36892,-4.44618 -7.62754,-3.17387 -17.43879,-0.93718 -15.08685,3.43934 1.20034,2.23368 -0.26826,6.5596 -2.51892,7.41978 -0.86601,0.33097 -4.26055,-0.30194 -7.54345,-1.40631 -3.28289,-1.10436 -7.53832,-2.26367 -9.45651,-2.57626 -1.93571,-0.3154 -4.52941,-1.67981 -5.8288,-3.06628 -1.28764,-1.3739 -3.92278,-3.30583 -5.85586,-4.29323 -5.00774,-2.55787 -13.76681,-10.79516 -17.19244,-16.16827 -5.909,-9.26821 -7.32896,-19.05054 -4.21272,-29.02181 4.45843,-14.26595 17.54751,-24.78761 33.55406,-26.97253 3.75737,-0.51286 4.1251,-0.7969 3.72572,-2.87753 -0.3192,-1.66287 -0.004,-2.30837 1.12734,-2.30837 0.86375,0 2.45479,-0.88068 3.53565,-1.95718 1.5698,-1.56333 1.75621,-2.34591 0.92654,-3.88979 -1.3767,-2.56185 -0.45068,-3.82767 2.8001,-3.82767 3.43132,0 4.99429,-1.61403 4.99429,-5.15747 0,-2.68664 0.1741,-2.80728 3.31653,-2.29946 3.69607,0.5973 6.04653,-0.71148 6.58936,-3.66893 0.26042,-1.41888 0.99478,-1.85917 2.75348,-1.65088 6.63495,0.78588 7.26061,0.6722 8.21464,-1.49337 1.18699,-2.69439 3.52465,-2.79124 5.84129,-0.24187 2.24939,2.47526 3.81975,2.44391 6.2223,-0.12431 2.21907,-2.37213 4.43915,-1.92401 5.22109,1.05385 0.41858,1.59409 -1.97365,5.12409 -10.56319,15.58712 -8.99709,10.95953 -10.7926,13.64551 -9.46164,14.1541 2.28834,0.8745 -2.23082,6.3069 88.29152,-106.13301 17.77793,-22.08238 54.26084,-67.35141 81.07315,-100.5978 26.8123,-33.24638 49.36443,-61.63195 50.11584,-63.07903 2.09368,-4.03206 1.65147,-9.12553 -1.64876,-18.99088 -1.65822,-4.9569 -2.86041,-9.16285 -2.67153,-9.34656 0.18888,-0.18371 6.40511,-2.07792 13.81385,-4.20937 12.93384,-3.72099 13.49032,-3.79957 13.97009,-1.97248 1.09126,4.1558 4.75866,9.86302 7.28131,11.33117 2.96663,1.72655 -10.20872,2.98243 135.7704,-12.94179 36.06566,-3.93424 95.95652,-10.4458 133.0908,-14.47013 116.24173,-12.59736 106.86125,-11.06856 106.86125,-17.41597 0,-3.10642 0.27318,-3.39495 4.12873,-4.36042 2.27081,-0.56862 10.8912,-3.17468 19.15653,-5.79122 8.26533,-2.61655 15.14592,-4.63971 15.29028,-4.49593 0.14446,0.1438 2.63579,8.50159 5.53649,18.57285 5.17208,17.95812 13.62441,42.66236 15.15301,44.289 0.65496,0.69699 20.44556,-9.64214 25.40783,-13.27364 1.1164,-0.81707 2.2475,-4.92496 3.6769,-13.3547 1.1354,-6.69606 2.4642,-13.56259 2.9527,-15.25898 1.0435,-3.6234 1.4789,-3.75413 -7.7564,2.32793 -7.54897,4.97143 -24.51495,13.08519 -27.37845,13.09339 -0.89909,0.003 -1.92263,-0.89884 -2.27458,-2.00315 -0.76222,-2.39176 -1.13138,-2.07187 4.88064,-4.22906 8.32789,-2.98817 21.31228,-10.19047 28.62869,-15.87997 l 7.0159,-5.45588 6.0032,-14.99571 c 3.3016,-8.24763 7.0935,-16.95481 8.4263,-19.34929 2.4099,-4.33002 2.4516,-4.35358 7.7044,-4.35358 h 5.2814 l 1.396,4.35358 c 0.9104,2.83943 1.4049,8.72787 1.4217,16.93063 0.023,11.04341 -0.2875,13.52083 -2.5428,20.31677 -6.2771,18.91549 -22.4231,36.9742 -37.5011,41.94403 -6.37067,2.09978 -9.8045,4.36205 -9.8045,6.45931 0,0.64978 -3.07899,2.79266 -6.84204,4.76195 -8.05714,4.21649 -8.11465,2.35672 0.64622,20.89664 3.40774,7.21141 6.19582,13.80533 6.19582,14.65317 0,1.09372 -3.31595,2.71498 -11.41473,5.58111 -11.44251,4.04943 -27.6178,8.98463 -27.88787,8.50882 -2.56088,-4.51068 -3.7619,-5.57482 -6.29218,-5.57482 -2.39748,0 -5.62139,2.98975 -22.16884,20.55862 -10.64989,11.30724 -24.48211,26.16965 -30.73825,33.02773 -6.25624,6.85797 -16.05163,17.52949 -21.76762,23.71458 -5.71598,6.18501 -18.95774,20.60043 -29.42615,32.03431 -43.81117,47.85158 -64.24309,70.10056 -79.00071,86.02638 -8.59501,9.27548 -21.80938,23.64233 -29.36523,31.92634 -7.55586,8.28412 -16.52501,18.06276 -19.93147,21.73042 l -6.19353,6.66854 -5.91222,-5.94295 c -3.25171,-3.26857 -6.33195,-5.94284 -6.84496,-5.94284 -0.513,0 -2.17954,-1.29601 -3.7034,-2.88004 -1.52385,-1.58403 -4.12282,-3.3245 -5.77545,-3.86764 -4.08401,-1.34226 -6.04713,-4.47162 -4.17032,-6.64764 0.75916,-0.8802 13.35736,-14.8887 27.99599,-31.12992 14.63862,-16.24121 33.61025,-37.34172 42.15914,-46.88992 8.5489,-9.5482 41.11728,-45.69142 72.37419,-80.31815 97.35352,-107.84949 104.38675,-115.69224 106.12752,-118.34343 3.53623,-5.38552 0.83526,-11.77228 -4.97848,-11.77228 -2.7472,0 -96.36509,9.28771 -219.18211,21.74477 -34.1956,3.46839 -82.06457,8.29494 -106.3755,10.72566 -24.31093,2.43074 -45.29459,4.93874 -46.63035,5.57334 -5.55283,2.63809 -4.16027,7.928 27.67815,105.14104 12.10497,36.96035 32.55286,100.64361 32.55,101.37414 -0.002,0.38138 -2.57904,0.69339 -5.72788,0.69339 -4.15736,0 -6.25579,0.47841 -7.66281,1.74724 -1.46726,1.3231 -3.18563,1.67546 -7.07856,1.45119 -4.72776,-0.27224 -5.19998,-0.5173 -5.87569,-3.04867 -0.40412,-1.51389 -1.47604,-3.29228 -2.38202,-3.9521 -1.9125,-1.39266 -4.78728,-10.00774 -36.50273,-109.39104 -12.90534,-40.44005 -24.12175,-74.28922 -24.92537,-75.22041 -3.51472,-4.07264 -4.98063,-2.77518 -26.78038,23.70289 -50.79516,61.69603 -74.2831,90.10031 -95.85808,115.92223 -12.70221,15.20264 -25.42938,30.49885 -28.28261,33.99149 -5.97528,7.31452 -36.05592,43.70309 -45.72847,55.31779 -3.7694,4.52629 -6.79357,9.15773 -7.13936,10.9338 -1.1128,5.71559 2.15031,11.68021 8.04435,14.70412 1.17547,0.60311 15.82033,2.81009 32.5441,4.90446 56.06868,7.02147 122.4787,15.57599 147.46847,18.99597 13.6248,1.8646 29.79971,4.05039 35.94423,4.85726 14.53887,1.90929 14.37932,1.84738 11.80311,4.57834 -2.21921,2.35248 -2.63884,5.04542 -1.15126,7.38813 0.61806,0.97337 0.42677,1.95805 -0.59985,3.08776 -1.69411,1.86431 -2.05969,5.05733 -0.95053,8.30211 0.59897,1.75218 0.38511,2.1768 -1.0964,2.1768 -1.64243,0 -39.78489,-6.28707 -61.43568,-10.12656 -4.54161,-0.80541 -24.65095,-4.30889 -44.68742,-7.78547 -33.45567,-5.80518 -48.44498,-8.49377 -54.15922,-9.71441 -1.50163,-0.32081 -2.1858,-0.0135 -2.1858,0.98042 0,0.79604 -1.09096,2.1592 -2.42437,3.02924 -2.75918,1.80044 -8.29077,1.24299 -10.18171,-1.0261 -0.62906,-0.75481 -3.62381,-1.88075 -6.65501,-2.50206 -3.0312,-0.62131 -9.00856,-2.42166 -13.28301,-4.00076 -4.64978,-1.71782 -13.67758,-3.79787 -22.47372,-5.17806 -8.08609,-1.26883 -16.6107,-3.0182 -18.94358,-3.88747 -2.33287,-0.86936 -5.1159,-1.53498 -6.18452,-1.47935 -1.06861,0.0551 -3.58227,0.15441 -5.58593,0.21943 -3.62821,0.11763 -3.64299,0.13506 -3.64299,4.2906 0,2.29493 0.43716,4.44154 0.97147,4.77048 1.46118,0.89935 1.16798,6.00611 -0.5329,9.28166 -1.72355,3.31928 -6.70002,6.67251 -9.91036,6.67783 -1.20219,0 -2.1858,0.43903 -2.1858,0.97114 0,1.18814 20.31607,1.29795 22.1823,0.11978 1.79316,-1.13204 -0.77534,-2.05471 -5.7195,-2.05471 h -3.77908 l 2.40133,-4.49775 c 2.78867,-5.22314 2.9129,-6.59588 0.93815,-10.36667 -0.79816,-1.52414 -1.45121,-3.31879 -1.45121,-3.98808 0,-2.01146 7.11787,-2.60509 11.14474,-0.92945 3.07026,1.27754 11.76007,3.07422 23.46814,4.85223 2.46977,0.37498 3.15252,1.02077 3.63866,3.44146 0.76716,3.81994 0.15592,4.71601 -3.21716,4.71601 -3.29919,0 -5.03181,1.82967 -4.68757,4.95023 0.22749,2.06224 -0.12802,2.30575 -3.36664,2.30575 -1.99156,0 -3.6309,0.32652 -3.64301,0.7256 -0.0121,0.39908 -0.0219,1.1179 -0.0219,1.59748 0,0.47957 1.45972,1.72963 3.24383,2.77788 2.30807,1.35619 3.73826,3.26761 4.95778,6.62598 2.9865,8.22431 3.02108,11.58461 0.16153,15.69392 -1.3939,2.00313 -2.53434,4.609 -2.53434,5.79095 0,1.6028 -0.72407,2.29318 -2.84887,2.71645 -2.48637,0.49524 -3.22871,1.50769 -5.83402,7.95739 -3.47651,8.60628 -3.61757,9.80865 -1.15075,9.80865 2.65137,0 4.18853,2.32027 3.45786,5.21947 -0.45681,1.81254 -0.20059,2.66652 0.92963,3.0984 1.98159,0.75733 1.99403,3.21189 0.0304,6.0037 -0.8414,1.19637 -1.33762,2.70812 -1.10273,3.35952 0.69482,1.92699 -1.17363,4.57059 -3.23042,4.57059 -2.58138,0 -2.42237,1.64218 0.24049,2.48387 1.8837,0.59538 10.68093,1.35968 15.58,1.35349 5.56742,-0.01 7.47362,0.10932 24.04377,1.4658 2.93869,0.24051 10.58898,0.69522 17.00065,1.01033 6.41168,0.3151 14.06197,0.75849 17.00065,0.98536 12.47015,0.96253 17.60241,1.30492 28.17251,1.8793 6.14452,0.33397 13.57624,0.76855 16.51492,0.96592 2.93868,0.19726 10.58897,0.62943 17.00065,0.9603 6.41167,0.33087 14.49912,0.79767 17.97211,1.03732 3.47299,0.23974 7.40742,0.40856 8.74319,0.37528 1.33577,-0.0329 3.30299,0 4.3716,0.0638 1.06862,0.0687 4.56589,0.2972 7.77172,0.50879 3.20584,0.21168 10.85613,0.6184 17.00065,0.90391 6.14452,0.28549 14.45056,0.73439 18.45785,0.99764 4.0073,0.26325 8.16032,0.44349 9.22893,0.40053 2.28551,-0.0919 2.76959,-0.0677 11.65759,0.57187 6.79522,0.48925 24.40147,1.37873 34.48703,1.74231 2.93868,0.10594 5.85282,0.52224 6.47586,0.92509 0.62305,0.40295 2.2624,0.30485 3.643,-0.21788 1.66458,-0.6303 3.39099,-0.61695 5.12484,0.0396 1.47119,0.55697 4.88029,0.70808 7.79533,0.34538 4.26006,-0.53007 4.98272,-0.88222 4.06666,-1.98146 -1.47651,-1.77172 -3.73022,-1.69103 -5.83861,0.20917 -2.10712,1.89913 -3.78068,1.02783 -3.78068,-1.96831 0,-3.37713 -2.28275,-4.82349 -5.72591,-3.62819 -3.26567,1.13378 -3.98875,0.72028 -3.98875,-2.28079 0,-2.96393 -2.08677,-4.39742 -5.95229,-4.08871 -3.10799,0.24816 -3.27663,0.0985 -3.27663,-2.90829 0,-3.69378 -1.77335,-5.1356 -5.42235,-4.40883 -3.01986,0.60147 -4.29739,-0.82602 -2.96241,-3.31019 1.39334,-2.59271 -0.42874,-5.07415 -3.72589,-5.07415 -3.07866,0 -4.12875,-1.58451 -2.64005,-3.98364 1.4649,-2.36071 0.20983,-4.37874 -3.13792,-5.04552 -3.24229,-0.64588 -3.77455,-2.30469 -1.78356,-5.55895 1.26446,-2.0668 0.35522,-3.28068 -4.74216,-6.33129 -1.7318,-1.03644 -1.73709,-1.17334 -0.11517,-2.97863 2.36682,-2.63431 2.12183,-4.62399 -0.7286,-5.9174 -2.74434,-1.24522 -3.12896,-3.23017 -0.97147,-5.0133 2.18328,-1.80452 1.76798,-4.02398 -1.21433,-6.48986 l -2.67153,-2.20882 2.67153,-2.01987 c 3.17564,-2.40105 3.34597,-3.85322 0.7286,-6.21209 -2.44708,-2.20553 -2.48155,-4.053 -0.0898,-4.80897 2.87183,-0.90778 3.31268,-3.4911 1.10358,-6.46673 -2.37035,-3.19292 -2.44518,-3.72 -0.52808,-3.72 0.80146,0 2.3619,-0.901 3.46763,-2.00217 1.86959,-1.86188 1.90362,-2.16451 0.48573,-4.31954 -2.11217,-3.21034 -1.91047,-4.3204 0.78502,-4.3204 2.90112,0 4.8351,-2.23214 4.05494,-4.68011 -0.49152,-1.54224 -1.88069,-1.99037 -7.9166,-2.55362 -4.85479,-0.45307 -7.49532,-1.13687 -7.83958,-2.03033 -0.31873,-0.82718 4.78736,-6.85951 13.22957,-15.62929 l 13.74864,-14.28211 -3.69315,-0.79864 c -2.32474,-0.50269 -4.85112,-0.3954 -6.81841,0.28957 -2.30734,0.80328 -3.65703,0.80463 -5.15717,0 -1.22396,-0.65237 -3.26468,-0.79265 -5.13219,-0.35284 -2.55669,0.60205 -19.94298,1.33413 -27.38693,1.15312 -1.06861,-0.0261 -3.25441,-0.0145 -4.85733,0.0242 -1.60292,0.0397 -4.44445,0.0638 -6.31453,0.0541 -4.62588,-0.0232 -5.267,0 -13.60051,0.54798 -4.0073,0.26237 -8.16032,0.43565 -9.22893,0.38505 -1.06861,-0.0503 -3.14512,-0.0648 -4.61446,-0.0319 -1.46935,0.0329 -3.98301,0.0658 -5.58593,0.0735 -1.60292,0.01 -4.00729,0.0204 -5.34307,0.0299 -5.06525,0.0339 -9.28888,0.0503 -10.92898,0.0436 -0.93503,0 -10.0061,0.21682 -20.15791,0.4907 -10.15182,0.2738 -19.55075,0.44117 -20.88652,0.3719 -1.33576,-0.0697 -3.41227,-0.0628 -4.61446,0.0135 -3.60193,0.22968 -7.38174,0.30108 -9.95752,0.18817 -1.33577,-0.059 -10.7347,0.10159 -20.88651,0.35594 -10.15182,0.25424 -19.33218,0.42761 -20.40079,0.38524 -1.93546,-0.0764 -4.17648,-0.058 -9.71465,0.0812 -1.60292,0.0406 -4.33517,0.0668 -6.07166,0.058 -1.7365,-0.01 -4.14087,0.0784 -5.34307,0.19223 -1.20219,0.11426 -3.17155,-0.12731 -4.37638,-0.53694 -3.47482,-1.18137 -4.12897,2.09011 -0.88806,4.44125 2.14514,1.55616 2.40592,2.19479 1.54805,3.79119 -0.94856,1.76505 -1.67176,1.86566 -8.97944,1.24948 -8.38424,-0.70691 -11.9726,-1.99278 -15.20563,-5.44875 -3.40917,-3.64425 -2.58776,-7.61028 2.94088,-14.19948 4.51254,-5.37823 5.16429,-5.81109 8.0146,-5.32193 5.52461,0.94792 5.66729,1.07766 5.01212,4.55559 -0.55088,2.92436 -0.33743,3.34937 2.1394,4.26034 1.51324,0.55658 6.24862,0.83385 10.52307,0.61617 4.27445,-0.21758 9.0832,-0.36163 10.68612,-0.31994 1.60292,0.0416 3.898,0.0436 5.10019,0.01 6.07465,-0.19824 7.72408,-0.21807 9.95752,-0.11977 1.33577,0.059 7.89316,-0.10082 14.57199,-0.35468 6.67883,-0.25386 13.12693,-0.46003 14.32912,-0.45809 1.20219,0 3.71586,0 5.58593,-0.0135 7.19301,-0.0368 8.34464,-0.0377 11.17185,-0.0145 2.56758,0.0212 5.1573,0.01 11.41473,-0.0541 0.93503,-0.01 9.78751,-0.24032 19.67218,-0.51304 9.88466,-0.27264 19.28359,-0.45965 20.8865,-0.41553 3.85824,0.10622 4.06742,0.10188 24.28665,-0.50647 9.61752,-0.28937 18.79786,-0.49341 20.40078,-0.45345 3.87669,0.0967 4.75837,0.0755 19.42932,-0.47048 6.94598,-0.25841 13.39407,-0.47183 14.32912,-0.47425 0.93503,0 3.12083,-0.01 4.85733,-0.01 13.84768,-0.0164 25.38644,-0.69512 25.63916,-1.50894 0.16524,-0.53211 -1.79726,-7.88058 -4.36113,-16.33004 -4.06517,-13.39697 -4.99434,-15.53612 -7.26245,-16.71963 -3.04922,-1.59109 -3.51245,-5.46085 -0.98645,-8.24057 1.50494,-1.65611 1.50494,-2.16887 0,-7.55948 -1.97983,-7.092 -2.0702,-10.64966 -0.27052,-10.64966 1.64516,0 2.50636,2.94797 2.54358,8.70719 0.0363,5.62454 0.97188,7.05137 4.10924,6.26723 2.2301,-0.55745 2.63401,-0.18788 4.16856,3.81375 0.93457,2.43704 2.18627,4.48294 2.78156,4.5465 5.39739,0.57602 13.07871,-0.47918 15.37214,-2.11168 3.22037,-2.29241 11.23035,-2.61255 12.05143,-0.48161 0.29501,0.76556 1.78288,1.66472 3.30635,1.99791 2.08314,0.45568 2.93042,1.33346 3.41711,3.54024 0.54184,2.45679 0.13915,3.45627 -2.47458,6.14186 -1.72711,1.77462 -2.81855,3.69619 -2.44307,4.30116 1.83935,2.96392 -6.05536,8.40049 -8.56679,5.8994 -1.80526,-1.79783 -2.35165,-1.10378 -1.67169,2.12329 0.55071,2.61361 1.06281,3.10141 3.03457,2.89041 1.30463,-0.13961 4.86243,-0.32101 7.90623,-0.40315 7.38417,-0.1992 8.89723,1.09294 8.31739,7.10254 -0.51706,5.35909 0.5589,6.23212 5.25643,4.26518 2.29417,-0.96071 3.56472,-1.02949 4.80183,-0.26006 1.2128,0.75423 2.69147,0.73769 5.29888,-0.059 2.87019,-0.8773 4.15194,-0.8298 6.21016,0.23016 1.58418,0.81586 4.09714,1.13483 6.45708,0.81964 2.8336,-0.37857 4.20824,-0.10256 5.15653,1.03537 0.81292,0.9755 2.81602,1.55153 5.39506,1.55153 2.8191,0 4.63291,0.58415 5.7993,1.86769 1.00432,1.10523 2.88194,1.83412 4.59904,1.78555 1.96309,-0.0561 3.67533,0.74863 5.29292,2.48591 1.31511,1.4124 3.43653,2.56803 4.71429,2.56803 1.47212,0 3.08284,1.06247 4.39679,2.90008 1.14047,1.59505 3.15271,3.1698 4.47165,3.49951 1.31895,0.32971 3.04597,1.84709 3.83782,3.3721 0.79185,1.52491 2.73747,3.44098 4.3236,4.25781 1.58613,0.81683 3.1574,2.57046 3.4917,3.89695 0.3343,1.32648 1.83728,3.28357 3.33993,4.34924 1.50266,1.06556 3.00679,3.18286 3.34251,4.70507 0.33572,1.52221 1.68062,3.76895 2.98867,4.99279 1.55355,1.45343 2.37827,3.2888 2.37827,5.29262 0,1.84882 0.7795,3.77001 1.96206,4.83577 1.28333,1.1567 1.89251,2.7982 1.76101,4.74541 -0.11058,1.63744 0.5565,4.12827 1.4824,5.53516 1.11305,1.69142 1.46656,3.41873 1.04335,5.09796 -0.35207,1.39702 -0.0922,3.85719 0.57738,5.46714 0.94416,2.26997 0.96103,3.48781 0.0751,5.42419 -0.84639,1.84989 -0.86669,3.32895 -0.0784,5.70766 0.86452,2.60877 0.76893,3.65924 -0.50988,5.60288 -1.07696,1.63685 -1.38032,3.41978 -0.96079,5.6468 0.48248,2.56136 0.18465,3.64086 -1.39812,5.06729 -1.29375,1.16598 -2.0112,3.00349 -2.0112,5.15107 0,2.14941 -0.86495,4.36201 -2.42867,6.21277 -1.33576,1.58093 -2.42866,3.83241 -2.42866,5.00344 0,1.17091 -1.31149,3.27505 -2.9144,4.67575 -1.60291,1.40079 -2.9144,3.47707 -2.9144,4.61403 0,1.27986 -1.10223,2.69487 -2.89406,3.71526 -1.59173,0.90651 -3.41336,2.8933 -4.04808,4.41532 -0.66989,1.60628 -2.32099,3.17222 -3.93571,3.73287 -1.52994,0.53114 -3.43211,2.21829 -4.22705,3.74921 -0.84577,1.62872 -2.54628,3.04258 -4.09921,3.40818 -1.45963,0.34355 -3.64326,1.5196 -4.85253,2.61332 -1.32825,1.20139 -2.52613,1.62989 -3.02585,1.0824 -1.53694,-1.68387 -5.96029,-19.25526 -5.95379,-23.65084 0.005,-3.20482 -0.47148,-4.65999 -1.79423,-5.48272 -1.14589,-0.71263 -2.21673,-3.22591 -2.94485,-6.91166 -1.4795,-7.48925 -4.9691,-10.61831 -4.9691,-4.45556 0,3.16186 9.35131,33.24364 18.47388,59.42758 4.35661,12.50449 8.80226,25.45642 9.87923,28.78208 l 1.95815,6.04665 h 5.13184 c 4.31484,0 5.21274,-0.30804 5.63995,-1.93493 0.67105,-2.55555 1.64328,-2.44236 5.36003,0.62402 2.57815,2.12707 3.09776,3.2293 3.07849,6.53038 -0.0393,6.73231 -1.59116,11.32234 -4.82142,14.26063 -3.37318,3.06822 -5.61191,3.52573 -6.46167,1.3204 -0.39919,-1.03597 -2.02429,-1.4512 -5.67967,-1.4512 -2.81627,0 -6.68989,0.65303 -8.60806,1.4512 -1.91816,0.79815 -5.04571,1.45119 -6.9501,1.45119 -1.90439,0 -5.03194,-0.65304 -6.9501,-1.45119 -1.91816,-0.79817 -5.85228,-1.4512 -8.74248,-1.4512 -3.77486,0 -5.4124,0.40865 -5.81409,1.4512 -0.30755,0.79815 -1.40045,1.45119 -2.42866,1.45119 -1.02821,0 -2.12111,-0.65304 -2.42867,-1.45119 z m -22.69501,-82.00259 c 0,-1.77201 -7.72537,-9.42282 -9.51463,-9.42282 -0.8356,0 -2.92122,-0.50493 -4.63471,-1.12198 -3.52886,-1.27075 -13.14682,-0.0861 -13.73312,1.69113 -0.68171,2.0669 19.22463,9.82074 25.69666,10.0093 1.20219,0.0349 2.1858,-0.48509 2.1858,-1.15563 z m 57.22031,-21.74649 c 4.79975,-5.58304 10.33686,-15.6258 9.18693,-16.66254 -1.38608,-1.24977 -10.98671,3.58436 -11.91389,5.99886 -0.46187,1.20275 -1.76426,3.01616 -2.89419,4.02988 -1.64885,1.47915 -2.05441,2.96605 -2.05441,7.53181 0,5.3019 0.12638,5.62155 1.85746,4.69887 1.0216,-0.54448 3.63975,-3.06309 5.8181,-5.59688 z m -80.92627,3.5805 c 2.01414,-0.76266 2.37901,-1.27339 1.52044,-2.12843 -0.85858,-0.85504 -1.40942,-0.84643 -2.29542,0.0358 -2.42576,2.41576 -4.53049,1.34458 -4.84726,-2.46704 -0.28903,-3.47774 -0.45038,-3.62935 -3.89581,-3.66011 -4.51562,-0.0406 -5.01671,-0.55523 -3.58524,-3.68411 1.49281,-3.26287 -0.37412,-5.8342 -3.76693,-5.18832 -2.61731,0.49825 -4.07011,-1.68174 -2.29731,-3.44726 2.04752,-2.03913 1.22086,-4.70159 -1.81394,-5.84243 -3.20841,-1.20604 -3.68718,-2.69807 -1.45719,-4.54118 1.62344,-1.34177 1.93133,-2.90239 0.57263,-2.90239 -1.34514,0 -5.91861,9.71837 -5.89437,12.52509 0.0525,6.07471 8.76711,18.22016 15.03639,20.95605 3.54583,1.54737 9.14612,1.69887 12.72401,0.34413 z m 10.34496,-11.6418 c 0.9332,-1.89981 1.97523,-6.1079 2.31564,-9.35122 0.80027,-7.62498 -1.54551,-11.91878 -7.81399,-14.3029 -5.92682,-2.2541 -16.97451,-2.43608 -18.35715,-0.30224 -1.87653,2.89591 5.03429,15.04262 12.53305,22.0284 3.6115,3.36445 7.11274,5.84348 8.01828,5.67727 0.88409,-0.16224 2.37097,-1.84941 3.30417,-3.74931 z m -309.16562,-5.73658 c 0,-0.53211 -0.19278,-0.96747 -0.4284,-0.96747 -0.23562,0 -0.69857,0.43536 -1.0288,0.96747 -0.33022,0.5321 -0.13744,0.96746 0.4284,0.96746 0.56584,0 1.0288,-0.43536 1.0288,-0.96746 z m 383.52479,-9.58051 c 7.18996,-3.67202 9.92386,-8.6322 9.9134,-17.98585 -0.008,-6.9999 -1.48415,-11.28316 -5.08527,-14.75413 -3.46378,-3.33862 -10.45276,-6.72717 -10.45276,-5.06797 0,0.556 0.65574,1.21485 1.4572,1.46417 0.80145,0.24941 2.13103,0.66436 2.95461,0.92218 1.27269,0.3984 1.18262,0.89278 -0.60015,3.29413 -2.31122,3.11319 -1.90155,4.61189 1.62577,5.94748 2.83931,1.07505 3.02849,3.39609 0.39137,4.80162 -2.72388,1.45179 -2.45136,4.6481 0.51088,5.99219 2.94582,1.33665 2.68286,2.75766 -0.82549,4.46079 -3.10272,1.50635 -3.37942,4.37294 -0.60863,6.30564 1.83602,1.28073 1.86846,1.51108 0.41635,2.95726 -0.86616,0.86259 -2.41792,1.56835 -3.44837,1.56835 -1.03044,0 -1.87354,0.43536 -1.87354,0.96747 0,1.43291 1.59334,1.18553 5.62463,-0.87333 z m -13.05828,-1.53653 c 4.07541,-4.05861 5.27185,-19.34233 2.21504,-28.29583 -0.95162,-2.78726 -2.1147,-5.30441 -2.58463,-5.59369 -1.78344,-1.09768 -7.44483,2.36942 -12.35468,7.56616 -4.73617,5.01291 -5.10019,5.74016 -5.10019,10.18886 0,4.30985 0.43528,5.27268 4.33782,9.5954 3.71492,4.11483 9.1025,7.88339 11.37911,7.95943 0.36257,0.0125 1.31095,-0.62702 2.10753,-1.42033 z m -101.8088,-6.94901 c 3.84625,-6.53609 3.89716,-12.78853 0.15851,-19.4652 -1.5772,-2.81658 -3.34876,-4.96145 -3.93681,-4.76621 -1.82571,0.60612 -2.77037,7.57235 -2.25911,16.65964 0.758,13.47302 1.79756,14.77677 6.03741,7.57177 z m -312.40784,-6.05701 c 0.55311,-1.02919 1.00564,-3.54759 1.00564,-5.59649 0,-4.69356 3.03165,-13.3722 6.80405,-19.47787 1.59627,-2.58361 3.19734,-6.16652 3.55793,-7.96214 0.37139,-1.84921 2.06938,-4.59236 3.91651,-6.32732 3.21214,-3.01693 3.25802,-3.17782 3.07048,-10.76875 -0.15883,-6.42871 0.15883,-8.26873 1.91644,-11.10088 2.57366,-4.14713 2.60165,-4.61771 0.2746,-4.61771 -3.14233,0 -5.45376,6.22418 -5.45376,14.68592 0,6.92927 -0.19557,7.63359 -2.9018,10.45074 -1.596,1.66134 -3.34464,4.84826 -3.88587,7.08195 -0.94628,3.90536 -1.11456,4.04894 -4.38418,3.7406 -4.39123,-0.41408 -5.19108,-1.27677 -5.27445,-5.6884 -0.0536,-2.83429 -0.49465,-3.71003 -2.01154,-3.99389 -3.70573,-0.69347 -4.35225,-1.96125 -2.59468,-5.08779 1.61681,-2.87618 1.61003,-2.89834 -1.71429,-5.62959 -3.33598,-2.74073 -3.33654,-2.74257 -1.21433,-4.06238 2.56858,-1.59758 2.79526,-5.46589 0.42311,-7.2199 -1.47314,-1.08927 -1.52652,-1.53972 -0.39994,-3.37461 1.27065,-2.06951 1.21556,-2.10202 -2.42866,-1.43156 -6.1544,1.13232 -15.49075,6.10664 -20.12626,10.72299 -8.55062,8.51543 -11.13689,22.80624 -6.10733,33.747 4.88913,10.63525 17.82486,21.27823 24.54263,20.19254 2.29505,-0.37092 4.14774,0.0668 6.42261,1.51747 3.97905,2.53747 5.2856,2.57723 6.56309,0.20007 z m 349.76183,-13.56259 c 1.33576,-0.93438 3.26847,-3.12724 4.29489,-4.87293 1.79883,-3.05941 1.80834,-3.47301 0.26353,-11.45333 -1.9362,-10.00224 -3.16014,-11.61984 -7.45231,-9.84927 -4.22973,1.74482 -12.22434,10.97994 -15.62105,18.04486 -3.3043,6.87286 -3.50489,8.59147 -1.15724,9.91477 2.66393,1.50169 16.80913,0.21884 19.67218,-1.7841 z m -29.55814,-3.6965 c -1.67846,-1.5966 -1.70451,-1.57057 -0.59207,0.58958 0.64001,1.2428 1.43009,1.99433 1.75572,1.67003 0.32564,-0.32429 -0.19801,-1.34109 -1.16365,-2.25961 z m 1.46439,-5.05616 c 2.52543,0 3.39971,-2.46374 1.87868,-5.29407 -1.47227,-2.73966 -0.46923,-4.7247 2.05515,-4.06731 2.89944,0.7551 4.85336,-1.80074 3.69542,-4.83374 -1.2069,-3.16139 -0.65263,-3.70298 3.7892,-3.70298 3.50289,0 3.55859,-0.06 3.44156,-3.71931 l -0.11894,-3.71942 4.49054,0.65467 c 3.30244,0.48151 4.21134,0.36832 3.43523,-0.42751 -1.46345,-1.50074 -7.40901,-2.3376 -11.36137,-1.59912 -4.10232,0.76642 -10.80439,6.38168 -14.45044,12.10723 -2.99514,4.70343 -3.75891,11.90727 -1.67381,15.78729 0.97795,1.8198 1.18065,1.86256 1.99121,0.42017 0.49634,-0.8833 1.76874,-1.6059 2.82757,-1.6059 z m 69.60594,-4.08541 c 2.37798,-1.18273 5.87722,-3.4878 7.77611,-5.12253 3.01903,-2.59899 3.31359,-3.23076 2.34594,-5.0313 -3.34105,-6.21712 -25.22896,-13.14882 -32.6112,-10.32759 -2.43836,0.93177 -1.78526,6.02537 1.66142,12.95726 4.7537,9.56048 11.69311,12.06747 20.82773,7.52416 z m 38.57575,-8.42623 c -3.5904,-6.56957 -13.64856,-17.27747 -14.98185,-15.94972 -1.38172,1.37613 0.70753,12.25827 2.55379,13.30186 0.78205,0.44204 1.79615,1.78402 2.25357,2.98221 0.9168,2.40135 10.59516,6.73249 12.04027,5.38801 0.45998,-0.42791 -0.37961,-3.00301 -1.86578,-5.72236 z m -25.443,-13.02178 c 2.20088,-1.66385 2.14323,-3.03175 -0.29322,-6.95781 -3.56792,-5.74926 -17.95238,-10.64744 -25.63159,-8.72799 -2.63044,0.65749 -10.26229,6.93266 -10.26229,8.43794 0,1.74588 2.42297,0.77087 4.48719,-1.80559 l 2.1315,-2.66052 1.18067,2.57849 c 1.56083,3.40876 4.41526,4.07215 6.75595,1.56999 2.1898,-2.34077 4.87401,-1.69509 4.87401,1.17258 0,2.48735 2.58514,3.57255 4.97283,2.08759 2.87739,-1.78962 4.74182,-1.35513 4.74182,1.10504 0,4.15235 3.6125,5.79376 7.04313,3.20028 z m -96.89366,-9.85441 c 1.93609,-2.35306 3.36793,-4.27822 3.18185,-4.27822 -0.18607,0 -2.94758,2.66546 -6.13669,5.9233 -3.18913,3.25784 -4.62096,5.18309 -3.18187,4.27822 1.4391,-0.90477 4.20061,-3.57033 6.13671,-5.9233 z m 45.64031,1.9269 c 1.29347,-0.84401 2.84997,-1.228 3.4589,-0.8532 1.06745,0.657 10.63589,-7.82418 10.63589,-9.42727 0,-1.54301 -7.88468,-0.69435 -15.25044,1.6414 -7.60966,2.41325 -14.56451,5.95803 -13.59119,6.92734 0.43813,0.43632 9.17844,2.7952 11.63229,3.13933 0.41953,0.059 1.82107,-0.58359 3.11455,-1.4276 z M 589.2631,474.68929 c 0,-1.52947 -0.66804,-4.66637 -1.48454,-6.97106 -0.81648,-2.3047 -1.26857,-4.75074 -1.00462,-5.43581 0.48844,-1.26756 -2.97337,-5.1291 -4.59822,-5.1291 -0.49073,0 -0.6097,0.73314 -0.26439,1.6293 0.3453,0.89616 1.78149,5.46743 3.1915,10.15838 2.59904,8.64662 4.16027,10.80378 4.16027,5.74829 z m 434.7917,-304.191 c 10.175,-13.47994 15.1059,-29.50407 13.5452,-44.01814 l -0.6756,-6.28118 -2.2485,5.50988 c -3.1097,7.61969 -7.8816,15.23591 -13.4455,21.46025 -5.0175,5.61281 -5.9015,7.91093 -9.4043,24.44673 -2.8589,13.4961 -2.8125,13.63817 2.9004,8.87481 2.6502,-2.20977 6.8479,-6.70633 9.3283,-9.99235 z m 1.3976,-37.44749 c 1.715,-2.66152 3.9463,-7.48926 4.9586,-10.72832 2.0344,-6.50958 2.3358,-9.08505 0.7441,-6.35848 -1.4721,2.5218 -9.5851,21.92592 -9.1673,21.92592 0.1906,0 1.7497,-2.17761 3.4646,-4.83912 z" id="frame" inkscape:label="frame" />
    <path style="fill:#d4d4d4;stroke-width:0.969463" d="m 643.85641,533.93935 c -2.21836,-1.54737 -6.88427,-10.1997 -6.90298,-12.80072 -0.0165,-2.29793 12.16807,-0.97337 18.70319,2.03312 8.44957,3.88737 8.36771,5.74791 -0.459,10.43305 -4.38182,2.32578 -8.31998,2.44198 -11.34121,0.33455 z" id="path69" />
    <path style="fill:#d4d4d4;stroke-width:0.969463" d="m 599.05677,547.57266 c 0,-0.28724 0.89527,-2.26986 1.98948,-4.40593 1.97467,-3.85466 2.02173,-3.87875 6.32335,-3.23636 6.36612,0.95073 7.55131,-0.39521 6.70937,-7.61955 -0.87076,-7.47164 0.71105,-6.61466 2.94221,1.59398 1.54611,5.68831 1.55366,6.3756 0.10087,9.17342 -0.86376,1.66345 -2.41153,3.47271 -3.43949,4.02059 -1.90289,1.01418 -14.62579,1.42642 -14.62579,0.47385 z" id="path68" />
    <path style="fill:#4d95b5;stroke-width:0.969463" d="m 1097.8602,727.40295 c -50.8698,-4.21718 -98.18384,-22.35715 -138.46864,-53.08837 -10.47386,-7.98991 -30.37823,-27.25368 -38.56262,-37.3215 -24.43013,-30.05188 -40.4054,-64.86203 -47.50723,-103.51873 -2.4519,-13.34618 -2.966,-48.1424 -0.92909,-62.88521 2.46258,-17.82408 6.0571,-32.58653 11.42503,-46.92204 11.90453,-31.79224 27.44633,-56.24162 51.27571,-80.66343 10.54254,-10.80474 29.12453,-26.94235 34.21948,-29.718 1.41028,-0.76837 2.18853,0.22464 5.10807,6.51762 1.89436,4.08317 3.33144,7.49581 3.19349,7.58356 -10.23925,6.51385 -37.86899,33.27876 -47.41821,45.93416 -64.24416,85.14096 -55.29213,198.30164 21.54915,272.39657 38.80235,37.41563 88.98936,59.94227 145.59436,65.3507 14.5926,1.3942 41.9696,0.65439 55.7706,-1.50712 42.1125,-6.59589 83.2688,-24.32216 114.2358,-49.20226 92.3807,-74.22245 107.0769,-200.45222 33.9768,-291.83729 -7.4402,-9.30139 -25.2587,-26.89948 -35.434,-34.99591 -26.511,-21.09479 -63.709,-38.14229 -98.6037,-45.18913 -17.2093,-3.47536 -27.4386,-4.39326 -49.0591,-4.40219 -22.6497,-0.01 -33.9067,1.20014 -52.231,5.61183 l -9.1022,2.19141 0.065,-3.13035 c 0.056,-2.70031 0.6345,-3.40614 4.2069,-5.13748 3.8548,-1.86823 5.6661,-4.29639 7.3656,-9.87414 0.3562,-1.16901 3.2656,-2.02671 11.4857,-3.38612 15.739,-2.60286 61.4767,-2.63297 77.0682,-0.0507 62.9742,10.42968 116.0039,39.62529 154.9391,85.30201 49.5019,58.07285 65.317,139.18761 41.1971,211.29584 -31.1544,93.13793 -123.4616,158.32474 -228.111,161.09062 -9.1292,0.24128 -21.3916,0.0416 -27.2498,-0.44435 z" id="front_rim" inkscape:highlight-color="#c32e0c" inkscape:label="front_rim" />
    <path style="fill:#4d95b5;stroke-width:0.969463" d="m 287.86004,730.52708 c -2.13723,-0.20975 -8.65779,-0.84198 -14.49012,-1.40495 C 189.41018,721.01758 112.80569,669.55349 77.146394,597.29635 62.102393,566.81241 55.479649,540.297 54.504162,506.64404 53.434957,469.75789 60.437185,437.3278 76.542367,404.5765 102.16894,352.46257 146.73823,311.71741 203.37847,288.62314 c 30.02725,-12.24318 60.72551,-18.04053 95.52868,-18.04053 28.69217,0 50.61268,3.23672 75.87677,11.20373 l 10.70842,3.37691 v 4.31318 c 0,3.97679 0.32205,4.53831 4.12873,7.19863 4.60079,3.21538 4.35937,2.98976 8.57204,8.01071 1.67417,1.9954 2.81633,3.628 2.53813,3.628 -0.27822,0 -2.61859,-0.91571 -5.20083,-2.03497 -17.64027,-7.64568 -40.95703,-14.34905 -60.82852,-17.48772 -18.15226,-2.86709 -51.51216,-3.09881 -68.69983,-0.47718 -52.02975,7.93606 -97.88434,30.46029 -132.84249,65.25361 -49.970494,49.73475 -71.520148,118.25263 -58.43298,185.78951 4.439987,22.91276 16.741404,52.72751 29.99263,72.69278 51.49263,77.58255 148.95502,116.59199 244.11311,97.70659 45.3037,-8.99104 86.5783,-30.52216 120.66216,-62.94383 l 8.77282,-8.34507 9.05512,0.75085 c 4.98032,0.41301 9.28537,0.98013 9.56677,1.26042 0.93322,0.92934 -24.28713,25.89893 -34.16534,33.82556 -36.91886,29.62522 -80.50815,47.99834 -128.83013,54.30273 -11.21023,1.46252 -38.91848,2.61825 -46.03369,1.92003 z" id="back_rim" inkscape:highlight-color="#f885d8" inkscape:label="back_rim" />
    <path style="fill:#4d95b5;stroke-width:0.969463" d="m 1072.5674,753.45098 c -52.4955,-7.83153 -101.99525,-30.50852 -142.11299,-65.10525 -50.32124,-43.39602 -80.4763,-98.47514 -88.76253,-162.12735 -1.75985,-13.51868 -1.46853,-45.44657 0.54288,-59.49909 7.79286,-54.44408 31.49209,-102.69241 70.02905,-142.56937 13.18143,-13.63981 41.94993,-36.97101 45.96004,-37.27348 1.3076,-0.0986 7.96796,13.67556 7.96796,16.4785 0,0.63205 -2.29508,2.79723 -5.10019,4.81159 -54.78969,39.3435 -89.80935,97.12398 -98.32483,162.23029 -1.72595,13.19603 -1.95202,38.14655 -0.46887,51.74794 6.26693,57.47177 35.88528,112.35729 81.87175,151.71589 49.71853,42.55278 113.86273,64.75203 181.82823,62.92787 11.2204,-0.30117 24.7723,-1.19355 30.1154,-1.9832 85.9523,-12.70271 158.5717,-63.96528 194.7539,-137.47828 26.3441,-53.52489 30.3579,-113.39597 11.4442,-170.71255 -19.7836,-59.95301 -64.8567,-110.68938 -125.104,-140.82272 -48.7528,-24.38437 -110.8978,-33.3318 -163.1828,-23.49457 -6.1446,1.15606 -12.4834,2.03955 -14.0863,1.96329 -1.6029,-0.0763 -5.8859,0.5469 -9.5177,1.38477 -3.632,0.83788 -6.7966,1.33103 -7.0328,1.09589 -0.236,-0.23514 0.2802,-2.22621 1.1473,-4.42461 1.4265,-3.61622 1.436,-4.42244 0.1008,-8.46119 -1.7704,-5.35606 -2.5874,-4.85357 13.8541,-8.52134 41.4476,-9.24615 88.1985,-8.3914 131.4659,2.4036 33.061,8.24854 61.5097,20.94072 90.0193,40.16145 38.7064,26.09528 68.7261,60.32264 88.9548,101.42306 11.6945,23.76054 19.2225,47.22369 23.2809,72.55985 2.1447,13.38971 2.9374,44.73102 1.4945,59.08287 -7.5968,75.55697 -48.2868,142.02663 -114.7017,187.37229 -35.4695,24.21739 -75.6147,39.63132 -119.0235,45.69974 -16.3765,2.28941 -70.5745,1.92613 -87.4128,-0.58589 z" id="front_tire" inkscape:highlight-color="#f335cd" inkscape:label="front_tire" />
    <path style="fill:#4d95b5;stroke-width:0.969463" d="M 258.07231,758.02101 C 178.23185,745.8088 108.78644,701.68583 65.472742,635.65055 46.917641,607.3617 34.694464,575.91677 28.617976,540.83901 25.685072,523.90819 25.44002,484.09933 28.163592,467.02426 37.230437,410.18087 62.921994,361.1871 104.50721,321.43698 150.32014,277.6457 207.24754,251.59953 271.93166,244.8347 c 46.46374,-4.85928 98.02324,2.79327 139.86885,20.7596 10.67485,4.58323 11.13787,4.98367 9.10474,7.87443 -0.8633,1.22744 -1.56964,3.65277 -1.56964,5.3896 0,2.72841 -0.49544,3.3688 -3.64299,4.70878 -2.99058,1.27316 -4.16492,1.3431 -6.55739,0.39052 -1.60292,-0.63821 -4.66304,-1.60819 -6.80027,-2.15552 -2.13721,-0.54732 -7.58196,-2.26499 -12.09943,-3.81707 -20.23924,-6.95359 -46.49543,-12.50584 -67.56075,-14.28668 -123.12527,-10.4089 -238.579138,67.06758 -268.701909,180.31523 -8.871502,33.35277 -10.01617,69.13213 -3.283379,102.63021 18.609426,92.5886 96.465378,168.13744 194.798378,189.02607 32.73983,6.95481 71.92154,7.6716 104.38795,1.90978 60.18544,-10.68121 113.85468,-40.69437 153.1467,-85.64337 l 8.6147,-9.85498 8.97987,0.49069 c 4.93893,0.26983 10.18208,0.51798 11.65142,0.55146 1.46934,0.0339 2.67153,0.23461 2.67153,0.44716 0,0.69609 -8.0656,11.29505 -13.48284,17.71776 -38.79001,45.98941 -92.42971,78.78675 -151.1806,92.43748 -22.26566,5.17343 -26.50525,5.56109 -64.11673,5.86352 -31.54188,0.25367 -37.43152,0.062 -48.08756,-1.56836 z" id="back_tire" inkscape:highlight-color="#099595" inkscape:label="back_tire" />
  </g>
<g id="heatmap_legend"><rect x="0" y="768" width="1408" height="220" fill="#f3f2f0" /><text x="54" y="822" font-size="30" font-family="Arial" fill="#2d2d2d" font-weight="700">merida NINETY-SIX 400 Template Heatmap</text><text x="54" y="856" font-size="18" font-family="Arial" fill="#2d2d2d">Template heatmap rendered from normalized price score values.</text><rect x="54.00" y="886" width="9.23" height="28" fill="#2b83ba" /><rect x="62.23" y="886" width="9.23" height="28" fill="#2f85b9" /><rect x="70.47" y="886" width="9.23" height="28" fill="#3287b9" /><rect x="78.70" y="886" width="9.23" height="28" fill="#3689b8" /><rect x="86.93" y="886" width="9.23" height="28" fill="#398ab8" /><rect x="95.17" y="886" width="9.23" height="28" fill="#3d8cb7" /><rect x="103.40" y="886" width="9.23" height="28" fill="#408eb7" /><rect x="111.63" y="886" width="9.23" height="28" fill="#4490b6" /><rect x="119.87" y="886" width="9.23" height="28" fill="#4892b6" /><rect x="128.10" y="886" width="9.23" height="28" fill="#4b94b5" /><rect x="136.33" y="886" width="9.23" height="28" fill="#4f96b4" /><rect x="144.57" y="886" width="9.23" height="28" fill="#5298b4" /><rect x="152.80" y="886" width="9.23" height="28" fill="#5699b3" /><rect x="161.03" y="886" width="9.23" height="28" fill="#599bb3" /><rect x="169.27" y="886" width="9.23" height="28" fill="#5d9db2" /><rect x="177.50" y="886" width="9.23" height="28" fill="#609fb2" /><rect x="185.73" y="886" width="9.23" height="28" fill="#64a1b1" /><rect x="193.97" y="886" width="9.23" height="28" fill="#68a3b1" /><rect x="202.20" y="886" width="9.23" height="28" fill="#6ba5b0" /><rect x="210.43" y="886" width="9.23" height="28" fill="#6fa6af" /><rect x="218.67" y="886" width="9.23" height="28" fill="#72a8af" /><rect x="226.90" y="886" width="9.23" height="28" fill="#76aaae" /><rect x="235.13" y="886" width="9.23" height="28" fill="#79acae" /><rect x="243.37" y="886" width="9.23" height="28" fill="#7daead" /><rect x="251.60" y="886" width="9.23" height="28" fill="#81b0ad" /><rect x="259.83" y="886" width="9.23" height="28" fill="#84b2ac" /><rect x="268.07" y="886" width="9.23" height="28" fill="#88b4ac" /><rect x="276.30" y="886" width="9.23" height="28" fill="#8bb5ab" /><rect x="284.53" y="886" width="9.23" height="28" fill="#8fb7aa" /><rect x="292.77" y="886" width="9.23" height="28" fill="#92b9aa" /><rect x="301.00" y="886" width="9.23" height="28" fill="#96bba9" /><rect x="309.23" y="886" width="9.23" height="28" fill="#99bda9" /><rect x="317.47" y="886" width="9.23" height="28" fill="#9dbfa8" /><rect x="325.70" y="886" width="9.23" height="28" fill="#a1c1a8" /><rect x="333.93" y="886" width="9.23" height="28" fill="#a4c2a7" /><rect x="342.17" y="886" width="9.23" height="28" fill="#a8c4a7" /><rect x="350.40" y="886" width="9.23" height="28" fill="#abc6a6" /><rect x="358.63" y="886" width="9.23" height="28" fill="#afc8a5" /><rect x="366.87" y="886" width="9.23" height="28" fill="#b2caa5" /><rect x="375.10" y="886" width="9.23" height="28" fill="#b6cca4" /><rect x="383.33" y="886" width="9.23" height="28" fill="#bacea4" /><rect x="391.57" y="886" width="9.23" height="28" fill="#bdcfa3" /><rect x="399.80" y="886" width="9.23" height="28" fill="#c1d1a3" /><rect x="408.03" y="886" width="9.23" height="28" fill="#c4d3a2" /><rect x="416.27" y="886" width="9.23" height="28" fill="#c8d5a2" /><rect x="424.50" y="886" width="9.23" height="28" fill="#cbd7a1" /><rect x="432.73" y="886" width="9.23" height="28" fill="#cfd9a0" /><rect x="440.97" y="886" width="9.23" height="28" fill="#d2dba0" /><rect x="449.20" y="886" width="9.23" height="28" fill="#d6dd9f" /><rect x="457.43" y="886" width="9.23" height="28" fill="#dade9f" /><rect x="465.67" y="886" width="9.23" height="28" fill="#dde09e" /><rect x="473.90" y="886" width="9.23" height="28" fill="#e1e29e" /><rect x="482.13" y="886" width="9.23" height="28" fill="#e4e49d" /><rect x="490.37" y="886" width="9.23" height="28" fill="#e8e69d" /><rect x="498.60" y="886" width="9.23" height="28" fill="#ebe89c" /><rect x="506.83" y="886" width="9.23" height="28" fill="#efea9b" /><rect x="515.07" y="886" width="9.23" height="28" fill="#f3eb9b" /><rect x="523.30" y="886" width="9.23" height="28" fill="#f6ed9a" /><rect x="531.53" y="886" width="9.23" height="28" fill="#faef9a" /><rect x="539.77" y="886" width="9.23" height="28" fill="#fdf199" /><rect x="548.00" y="886" width="9.23" height="28" fill="#fef098" /><rect x="556.23" y="886" width="9.23" height="28" fill="#fdec96" /><rect x="564.47" y="886" width="9.23" height="28" fill="#fbe894" /><rect x="572.70" y="886" width="9.23" height="28" fill="#fae492" /><rect x="580.93" y="886" width="9.23" height="28" fill="#f8e090" /><rect x="589.17" y="886" width="9.23" height="28" fill="#f7dc8e" /><rect x="597.40" y="886" width="9.23" height="28" fill="#f5d88c" /><rect x="605.63" y="886" width="9.23" height="28" fill="#f4d38b" /><rect x="613.87" y="886" width="9.23" height="28" fill="#f2cf89" /><rect x="622.10" y="886" width="9.23" height="28" fill="#f1cb87" /><rect x="630.33" y="886" width="9.23" height="28" fill="#efc785" /><rect x="638.57" y="886" width="9.23" height="28" fill="#eec383" /><rect x="646.80" y="886" width="9.23" height="28" fill="#ecbf81" /><rect x="655.03" y="886" width="9.23" height="28" fill="#ebbb7f" /><rect x="663.27" y="886" width="9.23" height="28" fill="#e9b77d" /><rect x="671.50" y="886" width="9.23" height="28" fill="#e8b37b" /><rect x="679.73" y="886" width="9.23" height="28" fill="#e6af79" /><rect x="687.97" y="886" width="9.23" height="28" fill="#e5ab77" /><rect x="696.20" y="886" width="9.23" height="28" fill="#e3a775" /><rect x="704.43" y="886" width="9.23" height="28" fill="#e2a373" /><rect x="712.67" y="886" width="9.23" height="28" fill="#e09f71" /><rect x="720.90" y="886" width="9.23" height="28" fill="#de9b6f" /><rect x="729.13" y="886" width="9.23" height="28" fill="#dd966e" /><rect x="737.37" y="886" width="9.23" height="28" fill="#db926c" /><rect x="745.60" y="886" width="9.23" height="28" fill="#da8e6a" /><rect x="753.83" y="886" width="9.23" height="28" fill="#d88a68" /><rect x="762.07" y="886" width="9.23" height="28" fill="#d78666" /><rect x="770.30" y="886" width="9.23" height="28" fill="#d58264" /><rect x="778.53" y="886" width="9.23" height="28" fill="#d47e62" /><rect x="786.77" y="886" width="9.23" height="28" fill="#d27a60" /><rect x="795.00" y="886" width="9.23" height="28" fill="#d1765e" /><rect x="803.23" y="886" width="9.23" height="28" fill="#cf725c" /><rect x="811.47" y="886" width="9.23" height="28" fill="#ce6e5a" /><rect x="819.70" y="886" width="9.23" height="28" fill="#cc6a58" /><rect x="827.93" y="886" width="9.23" height="28" fill="#cb6656" /><rect x="836.17" y="886" width="9.23" height="28" fill="#c96254" /><rect x="844.40" y="886" width="9.23" height="28" fill="#c85e52" /><rect x="852.63" y="886" width="9.23" height="28" fill="#c65951" /><rect x="860.87" y="886" width="9.23" height="28" fill="#c5554f" /><rect x="869.10" y="886" width="9.23" height="28" fill="#c3514d" /><rect x="877.33" y="886" width="9.23" height="28" fill="#c24d4b" /><rect x="885.57" y="886" width="9.23" height="28" fill="#c04949" /><rect x="893.80" y="886" width="9.23" height="28" fill="#bf4547" /><rect x="902.03" y="886" width="9.23" height="28" fill="#bd4145" /><rect x="910.27" y="886" width="9.23" height="28" fill="#bc3d43" /><rect x="918.50" y="886" width="9.23" height="28" fill="#ba3941" /><rect x="926.73" y="886" width="9.23" height="28" fill="#b9353f" /><rect x="934.97" y="886" width="9.23" height="28" fill="#b7313d" /><rect x="943.20" y="886" width="9.23" height="28" fill="#b62d3b" /><rect x="951.43" y="886" width="9.23" height="28" fill="#b42939" /><rect x="959.67" y="886" width="9.23" height="28" fill="#b32537" /><rect x="967.90" y="886" width="9.23" height="28" fill="#b12135" /><rect x="976.13" y="886" width="9.23" height="28" fill="#b01c34" /><rect x="984.37" y="886" width="9.23" height="28" fill="#ae1832" /><rect x="992.60" y="886" width="9.23" height="28" fill="#ad1430" /><rect x="1000.83" y="886" width="9.23" height="28" fill="#ab102e" /><rect x="1009.07" y="886" width="9.23" height="28" fill="#aa0c2c" /><rect x="1017.30" y="886" width="9.23" height="28" fill="#a8082a" /><rect x="1025.53" y="886" width="9.23" height="28" fill="#a70428" /><rect x="1033.77" y="886" width="9.23" height="28" fill="#a50026" /><rect x="54" y="886" width="988" height="28" fill="none" stroke="#5f5f5f" stroke-width="1" /><text x="54" y="876" font-size="18" font-family="Arial" fill="#2d2d2d">Low</text><text x="548" y="876" font-size="18" font-family="Arial" fill="#2d2d2d" text-anchor="middle">Price Score</text><text x="1042" y="876" font-size="18" font-family="Arial" fill="#2d2d2d" text-anchor="end">High</text><circle cx="1108" cy="800" r="4.5" fill="#4d95b5" stroke="#5f5f5f" stroke-width="0.8" /><text x="1120" y="804" font-size="11" font-family="Arial" fill="#2d2d2d">tire: 0.08</text><circle cx="1108" cy="812" r="4.5" fill="#2b83ba" stroke="#5f5f5f" stroke-width="0.8" /><text x="1120" y="816" font-size="11" font-family="Arial" fill="#2d2d2d">brake: 0.00</text><circle cx="1108" cy="824" r="4.5" fill="#2f85b9" stroke="#5f5f5f" stroke-width="0.8" /><text x="1120" y="828" font-size="11" font-family="Arial" fill="#2d2d2d">chainwheel: 0.01</text><circle cx="1108" cy="836" r="4.5" fill="#bebebe" stroke="#5f5f5f" stroke-width="0.8" /><text x="1120" y="840" font-size="11" font-family="Arial" fill="#2d2d2d">seatpost: N/A</text><circle cx="1108" cy="848" r="4.5" fill="#2b83ba" stroke="#5f5f5f" stroke-width="0.8" /><text x="1120" y="852" font-size="11" font-family="Arial" fill="#2d2d2d">rearderailleur: 0.00</text><circle cx="1108" cy="860" r="4.5" fill="#a50026" stroke="#5f5f5f" stroke-width="0.8" /><text x="1120" y="864" font-size="11" font-family="Arial" fill="#2d2d2d">frame: 1.00</text><circle cx="1108" cy="872" r="4.5" fill="#2b83ba" stroke="#5f5f5f" stroke-width="0.8" /><text x="1120" y="876" font-size="11" font-family="Arial" fill="#2d2d2d">saddle: 0.00</text><circle cx="1108" cy="884" r="4.5" fill="#8ab5ab" stroke="#5f5f5f" stroke-width="0.8" /><text x="1120" y="888" font-size="11" font-family="Arial" fill="#2d2d2d">fork: 0.22</text><circle cx="1108" cy="896" r="4.5" fill="#2b83ba" stroke="#5f5f5f" stroke-width="0.8" /><text x="1120" y="900" font-size="11" font-family="Arial" fill="#2d2d2d">freewhile: 0.00</text><circle cx="1108" cy="908" r="4.5" fill="#2b83ba" stroke="#5f5f5f" stroke-width="0.8" /><text x="1120" y="912" font-size="11" font-family="Arial" fill="#2d2d2d">crank: 0.00</text><circle cx="1108" cy="920" r="4.5" fill="#2b83ba" stroke="#5f5f5f" stroke-width="0.8" /><text x="1120" y="924" font-size="11" font-family="Arial" fill="#2d2d2d">handlebar: 0.00</text><circle cx="1108" cy="932" r="4.5" fill="#2b83ba" stroke="#5f5f5f" stroke-width="0.8" /><text x="1120" y="936" font-size="11" font-family="Arial" fill="#2d2d2d">shiftlever: 0.00</text><circle cx="1108" cy="944" r="4.5" fill="#2b83ba" stroke="#5f5f5f" stroke-width="0.8" /><text x="1120" y="948" font-size="11" font-family="Arial" fill="#2d2d2d">pedal: 0.00</text></g></svg>