<svg xmlns="http://www.w3.org/2000/svg" xmlns:inkscape="http://www.inkscape.org/namespaces/inkscape" xmlns:ns1="http://sodipodi.sourceforge.net/DTD/sodipodi-0.dtd" version="1.1" id="svg1" width="1116" height="604" viewBox="0 0 1116 604" ns1:docname="公路车各部件分离模板.svg" inkscape:version="1.4.4 (dcaf3e7, 2026-05-05)">
  <defs id="defs1" />
  <ns1:namedview id="namedview1" pagecolor="#ffffff" bordercolor="#000000" borderopacity="0.25" inkscape:showpageshadow="2" inkscape:pageopacity="0.0" inkscape:pagecheckerboard="0" inkscape:deskcolor="#d1d1d1" inkscape:zoom="1.4247499" inkscape:cx="547.81544" inkscape:cy="359.71225" inkscape:window-width="2560" inkscape:window-height="1494" inkscape:window-x="-11" inkscape:window-y="-11" inkscape:window-maximized="1" inkscape:current-layer="g1" />
  <g inkscape:groupmode="layer" inkscape:label="Image" id="g1">
    <path style="fill:#d8d8d8;stroke:#bcbcbc;stroke-width:0.969463" d="m 363.12086,58.027636 c -2.6658,-1.67838 -3.26054,-2.61789 -2.88868,-4.56319 0.44743,-2.34058 0.24069,-2.4499 -4.64304,-2.45523 -8.39702,-0.009 -12.12689,-1.61776 -19.82269,-8.54902 -3.93599,-3.54497 -7.86111,-6.47133 -8.72249,-6.50302 -8.89665,-0.32729 -15.27113,-2.70981 -21.6909,-8.10716 -2.26861,-1.90731 -6.20696,-4.26305 -8.75189,-5.23496 -5.83492,-2.22838 -7.2645,-5.84041 -3.52411,-8.90416 2.25815,-1.84966 3.44018,-1.92723 19.90075,-1.30593 9.625,0.3633 24.475,1.08438 33,1.60241 8.525,0.51803 35.61535,0.95662 60.20078,0.97464 29.13261,0.0214 46.54636,0.42396 50,1.15598 9.8405,2.08577 16.49566,7.01901 15.61869,11.57763 -0.26214,1.36262 -1.67739,1.96663 -5.83279,2.48933 -7.4748,0.94026 -21.15535,1.07426 -28.77939,0.28189 l -6.29271,-0.654 -11.79414,6.57383 c -14.6532,8.16742 -17.12502,9.20209 -25.44525,10.65099 -3.67135,0.63934 -6.67519,1.48503 -6.67519,1.87931 0,0.39428 1.43579,1.36059 3.19064,2.14735 1.75486,0.78675 3.34265,1.91886 3.52844,2.51579 0.4216,1.35454 -14.28584,5.47772 -21.71908,6.08886 -4.39879,0.36166 -6.17213,0.029 -8.85695,-1.66134 z m -3.14235,-14.51348 c 0.95053,-0.86021 6.07373,-2.12029 12.00468,-2.95261 9.46083,-1.32768 10.58726,-1.30975 13.1591,0.20948 3.95395,2.33565 11.236,0.65619 23.07581,-5.32201 14.46379,-7.30309 14.79625,-7.74331 5.25971,-6.96463 -13.41137,1.09506 -26.27402,3.40639 -42.09287,7.5638 -10.83204,2.8468 -17.11338,3.9666 -22.25,3.9666 -3.94734,0 -7.15713,0.43416 -7.15713,0.96807 0,3.46705 14.68488,5.53208 18.0007,2.5313 z" id="saddle" inkscape:label="saddle" />
    <path style="fill:#d8d8d8;stroke:#bcbcbc;stroke-width:0.969463" d="m 877.95036,91.327576 c -1.3599,-0.92797 -7.0338,-5.886 -12.6086,-11.01785 -8.9949,-8.28008 -13.637,-14.35519 -12.1248,-15.86743 0.2796,-0.27961 6.3027,-1.39474 13.3846,-2.47807 21.8317,-3.33964 26.8956,-6.03046 31.7639,-16.87851 3.6928,-8.22861 6.6609,-10.42825 13.1794,-9.76712 5.084,0.51564 14.433,4.21852 14.433,5.71652 0,0.44005 -1.9125,3.1436 -4.25,6.00789 -8.9236,10.9346 -8.8123,10.66165 -7.2869,17.87805 1.6026,7.5814 1.3583,8.51085 -2.6759,10.18187 -1.688,0.69919 -8.7289,5.01539 -15.6465,9.59156 -6.9176,4.57617 -13.279,8.3203 -14.1366,8.3203 -0.8575,0 -2.6718,-0.75924 -4.0316,-1.68721 z" id="shift_lever" inkscape:label="shift_lever" />
    <path style="fill:#d8d8d8;stroke:#bcbcbc;stroke-width:0.969463" d="m 728.44826,110.48194 c 0.021,-4.11911 -0.3899,-5.91841 -1.4704,-6.43486 -4.6249,-2.21038 -5.5313,-2.90539 -5.8405,-4.478684 -0.1873,-0.95262 0.6744,-2.81243 1.915,-4.13293 1.917,-2.04061 2.0865,-2.77172 1.1296,-4.87207 -0.6923,-1.51933 -2.3929,-2.79722 -4.4151,-3.31768 -7.0817,-1.82263 -2.9812,-9.51384 7.6456,-14.34051 4.3781,-1.98856 11.9517,-2.45441 15.844,-0.97456 2.512,0.95506 14.156,-0.74369 34.621,-5.05089 8.1858,-1.72285 11.1029,-2.80633 13.7038,-5.08997 4.0421,-3.54894 15.29,-5.93823 17.8711,-3.79615 2.4615,2.04292 1.8127,2.751 -3.2114,3.5044 -6.3138,0.94682 -9.9091,2.93145 -11.7462,6.48402 -2.9103,5.62796 -1.1752,12.89156 3.8257,16.01463 1.1603,0.72463 5.1748,1.53682 8.9211,1.80487 8.2696,0.59168 8.4148,2.11768 0.3971,4.17276 -5.0928,1.30539 -6.1506,1.29037 -10.0159,-0.14222 -2.377,-0.88096 -5.407,-1.44317 -6.7333,-1.24935 -18.5554,2.71142 -35.8715,5.96635 -37.6616,7.0793 -3.1252,1.94294 -2.8503,3.09144 1.7986,7.513824 l 4.0487,3.85141 -2.5552,0.9715 c -6.6246,2.51864 -21.4083,7.10518 -24.5717,7.62317 l -3.5295,0.57795 z" id="steam_cap" inkscape:label="steam_cap" />
    <path style="fill:#d8d8d8;stroke:#bcbcbc;stroke-width:0.969463" d="m 399.93849,136.41137 c -0.5444,-1.43188 -5.32441,-16.38525 -10.62225,-33.2297 -5.29784,-16.844464 -10.24129,-32.083474 -10.98543,-33.864464 -0.74415,-1.781 -1.353,-3.48877 -1.353,-3.79505 0,-0.56444 0.62023,-0.831 11.73534,-5.04355 l 6.23534,-2.36315 12.12417,36.94309 c 6.6683,20.318694 11.89422,37.542334 11.61317,38.274744 -0.46519,1.21228 -13.45476,5.69219 -16.48277,5.68467 -0.70111,-0.002 -1.72017,-1.17471 -2.26457,-2.60659 z" id="seat_post" inkscape:label="seat_post" />
    <path style="fill:#d8d8d8;stroke:#bcbcbc;stroke-width:0.969463" d="m 928.68436,138.94381 c -6.7104,-4.44478 -13.4993,-12.25044 -16.7041,-19.20569 -4.5833,-9.94704 -4.3875,-13.2654 1.1362,-19.25791 4.0367,-4.379284 4.1247,-4.624914 3.573,-9.970824 -0.3261,-3.15904 -1.4439,-6.71421 -2.6387,-8.39214 -2.6187,-3.6777 -2.6134,-3.73351 0.6242,-6.5184 2.6825,-2.30734 2.6907,-2.35552 1.5,-8.81733 -0.6584,-3.57353 -1.1971,-7.22138 -1.1971,-8.10635 0,-0.88496 2.7489,-4.80301 6.1088,-8.70676 l 6.1088,-7.09775 2.3912,2.24638 c 3.3683,3.16436 2.9906,6.24783 -1.6088,13.13561 -4.5213,6.77059 -4.5244,6.78621 -2.5665,12.83401 1.0009,3.09161 1.5706,11.2192 1.8875,26.92813 0.4905,24.309914 1.3377,29.241634 6.0947,35.478374 5.2207,6.84468 2.3725,10.14135 -4.7092,5.45065 z" id="brake_lever" inkscape:label="brake_lever" />
    <path style="fill:#d8d8d8;stroke:#bcbcbc;stroke-width:0.969463" d="m 396.53451,149.79228 c -1.93272,-2.75935 -1.98727,-5.17526 -0.15125,-6.69902 1.76954,-1.46858 28.60608,-9.18938 29.66544,-8.53466 1.35898,0.8399 3.18587,7.60105 2.28705,8.46415 -0.80517,0.77317 -27.72051,8.99204 -29.44732,8.99204 -0.43847,0 -1.49773,-1.00013 -2.35392,-2.22251 z" id="path35" />
    <path style="fill:#d8d8d8;stroke:#bcbcbc;stroke-width:0.969463" d="m 793.53216,170.11983 c -0.8234,-1.59223 -1.9209,-4.78128 -2.4389,-7.08679 -1.3285,-5.91267 0.4562,-7.33633 12.5409,-10.00389 25.414,-5.60981 34.2509,-9.72667 45.8755,-21.37191 8.2369,-8.25164 13.2354,-16.02952 14.657,-22.80698 1.1018,-5.25267 1.0236,-5.79474 -1.4352,-9.945474 -1.4303,-2.41449 -5.1266,-6.865 -8.214,-9.89 l -5.6134,-5.5 -23.7131,-0.0334 c -25.863,-0.0365 -27.0616,-0.27227 -29.3398,-5.77244 -1.6558,-3.99739 -0.089,-9.47349 3.4617,-12.0983 2.681,-1.98199 4.0118,-2.09187 24.5,-2.02284 11.9157,0.0401 22.9314,0.39348 24.4792,0.78519 1.8616,0.47109 3.1506,1.67696 3.8078,3.56206 1.262,3.6203 21.8101,22.9274 27.2239,25.57976 5.3842,2.63789 6.3956,6.03686 4.8171,16.189754 -3.4484,22.18149 -27.8226,47.27948 -54.1282,55.73573 -10.2574,3.29737 -28.8643,7.57451 -32.9515,7.57451 -1.23,0 -2.6229,-1.14261 -3.529,-2.89496 z" id="handlebar" inkscape:label="handlebar" />
    <path style="fill:#d8d8d8;stroke:#bcbcbc;stroke-width:0.969463" d="m 804.61616,220.51479 c -0.4394,-1.14521 0.1857,-1.49248 2.643,-1.4682 3.0466,0.0301 3.1149,0.11029 1.2775,1.5 -2.4482,1.85177 -3.2,1.84567 -3.9205,-0.0318 z" id="path33" />
    <path style="fill:#d8d8d8;stroke:#bcbcbc;stroke-width:0.969463" d="m 349.41894,234.46301 c -1.8655,-1.49132 -1.84373,-1.5259 0.55887,-0.8876 3.08534,0.81968 5.00499,2.43938 2.89113,2.43938 -0.82988,0 -2.38238,-0.6983 -3.45,-1.55178 z" id="path32" />
    <path style="fill:#d8d8d8;stroke:#bcbcbc;stroke-width:0.969463" d="m 812.60226,238.47849 c -0.82,-2.1368 -0.9287,-2.03502 3.4513,-3.23039 2.5617,-0.69911 4.4052,-0.62175 6.5,0.27277 l 2.9243,1.24864 -3,1.21041 c -5.5559,2.24162 -9.1373,2.42243 -9.8756,0.49857 z" id="path31" />
    <path style="fill:#d8d8d8;stroke:#bcbcbc;stroke-width:0.969463" d="m 325.69022,242.23044 c -2.59183,-2.63139 -4.71241,-5.29469 -4.71241,-5.91844 0,-0.62375 -1.575,-2.10749 -3.5,-3.29721 -3.76236,-2.32526 -4.06632,-3.0733 -2.46482,-6.06574 1.24018,-2.3173 5.06242,-2.51675 10.62435,-0.55438 3.59508,1.26841 4.25968,1.20198 8.22786,-0.82243 3.65075,-1.86248 4.60299,-3.01476 6.17109,-7.46753 1.01982,-2.89587 3.01782,-7.25078 4.44002,-9.67757 2.13269,-3.63916 3.10412,-4.41235 5.54365,-4.41235 2.13581,0 2.96844,0.48636 2.99597,1.75 0.0641,2.94354 9.39566,-7.91676 10.78404,-12.55077 0.78988,-2.63636 3.27721,-6.19512 6.9538,-9.94917 3.14822,-3.21456 7.95432,-8.24955 10.68022,-11.18888 5.18499,-5.59097 13.0514,-10.03456 17.79382,-10.05141 4.03518,-0.0143 3.47831,2.69513 -0.79651,3.87546 -1.95058,0.53858 -5.50789,2.12868 -7.90513,3.53356 -4.70697,2.75847 -13.17235,13.15841 -14.19743,17.44191 -1.05641,4.41439 -3.31421,8.15623 -8.88079,14.71808 -2.92521,3.4482 -5.84128,7.24619 -6.48017,8.43997 -1.05219,1.96603 -0.96065,2.10672 0.9717,1.49342 2.35838,-0.74853 9.03833,3.58568 9.03833,5.86441 0,2.41453 -4.67402,5.86166 -6.96291,5.13519 -2.52267,-0.80066 -5.03709,0.97342 -5.03709,3.55397 0,2.99463 -3.6902,4.93822 -7.11149,3.74555 -3.58794,-1.25076 -5.29021,-0.65405 -7.4239,2.60237 -1.59641,2.43643 -1.55756,2.60232 1.15579,4.93624 2.5272,2.17381 2.68856,2.67659 1.61509,5.0326 -1.36997,3.00676 -2.4352,3.16396 -8.03996,1.18649 -3.92693,-1.3855 -4.10657,-1.3537 -5.64878,1 -0.87607,1.33705 -1.9369,2.43101 -2.35739,2.43101 -0.4205,0 -2.88513,-2.15296 -5.47695,-4.78435 z" id="brake" inkscape:label="brake" />
    <path style="fill:#d8d8d8;stroke:#bcbcbc;stroke-width:0.969463" d="m 336.67905,251.38269 c -1.57128,-1.57128 -0.57261,-3.3679 1.87208,-3.3679 1.90604,0 2.48651,0.45082 2.23852,1.73852 -0.35057,1.82037 -2.90649,2.8335 -4.1106,1.62938 z" id="path29" />
    <path style="fill:#d8d8d8;stroke:#bcbcbc;stroke-width:0.969463" d="m 1118.1359,258.01479 c 0,-1.375 0.227,-1.9375 0.5044,-1.25 0.2774,0.6875 0.2774,1.8125 0,2.5 -0.2774,0.6875 -0.5044,0.125 -0.5044,-1.25 z" id="path28" />
    <path style="fill:#d8d8d8;stroke:#bcbcbc;stroke-width:0.969463" d="m 1118.2099,266.01479 c 0,-1.925 0.2058,-2.7125 0.4573,-1.75 0.2516,0.9625 0.2516,2.5375 0,3.5 -0.2515,0.9625 -0.4573,0.175 -0.4573,-1.75 z" id="path27" />
    <path style="fill:#d8d8d8;stroke:#bcbcbc;stroke-width:0.969463" d="m 1118.0568,274.43146 c 0.048,-1.16495 0.285,-1.4019 0.6042,-0.60417 0.2889,0.72187 0.2534,1.58438 -0.079,1.91667 -0.3323,0.33229 -0.5687,-0.25834 -0.5253,-1.3125 z" id="path26" />
    <path style="fill:#d8d8d8;stroke:#bcbcbc;stroke-width:0.969463" d="m 492.37082,363.433 c 0.33385,-0.86998 0.60699,-1.76998 0.60699,-2 0,-0.23001 0.45,-0.41821 1,-0.41821 0.55,0 1,0.9 1,2 0,1.17029 -0.66667,2 -1.60699,2 -1.05452,0 -1.39831,-0.5438 -1,-1.58179 z" id="path25" />
    <path style="fill:#d8d8d8;stroke:#bcbcbc;stroke-width:0.969463" d="m 444.97781,374.56555 c 0,-0.24708 -0.93786,-5.30958 -2.08413,-11.25 -7.93004,-41.09656 -31.43159,-80.81219 -63.75112,-107.73402 l -7.04775,-5.8707 4.49995,-5.84802 c 2.47497,-3.21641 4.85497,-5.84802 5.2889,-5.84802 1.25711,0 15.19684,12.18659 23.08445,20.18122 19.48023,19.74454 33.71929,41.88349 44.40069,69.03436 5.03024,12.7863 5.33108,14.4475 3.14081,17.34329 -2.39435,3.16561 -1.76218,5.96258 2.29182,10.13995 3.31336,3.41419 3.98558,4.92066 5.03722,11.28856 0.98027,5.93577 0.96612,7.5056 -0.0736,8.16529 -1.32426,0.84019 -14.78724,1.20264 -14.78724,0.39809 z" id="back_tire_0" inkscape:label="back_tire_0" />
    <path style="fill:#d8d8d8;stroke:#bcbcbc;stroke-width:0.969463" d="m 424.65312,375.29844 c -0.28426,-0.45993 -1.71152,-6.22441 -3.17169,-12.80995 -4.93088,-22.23882 -16.7349,-47.38732 -30.9589,-65.958 -3.03944,-3.96827 -11.16615,-12.70346 -18.05934,-19.41154 -8.53302,-8.30387 -12.2861,-12.61344 -11.75923,-13.50285 1.59103,-2.68584 6.17883,-7.60131 7.0946,-7.60131 0.52243,0 5.27176,3.85529 10.55406,8.5673 28.93073,25.80732 48.63588,60.09178 56.71608,98.67879 1.23764,5.91035 2.061,10.91651 1.82968,11.1248 -0.97046,0.87386 -11.77171,1.67899 -12.24526,0.91276 z" id="back_rim_0" inkscape:label="back_rim_0" />
    <path style="fill:#d8d8d8;stroke:#bcbcbc;stroke-width:0.969463" d="m 283.97781,385.70297 v -2.47761 l 15.25,-0.56877 c 8.3875,-0.31282 42.475,-1.0485 75.75,-1.63483 33.275,-0.58633 65.14901,-1.3464 70.83114,-1.68904 l 10.33114,-0.62299 -0.33114,2.90253 -0.33114,2.90253 -7.5,0.12907 c -17.03223,0.29311 -116.29435,2.3902 -139.25,2.9419 l -24.75,0.59482 z" id="chain_1" inkscape:label="chain" />
    <path style="fill:#d8d8d8;stroke:#bcbcbc;stroke-width:0.969463" d="m 445.97781,391.51479 c 0,-1.83333 0.53333,-2.5 2,-2.5 2.2276,0 2.64019,1.95981 0.8,3.8 -1.86412,1.86412 -2.8,1.42961 -2.8,-1.3 z" id="path21" />
    <path style="fill:#d8d8d8;stroke:#bcbcbc;stroke-width:0.969463" d="m 265.49104,393.50734 c -4.06174,-1.44637 -6.51323,-3.79251 -6.51323,-6.23334 0,-2.22535 2.62191,-6.56957 5.77174,-9.56315 2.30809,-2.19359 3.52472,-2.65976 5.58927,-2.14159 2.06121,0.51733 2.63899,1.2717 2.63899,3.44553 0,2.16749 0.57858,2.9284 2.6154,3.43961 2.31256,0.58041 2.54326,1.01708 1.99242,3.77129 -0.43128,2.15641 -0.12894,3.66077 0.98256,4.88897 0.88305,0.97576 1.3099,2.25246 0.94856,2.83712 -0.92997,1.50472 -9.29648,1.23961 -14.02571,-0.44444 z" id="freewheel_1" inkscape:label="freewheel" />
    <path style="fill:#d8d8d8;stroke:#bcbcbc;stroke-width:0.969463" d="m 882.44866,405.24949 c -0.566,-0.40409 -2.7816,-3.2097 -4.9234,-6.2347 -2.1419,-3.025 -9.6197,-12.73703 -16.6174,-21.5823 -44.0253,-55.64956 -69.9206,-96.48499 -89.6783,-141.4177 -9.2966,-21.14215 -13.7125,-32.94777 -12.6794,-33.89763 1.0333,-0.95006 28.2743,-10.10237 30.0687,-10.10237 0.6263,0 2.0906,2.025 3.254,4.5 1.1633,2.475 2.26,4.5 2.4369,4.5 0.1769,0 0.1367,-1.26048 -0.089,-2.80107 -0.3314,-2.25762 0.099,-3.03369 2.2202,-4 3.3447,-1.52396 5.8126,-1.5236 7.3373,0.001 1.5689,1.56889 1.586,1.68891 -1.2053,-8.45654 -1.3229,-4.80837 -2.1104,-8.91479 -1.75,-9.12538 0.3604,-0.21059 2.0553,-0.68284 3.7665,-1.04945 2.9301,-0.62777 3.1429,-0.47122 3.6557,2.68889 0.2995,1.84551 1.239,5.01754 2.0878,7.04897 1.3599,3.25469 1.9566,3.69351 5.0228,3.69351 4.2361,0 6.6225,2.17381 6.6225,6.03247 0,1.58929 0.8635,3.69465 1.9189,4.67857 1.0553,0.98393 2.2487,3.10434 2.6518,4.71202 0.6144,2.45015 0.2942,3.2729 -1.979,5.08548 l -2.7119,2.16242 3.5564,2.71256 c 3.2089,2.44755 3.923,2.61071 7.31,1.67009 5.2195,-1.4495 8.7961,-1.30999 10.214,0.3984 1.8019,2.1712 0.4761,4.85822 -3.4369,6.9655 -2.62,1.41097 -3.6498,2.73974 -4.1373,5.33863 l -0.6492,3.4601 -6.6184,-0.59847 c -3.6401,-0.32915 -7.0684,-0.6627 -7.6184,-0.74121 -0.55,-0.0785 -3.1248,0.19133 -5.7217,0.59964 -4.4686,0.70261 -4.7872,0.59842 -5.9459,-1.94457 -1.4163,-3.10849 -0.4083,-5.46734 2.9994,-7.01876 4.1952,-1.9099 1.1837,-7.5128 -4.0381,-7.5128 -3.0952,0 -4.3339,-1.40402 -5.2937,-6 -0.9812,-4.69786 -2.043,-5.81002 -5.0064,-5.24354 -1.3715,0.26218 -2.4936,0.61303 -2.4936,0.77966 0,1.31669 13.7065,36.42174 19.7032,50.46388 22.5994,52.91945 53.1769,106.24251 75.7956,132.17756 5.4943,6.29981 6.6471,9.67266 4.88,14.27764 -1.28,3.33553 -9.9669,5.87909 -12.908,3.77949 z" id="fork" inkscape:label="fork" />
    <path style="fill:#d8d8d8;stroke:#bcbcbc;stroke-width:0.969463" d="m 885.47786,414.26984 c -5.1555,-0.85815 -6.5583,-1.43315 -9.4668,-3.88054 -1.7165,-1.44434 -4.0012,-4.35155 -5.0771,-6.46045 -2.0299,-3.97891 -2.668,-10.91406 -1.0042,-10.91406 0.5236,0 2.3898,2.1375 4.1472,4.75 5.4427,8.09098 7.9044,10.25 11.6868,10.25 5.293,0 10.2469,-2.83445 11.9098,-6.81435 1.9729,-4.72162 1.2408,-6.78883 -5.1772,-14.61863 -3.0352,-3.70289 -5.5185,-7.19537 -5.5185,-7.76107 0,-0.64523 1.3846,-0.76877 3.7154,-0.33151 16.2181,3.04254 21.6058,22.31411 8.9392,31.97537 -3.3396,2.54724 -10.3653,4.43598 -14.1546,3.80523 z" id="path18" />
    <path style="fill:#d8d8d8;stroke:#bcbcbc;stroke-width:0.969463" d="m 427.72781,414.29854 c -2.71058,-0.41062 -2.75,-0.52116 -2.75,-7.7106 0,-4.0117 0.27829,-9.32436 0.61842,-11.8059 l 0.61843,-4.51189 5.59814,-0.57778 c 3.07898,-0.31778 5.7908,-0.38513 6.02626,-0.14967 0.23546,0.23547 0.63763,2.60866 0.89372,5.27376 0.35414,3.68565 -0.0622,5.88018 -1.73906,9.16715 -1.79102,3.51068 -1.99933,4.77215 -1.11029,6.72339 0.60191,1.32104 1.09438,2.83072 1.09438,3.35484 0,0.94275 -3.92603,1.04321 -9.25,0.2367 z" id="path17" />
    <path style="fill:#d8d8d8;stroke:#bcbcbc;stroke-width:0.969463" d="m 214.17781,418.81479 c -0.66,-0.66 -1.2,-2.27713 -1.2,-3.59362 0,-1.57242 -0.70362,-2.57762 -2.05091,-2.92995 -1.69,-0.44194 -1.93682,-1.0558 -1.40257,-3.48821 0.49911,-2.27245 0.12545,-3.50849 -1.6234,-5.37006 -1.24946,-1.32999 -1.77363,-2.41816 -1.16482,-2.41816 1.54468,0 2.6061,-3.8422 1.46359,-5.29799 -1.26198,-1.608 -1.41804,-8.70201 -0.19144,-8.70201 0.53325,0 0.96955,-0.79329 0.96955,-1.76287 0,-0.96958 1.0125,-2.21222 2.25,-2.76141 1.60976,-0.71441 2.19892,-1.75961 2.0705,-3.67316 -0.14802,-2.20549 0.33449,-2.78751 2.75094,-3.31825 1.98272,-0.43548 3.1269,-1.42638 3.53791,-3.06397 0.43138,-1.71877 1.30262,-2.42034 3.00567,-2.42034 1.31901,0 3.31829,-1.05819 4.44284,-2.35153 1.44441,-1.66122 2.77377,-2.21215 4.52843,-1.87673 1.53437,0.29332 3.2386,-0.20828 4.45847,-1.31224 1.71848,-1.55521 2.29776,-1.61415 4.46496,-0.4543 2.07813,1.11219 2.90738,1.10954 5.01049,-0.016 1.79361,-0.95992 2.82939,-1.03959 3.59264,-0.27634 1.45769,1.45769 0.006,3.99068 -7.90359,13.78715 -3.55236,4.4 -6.67583,8.5625 -6.94104,9.25 -0.26521,0.6875 -1.10905,1.25 -1.87521,1.25 -0.76615,0 -1.39301,0.46822 -1.39301,1.04049 0,0.57227 -0.93681,2.3076 -2.08179,3.85627 -1.38776,1.87704 -2.25829,4.94736 -2.6112,9.20951 -0.35483,4.28548 -1.28409,7.54781 -2.81816,9.89373 -1.25882,1.925 -2.58911,4.5125 -2.9562,5.75 -0.73784,2.48737 -4.30398,3.07867 -6.33265,1.05 z" id="freewheel_0" inkscape:label="freewheel" />
    <path style="fill:#d8d8d8;stroke:#bcbcbc;stroke-width:0.969463" d="m 244.72781,425.3152 c -3.23905,-0.5103 -3.19072,-0.30835 -1.11527,-4.66062 1.32337,-2.77513 1.42088,-4.0415 0.51198,-6.6488 -2.00386,-5.74827 -1.07611,-5.8952 15.85329,-2.5108 11.53066,2.30512 13,2.97559 13,5.93195 0,1.92502 -0.58514,2.52333 -2.71045,2.77144 -1.93923,0.22639 -2.87619,1.02777 -3.29294,2.81642 -0.56816,2.43856 -0.81489,2.50287 -10.03954,2.61683 -5.20139,0.0643 -10.69457,-0.0781 -12.20707,-0.31642 z" id="freewheel_2" inkscape:label="freewheel" />
    <path style="fill:#d8d8d8;stroke:#bcbcbc;stroke-width:0.969463" d="m 419.47781,435.94526 c -48.77427,-8.38715 -88.08408,-15.27242 -96.95201,-16.98151 l -9.95202,-1.91803 -2.242,2.10625 c -2.68061,2.51831 -3.80321,2.36158 -18.3008,-2.5551 -15.15305,-5.13898 -39.33851,-9.92631 -52.30317,-10.35302 l -10.75,-0.35383 v -4.00336 c 0,-4.46529 1.39834,-7.71964 4.1587,-9.67857 1.01271,-0.71869 1.8413,-1.90109 1.8413,-2.62756 0,-0.72647 0.74579,-1.93845 1.6573,-2.6933 2.20209,-1.82359 16.62429,-19.52495 80.9638,-99.37244 81.34485,-100.9517 90.28214,-112.26628 91.02915,-115.24264 0.41039,-1.63509 -0.0311,-5.36534 -1.09462,-9.24884 -3.26306,-11.91521 -3.87874,-10.54848 6.09002,-13.51913 4.86989,-1.45121 9.59433,-2.84524 10.49875,-3.09784 1.17012,-0.32682 2.28854,0.87134 3.87776,4.15423 1.22836,2.53744 3.28407,5.09226 4.56826,5.67737 2.34811,1.06987 15.12681,-0.10994 89.40958,-8.25487 14.575,-1.59812 53.725,-5.85555 87,-9.46096 128.59565,-13.93359 121.00005,-12.86576 121.00005,-17.01068 0,-1.33445 0.7875,-2.84755 1.75,-3.36244 1.9085,-1.02096 28.5483,-9.21539 28.7885,-8.85539 0.081,0.12165 2.4756,7.87119 5.3209,17.22119 7.8636,25.8406 10.3605,32.06749 12.7004,31.67236 3.8407,-0.64857 18.6761,-9.66283 19.5093,-11.85419 1.1867,-3.12131 4.7263,-22.31817 4.1152,-22.31817 -0.2801,0 -2.5736,1.32046 -5.0968,2.93436 -7.1061,4.54535 -21.8469,11.3324 -23.0277,10.6026 -2.4127,-1.49109 -0.6453,-3.22235 6.6278,-6.4925 8.3087,-3.73578 20.837,-11.57339 23.4045,-14.64173 0.8757,-1.0465 3.0872,-5.72773 4.9144,-10.40273 1.8273,-4.675 4.5941,-11.066314 6.1485,-14.202934 2.4689,-4.98191 3.2794,-5.78793 6.4103,-6.3753 2.1376,-0.40101 4.0185,-0.23795 4.6605,0.40405 2.8126,2.81263 3.5638,20.722164 1.243,29.632634 -4.1438,15.90899 -17.9475,31.80952 -31.8382,36.67449 -2.1282,0.74535 -4.6032,2.28633 -5.5,3.42439 -0.8969,1.13807 -3.7681,3.321 -6.3806,4.85096 -2.6125,1.52997 -4.7432,3.30149 -4.7348,3.93673 0.01,0.63524 2.2584,6.04849 5,12.02944 2.7416,5.98096 4.9848,11.44132 4.9848,12.13414 0,1.33681 -8.08,4.59864 -21.9138,8.84645 l -8.4138,2.58354 -2.324,-2.50763 c -2.1576,-2.32809 -2.5176,-2.40619 -5.0282,-1.09076 -3.2282,1.69144 -20.9866,20.71134 -115.32025,123.51222 l -71.5,77.91776 -4,-3.66782 c -4.29508,-3.9384 -10.31147,-8.59027 -14.75,-11.40471 -1.5125,-0.95907 -2.75,-2.36359 -2.75,-3.12117 0,-0.75757 27.08577,-31.4597 60.19059,-68.22694 33.10483,-36.76725 76.19546,-84.62454 95.75696,-106.34954 44.5047,-49.42689 42.0555,-46.52627 42.0371,-49.7848 -0.027,-4.77142 -1.306,-5.67274 -7.6779,-5.41011 -6.4128,0.26432 -231.39624,22.74012 -267.52248,26.72545 -12.49366,1.37826 -23.37136,2.75752 -24.17268,3.06501 -4.68513,1.79786 -4.51956,2.4148 25.987,96.83078 8.54315,26.44052 16.84204,52.07249 18.442,56.95994 1.59996,4.88744 2.66879,9.27494 2.37519,9.75 -0.2936,0.47505 -2.5057,0.86373 -4.91578,0.86373 -2.41008,0 -4.66008,0.45 -5,1 -0.33992,0.55 -2.50398,0.99954 -4.80902,0.99898 -6.93594,-0.002 -5.05525,4.85199 -39.71618,-102.49898 -8.34631,-25.85 -15.59588,-47.7875 -16.11014,-48.75 -2.28794,-4.28212 -4.50704,-2.06953 -34.85209,34.75 -11.78543,14.3 -39.90841,48.275 -62.4955,75.5 -61.42362,74.036 -61.60518,74.25886 -63.25476,77.64448 -3.05875,6.27779 1.15699,12.79562 9.23769,14.28213 2.75,0.50588 21.2,2.99422 41,5.52963 70.56245,9.03561 134.86125,17.64899 135.72235,18.18118 0.48112,0.29735 0.32508,1.20297 -0.34677,2.01249 -1.16657,1.40564 -1.86777,6.0676 -1.97035,13.10009 -0.0584,4.00207 0.77769,3.99502 -21.40523,0.18047 z M 810.41196,137.53891 c 9.5868,-9.97751 14.584,-22.3352 14.5395,-35.95562 l -0.026,-8.068504 -3.8411,7.235784 c -2.1126,3.97968 -5.6443,9.60468 -7.8483,12.5 -2.204,2.89532 -4.4668,6.16422 -5.0284,7.26422 -0.83,1.62553 -5.2295,20.11908 -5.2295,21.98255 0,1.71517 2.8455,-0.18272 7.4342,-4.95843 z m 7.5075,-39.024124 c 3.1177,-7.15479 3.1758,-10.43077 0.071,-4 -1.5933,3.3 -3.3668,7.350004 -3.941,9.000004 -0.9901,2.84469 -0.9621,2.89646 0.5414,1 0.8721,-1.1 2.3699,-3.8 3.3286,-6.000004 z" id="frame" inkscape:label="frame" />
    <path style="fill:#d8d8d8;stroke:#bcbcbc;stroke-width:0.969463" d="m 397.76946,492.12288 -3.70836,-0.60809 4.58488,-7 c 4.96779,-7.58461 14.6402,-27.15918 18.45501,-37.34838 l 2.37682,-6.34839 4.77382,0.55409 c 6.29733,0.73092 7.04153,1.31197 6.43865,5.02711 -1.41543,8.72228 -15.39141,38.25156 -20.99788,44.36557 -2.12395,2.31623 -4.45835,2.58214 -11.92294,1.35809 z" id="path13" />
    <path style="fill:#d8d8d8;stroke:#bcbcbc;stroke-width:0.969463" d="m 243.38816,491.88056 c -2.24931,-0.50603 -6.52431,-2.37169 -9.5,-4.14592 -4.46351,-2.66132 -5.46324,-3.76799 -5.71258,-6.32363 -0.23482,-2.40682 0.26703,-3.47075 2.25,-4.77004 1.40373,-0.91976 2.55223,-2.33854 2.55223,-3.15286 0,-2.9277 3.72631,-8.3401 8.5675,-12.44412 5.55813,-4.7118 8.4325,-7.82733 8.4325,-9.13998 0,-1.78351 -4.94052,-0.86887 -6,1.11078 -2.22763,4.16237 -8,0.73701 -8,-4.74726 0,-2.64327 -3.21055,-4.25274 -8.48331,-4.25274 -5.32922,0 -6.51669,0.8452 -6.51669,4.63837 0,4.56098 -1.80044,5.09709 -9.90708,2.94997 -7.53107,-1.99466 -18.09597,-8.69824 -24.2775,-15.40442 -10.63547,-11.53811 -10.99494,-26.9373 -0.89729,-38.43789 3.27304,-3.72779 13.91984,-9.74603 17.24159,-9.74603 3.75493,0 1.66106,2.93528 -3.90972,5.48083 -11.11277,5.07796 -16.18984,12.37037 -16.22804,23.30901 -0.0424,12.14738 9.6713,24.25393 20.50825,25.56016 2.20543,0.26583 5.24026,1.04393 6.74406,1.7291 1.5038,0.68518 2.9874,0.99257 3.29688,0.68308 0.30949,-0.30948 1.17139,-3.42008 1.91534,-6.91244 1.48469,-6.96969 8.17134,-21.73198 11.84827,-26.15776 2.10711,-2.53625 2.8539,-2.77821 7.71599,-2.5 5.32627,0.30477 5.3925,0.34797 6.2735,4.0918 1.24638,5.2965 -0.56083,9.12951 -5.44342,11.54522 -5.40329,2.67333 -3.47341,3.171 12.29659,3.171 11.44712,0 13.35483,0.2428 15.84621,2.01683 2.95455,2.10382 5.08129,6.9383 5.14599,11.6978 0.0528,3.8844 -3.82887,12.04245 -6.06806,12.75314 -1.68192,0.53382 -6.10156,9.17166 -6.10156,11.92504 0,0.61935 0.9,1.68816 2,2.37512 1.1,0.68696 2,2.2802 2,3.54054 0,1.26034 0.43356,2.72509 0.96348,3.25501 1.24535,1.24535 -1.14193,8.36262 -3.34545,9.97387 -0.89593,0.65513 -1.61803,2.58435 -1.61803,4.32289 0,3.09404 -0.0692,3.1382 -4.75,3.03267 -2.6125,-0.0589 -6.59034,-0.52112 -8.83965,-1.02714 z" id="rearderailleur" inkscape:label="rearderailleur" />
    <path style="fill:#d8d8d8;stroke:#bcbcbc;stroke-width:0.969463" d="m 420.72781,493.32546 c -0.9625,-0.25152 -1.75,-0.71939 -1.75,-1.03971 0,-0.32031 2.76457,-6.00491 6.14349,-12.63244 3.37892,-6.62754 7.84469,-16.55856 9.92393,-22.06894 2.07925,-5.51038 4.31214,-10.1961 4.96199,-10.41272 0.82801,-0.276 0.9814,0.51742 0.51265,2.65166 -0.41775,1.90199 -0.1334,4.10547 0.75731,5.86849 0.78442,1.55264 1.23461,3.35805 1.00042,4.01201 -0.23419,0.65396 0.2343,2.22896 1.04111,3.5 0.8068,1.27104 1.76391,4.15962 2.12693,6.41907 0.5775,3.59449 0.0653,5.30529 -4.0967,13.68379 -3.19504,6.4319 -5.43212,9.7571 -6.81392,10.12825 -2.36917,0.63635 -11.22183,0.56617 -13.80721,-0.10946 z" id="back_tire_1" inkscape:label="back_tire" />
    <path style="fill:#d8d8d8;stroke:#bcbcbc;stroke-width:0.969463" d="m 428.47781,503.48713 c -49.14134,-2.54858 -67.92199,-3.63347 -113,-6.5276 -59.18478,-3.79983 -52.95354,-3.11591 -53.34047,-5.85441 l -0.34048,-2.40967 13.84048,0.65946 c 7.61226,0.36271 20.14047,1.0902 27.84047,1.61666 27.79179,1.90016 65.76118,4.07719 105,6.02034 22,1.08947 44.275,2.2539 49.5,2.58763 9.74488,0.62243 19.99623,1.1533 25.75,1.33348 2.77286,0.0868 3.25,0.4688 3.25,2.60177 0,2.44808 -0.15057,2.49745 -7.25,2.37714 -3.9875,-0.0676 -27.05,-1.14973 -51.25,-2.4048 z" id="chain_2" inkscape:label="chain" />
    <path style="fill:#d8d8d8;stroke:#bcbcbc;stroke-width:0.969463" d="m 492.78454,506.30401 c -2.29142,-0.34978 -2.73903,-0.96153 -3,-4.10017 -0.31318,-3.76665 -1.23694,-4.26096 -5.04283,-2.69848 -1.29207,0.53045 -1.98909,0.0473 -2.72525,-1.88891 -0.74764,-1.96643 -1.68849,-2.60166 -3.85338,-2.60166 -2.06224,0 -3.17405,-0.67996 -3.97067,-2.42836 -0.70705,-1.55179 -2.10436,-2.54446 -3.87097,-2.75 -1.99653,-0.23229 -2.92534,-1.01616 -3.34338,-2.82164 -0.44716,-1.93127 -1.30996,-2.57134 -3.79264,-2.81359 -2.87149,-0.28019 -3.14754,-0.57756 -2.59176,-2.79197 0.52797,-2.1036 0.14989,-2.65659 -2.50019,-3.65689 -2.48986,-0.93981 -3.07093,-1.68932 -2.86895,-3.70059 0.18292,-1.82139 -0.3909,-2.80197 -2.0654,-3.52952 -1.84389,-0.80114 -2.20923,-1.5612 -1.78414,-3.71172 0.41062,-2.07735 -0.0487,-3.16308 -1.98142,-4.68333 -2.19406,-1.72585 -2.35422,-2.23806 -1.25176,-4.00338 1.08628,-1.73939 0.942,-2.36729 -1.0251,-4.46116 -1.46205,-1.55629 -1.90077,-2.67698 -1.2141,-3.10137 1.57954,-0.97621 1.31056,-3.62895 -0.57978,-5.71774 -1.54283,-1.70481 -1.53173,-1.96493 0.16378,-3.83846 1.61125,-1.7804 1.66056,-2.30532 0.43221,-4.60051 -1.24148,-2.31973 -1.1887,-2.73548 0.50439,-3.9735 1.64534,-1.2031 1.73047,-1.73488 0.65542,-4.09437 -1.09784,-2.4095 -0.99239,-2.89508 0.94629,-4.35743 1.76991,-1.33504 2.05081,-2.2422 1.4879,-4.80511 -0.51709,-2.35431 -0.3424,-3.15936 0.68554,-3.15936 1.95796,0 3.71448,-2.00575 3.11794,-3.56032 -0.2812,-0.73279 -2.91292,-1.61742 -5.93507,-1.99502 -2.98641,-0.37312 -5.66602,-1.06055 -5.95468,-1.52761 -0.50391,-0.81535 11.96573,-15.26051 18.43373,-21.35414 2.05509,-1.93614 3.11754,-3.89573 3.11754,-5.75 0,-2.14624 0.47401,-2.81291 2,-2.81291 1.27333,0 2,-0.66667 2,-1.83485 0,-3.53358 -7.11711,-24.27286 -8.51364,-24.80876 -2.07292,-0.79545 -2.76668,-3.96409 -1.41918,-6.48192 0.90697,-1.69468 0.89781,-3.45303 -0.0398,-7.6426 -0.84293,-3.7666 -0.8977,-5.76158 -0.17794,-6.48134 1.14116,-1.14116 1.91105,1.19063 2.38059,7.21017 0.20692,2.65281 0.79806,3.5866 2.53218,4 1.24423,0.29662 3.18496,2.0591 4.31273,3.91663 1.96468,3.23598 2.24044,3.35129 6.58915,2.75523 2.49625,-0.34215 6.50588,-1.28998 8.91027,-2.1063 4.65802,-1.58143 6.31476,-1.31691 10.67561,1.70456 3.26804,2.2643 3.4483,4.06598 0.75,7.49631 -1.1,1.39842 -2,3.36607 -2,4.37254 0,2.23834 -3.49888,4.26464 -6.16155,3.56834 -1.55481,-0.4066 -1.8935,-0.0654 -1.64777,1.6601 0.27565,1.93549 1.07123,2.22631 7.30932,2.67189 l 7,0.5 0.29529,4.00017 0.29529,4.00016 12.54264,0.13776 c 7.68931,0.0845 12.97294,0.56807 13.65471,1.24984 0.61164,0.61164 2.1318,1.11207 3.37814,1.11207 3.80017,0 15.47818,5.34857 21.18807,9.70421 4.84148,3.69319 15.37962,14.82285 17.27679,18.24657 1.0817,1.95207 2.58228,4.67422 3.33461,6.04922 1.41119,2.57914 3.40787,7.78059 5.43265,14.1523 2.1794,6.85832 1.17905,27.45098 -1.52148,31.32021 -0.75719,1.08487 -1.37671,2.61502 -1.37671,3.40032 0,1.99354 -4.89603,11.796 -6.59671,13.20744 -0.77181,0.64054 -1.41091,1.67202 -1.42023,2.29217 -0.0148,0.98459 -4.45045,5.81823 -11.67511,12.72266 -2.68483,2.56582 -9.33191,6.21427 -10.03705,5.50913 -1.00024,-1.00026 -4.27087,-14.10308 -4.27087,-17.11008 0,-1.67703 -0.70572,-4.05669 -1.56826,-5.28815 -0.86255,-1.23145 -2.10747,-4.10137 -2.7665,-6.37758 -1.01643,-3.51069 -1.80259,-4.35536 -5.18173,-5.56743 -2.19093,-0.78587 -6.31087,-1.50359 -9.15541,-1.59492 -6.15694,-0.1977 -9.87635,2.04876 -12.65928,7.64601 -1.7283,3.47607 -1.73905,3.96041 -0.19123,8.62044 0.90197,2.71559 1.50545,5.52919 1.34106,6.25246 -0.1644,0.72326 0.65855,2.89002 1.82875,4.81502 3.03591,4.99409 6.70034,15.65142 6.00482,17.46392 -0.48023,1.25147 -2.4018,1.50832 -10.37084,1.38625 -5.37976,-0.0824 -10.99335,-0.33484 -12.47465,-0.56095 z m 11.19327,-15.60213 c 0,-2.38059 -5.70474,-6.83335 -9.98752,-7.79562 -4.419,-0.99289 -11.01248,-0.27792 -11.01248,1.19414 0,1.75181 14.20846,7.69384 18.75,7.84132 1.2375,0.0402 2.25,-0.51774 2.25,-1.23984 z m 48.96286,-21.18709 c 3.7724,-5.46103 4.66937,-8.5 2.50882,-8.5 -5.41345,0 -11.47168,7.3929 -11.47168,13.99897 v 4.37521 l 3.09985,-2.93709 c 1.70492,-1.6154 4.34327,-4.73709 5.86301,-6.93709 z m -66.37272,6.35416 c 0.49535,-0.8015 -0.0591,-0.95328 -1.84493,-0.50506 -2.18596,0.54864 -2.70322,0.21012 -3.59713,-2.35416 -0.79239,-2.27305 -1.66009,-2.99494 -3.59987,-2.99494 -2.26889,0 -2.52733,-0.36487 -2.30202,-3.25 0.22387,-2.86659 -0.0662,-3.2869 -2.45863,-3.5628 -2.39389,-0.27606 -2.64642,-0.64288 -2.15031,-3.12347 0.43424,-2.17117 0.0482,-3.17066 -1.69678,-4.39288 -1.90774,-1.33623 -2.05655,-1.82605 -0.9572,-3.15069 0.71595,-0.86267 1.04856,-1.82166 0.73913,-2.13109 -0.93322,-0.93322 -3.77562,4.16406 -4.37228,7.8408 -0.72364,4.45926 2.15298,10.18505 7.58034,15.08834 3.53664,3.19514 4.728,3.68179 9.0134,3.68179 2.71596,0 5.25678,-0.51563 5.64628,-1.14584 z m 7.28593,-8.48151 c 1.81598,-3.98564 2.42229,-10.55019 1.25378,-13.57475 -1.25634,-3.25193 -5.03889,-5.36179 -11.29426,-6.29985 -9.25438,-1.38778 -11.10716,1.57242 -5.98116,9.55617 3.64095,5.67078 11.04892,12.94578 13.1824,12.94578 0.90318,0 2.18084,-1.18231 2.83924,-2.62735 z m 61.84267,-14.04758 c 3.82936,-2.83051 5.76477,-8.78084 4.90243,-15.07229 -0.72075,-5.25847 -2.8311,-8.60137 -7.09267,-11.23517 -3.67177,-2.26928 -4.5285,-2.46179 -4.5285,-1.01761 0,0.55 0.675,1 1.5,1 1.8229,0 1.96057,2.13169 0.25,3.87098 -1.00299,1.01982 -0.76645,1.66597 1.19697,3.26979 2.07285,1.69321 2.26396,2.29183 1.25,3.91545 -1.66028,2.65852 -1.49504,4.61542 0.45283,5.36289 1.44736,0.5554 1.35974,0.94184 -0.7141,3.14934 -2.02353,2.15394 -2.18421,2.80398 -1.11592,4.51458 1.39417,2.23243 0.80121,3.91697 -1.3788,3.91697 -0.79254,0 -1.44098,0.43588 -1.44098,0.96862 0,1.33162 2.86679,0.20366 6.71874,-2.64355 z m -11.76488,-1.8373 c 3.02801,-6.15823 0.91008,-24.48777 -2.8295,-24.48777 -0.45336,0 -2.70669,1.36361 -5.00741,3.03024 -4.49635,3.25714 -8.10717,8.30927 -8.11321,11.35173 -0.009,4.64224 9.17182,14.09678 12.98865,13.37557 0.82081,-0.1551 2.15347,-1.62649 2.96147,-3.26977 z m -81.97418,-3.44793 c 2.36976,-4.64512 2.56233,-8.80686 0.62235,-13.44988 -3.09358,-7.40399 -5.56376,-5.39882 -5.58672,4.53504 -0.0175,7.57319 0.84288,12.875 2.08937,12.875 0.47007,0 1.76382,-1.78207 2.875,-3.96016 z m 31.38629,-17.14053 c 2.48308,-2.7642 2.78659,-3.73881 2.2718,-7.29488 -1.90768,-13.17792 -4.22575,-14.48832 -11.77484,-6.65627 -6.86425,7.12154 -10.51886,15.00274 -8.11293,17.49561 0.4125,0.4274 3.9,0.5226 7.75,0.21154 6.26418,-0.5061 7.30126,-0.90092 9.86597,-3.756 z m -22.72528,-8.58927 c -0.41952,-2.70103 -0.16173,-3.23749 1.68192,-3.5 1.64472,-0.23419 2.25405,-1.10511 2.49075,-3.56004 0.27553,-2.85772 0.66781,-3.25 3.25,-3.25 2.6131,0 2.93664,-0.33927 2.93664,-3.07946 0,-2.92877 0.15292,-3.04586 3.12511,-2.39306 2.17272,0.47721 2.91661,0.34905 2.44098,-0.42055 -0.37627,-0.60881 -2.90906,-1.10693 -5.62842,-1.10693 -4.54359,0 -5.34171,0.38497 -9.8478,4.75 -5.49049,5.31861 -7.81645,11.20874 -6.15349,15.58268 0.87421,2.29934 1.19753,2.42102 3.58039,1.34745 2.2241,-1.00204 2.54462,-1.66152 2.12392,-4.37009 z m 54.02811,0.16771 c 2.78382,-1.38723 5.87119,-3.41695 6.86082,-4.51048 1.73977,-1.92242 1.72223,-2.07028 -0.52986,-4.46753 -4.81139,-5.12149 -22.19578,-9.37833 -24.91572,-6.101 -2.46319,2.96796 3.36005,14.62358 8.30408,16.62119 3.37622,1.36415 4.91021,1.13404 10.28068,-1.54218 z m 31.3312,-3.07338 c 0,-2.77181 -10.00719,-15.40437 -12.20295,-15.40437 -1.56082,0 -0.75656,6.55414 1.19755,9.75914 1.97232,3.23486 7.35757,7.22995 9.7554,7.23712 0.6875,0.002 1.25,-0.71429 1.25,-1.59189 z m -21.03983,-13.85638 c 1.79141,-2.15852 0.35337,-5.26283 -3.72026,-8.03093 -4.15548,-2.82373 -12.92274,-5.06666 -16.38308,-4.19129 -3.11254,0.78738 -9.57091,6.26114 -8.57905,7.27113 0.42778,0.43559 1.73233,-0.16256 2.899,-1.32923 l 2.12122,-2.12122 1.78587,2.17677 c 1.53433,1.87018 2.07483,2.00072 3.83743,0.92678 2.85294,-1.73828 3.84239,-1.5699 4.58849,0.78084 0.54108,1.70481 1.19405,1.92775 4.06738,1.3887 2.58356,-0.48467 3.42283,-0.29607 3.42283,0.76917 0,1.71577 1.967,3.81129 3.57756,3.81129 0.64765,0 1.71983,-0.65341 2.38261,-1.45201 z m -76.74185,-7.96575 c 1.00923,-1.8947 0.95436,-1.95455 -0.6092,-0.66448 -0.94507,0.77976 -2.21742,2.35476 -2.82744,3.5 -1.00923,1.8947 -0.95436,1.95455 0.6092,0.66448 0.94507,-0.77976 2.21742,-2.35476 2.82744,-3.5 z m 35.28168,2.41776 c 0.33992,-0.55 1.38895,-1 2.33117,-1 1.99502,0 9.16883,-5.64284 9.16883,-7.21209 0,-2.70104 -20.75922,2.89125 -21.72234,5.85174 -0.20392,0.62681 1.33769,1.5928 3.42579,2.14665 5.11148,1.35577 6.07205,1.38597 6.79655,0.2137 z m -24.58265,-31.0054 c -0.74112,-3.34065 -2.15071,-6.8008 -3.13242,-7.68924 -2.28587,-2.06868 -2.24656,-0.97445 0.22589,6.28809 2.95685,8.68539 2.98384,8.74523 3.64514,8.08393 0.33488,-0.33489 0.002,-3.34214 -0.73861,-6.68278 z" id="chainwheel" inkscape:label="chainwheel" />
    <path style="fill:#d8d8d8;stroke:#bcbcbc;stroke-width:0.969463" d="m 510.98408,417.86475 c -1.65345,-2.28252 -3.00627,-5.04448 -3.00627,-6.13768 0,-1.82415 0.45849,-1.93376 5.57401,-1.33253 6.7986,0.79904 13.68081,4.07724 13.23919,6.30621 -0.41053,2.07206 -6.53653,5.31404 -10.04133,5.31404 -2.08624,0 -3.49264,-1.01232 -5.7656,-4.15004 z" id="path8" />
    <path style="fill:#d8d8d8;stroke:#bcbcbc;stroke-width:0.969463" d="m 477.97781,431.61175 c 0,-0.27657 0.52223,-1.64903 1.16052,-3.04991 0.98293,-2.1573 1.82162,-2.54705 5.48094,-2.54705 3.77448,0 4.39973,-0.31592 4.9479,-2.5 0.3451,-1.375 0.33564,-3.6627 -0.021,-5.08379 -0.37109,-1.47852 -0.25619,-2.34133 0.26859,-2.017 0.5044,0.31174 1.44944,2.68096 2.10009,5.26493 1.05276,4.18087 0.97251,4.98098 -0.72882,7.267 -1.59532,2.14357 -2.84692,2.61851 -7.56001,2.86876 -3.1065,0.16495 -5.64818,0.0736 -5.64818,-0.20294 z" id="path7" />
    <path style="fill:#d8d8d8;stroke:#bcbcbc;stroke-width:0.969463" d="m 538.24262,535.27478 -6.23518,-0.35466 -3.47204,-7.21866 c -1.90962,-3.97026 -6.60796,-15.98646 -10.44076,-26.70267 -3.83279,-10.7162 -7.73513,-21.3706 -8.67185,-23.67644 -0.93673,-2.30584 -1.47687,-4.78208 -1.20032,-5.50276 0.27656,-0.72068 4.27214,-2.50914 8.87908,-3.97435 13.81791,-4.3947 12.55049,-4.38418 13.34617,-0.11071 0.38711,2.07914 5.38975,18.00274 11.11697,35.38576 5.72721,17.38303 10.41312,31.89553 10.41312,32.25 0,0.63159 -1.08454,0.62405 -13.73519,-0.0955 z" id="crank" inkscape:label="crank" />
    <path style="fill:#d8d8d8;stroke:#bcbcbc;stroke-width:0.969463" d="m 520.72781,555.35415 c -2.38407,-1.25575 -2.75,-2.05319 -2.75,-5.9928 0,-4.39902 2.23375,-10.75496 4.20873,-11.97556 0.53104,-0.32821 1.46633,-0.0959 2.0784,0.51613 1.27479,1.27479 6.35195,1.50586 7.08338,0.32238 0.26871,-0.43477 6.93276,-0.2481 14.80902,0.41481 12.45645,1.0484 14.53743,1.01076 15.98728,-0.28922 1.90501,-1.70808 5.15365,-0.54834 6.21554,2.21891 2.71431,7.07336 -3.5044,19.07937 -7.96498,15.37741 -1.02366,-0.84956 -3.15327,-0.97549 -7.18608,-0.42494 -7.11767,0.97168 -11.99752,0.97131 -19.84412,-0.002 -4.20486,-0.52132 -6.33013,-0.40628 -6.80902,0.36858 -0.88166,1.42655 -2.36347,1.29073 -5.82815,-0.53419 z" id="padal" inkscape:label="padal" />
    <path style="fill:#d8d8d8;stroke:#bcbcbc;stroke-width:0.969463" d="m 869.97786,573.97413 c -24.3062,-2.17837 -49.6076,-9.35607 -72,-20.42551 -22.6487,-11.19609 -37.2154,-21.85832 -55.5605,-40.66798 -23.8151,-24.41819 -39.3604,-53.76956 -46.5362,-87.86585 -1.8759,-8.91357 -2.2152,-13.74841 -2.246,-32 -0.033,-19.5515 0.2053,-22.64205 2.6289,-34.10155 3.4685,-16.39957 7.3284,-27.39971 15.2925,-43.58111 10.0448,-20.40917 23.6331,-38.11088 41.9213,-54.61169 13.2359,-11.94241 17.4604,-14.9834 19.0182,-13.69049 0.6715,0.55727 2.0168,3.09729 2.9896,5.6445 l 1.7687,4.63127 -4.3883,3.50769 c -9.7898,7.82533 -32.551,31.89193 -38.0208,40.20138 -12.0927,18.3706 -19.6671,35.56765 -24.3445,55.27198 -7.6964,32.42203 -5.1754,64.42043 7.5813,96.22802 8.2048,20.45797 19.8634,37.62972 37.342,55 27.5511,27.38044 59.7149,43.96088 100.3779,51.74479 9.9499,1.90466 14.9279,2.22842 33.6759,2.19021 18.6964,-0.0381 23.7268,-0.38541 33.5,-2.31285 36.8695,-7.27133 70.5538,-24.31087 95.53734,-48.32858 27.2419,-26.18876 43.5738,-56.21605 50.1987,-92.29357 2.2502,-12.25417 2.2502,-39.74583 0,-52 -6.5579,-35.71231 -22.0406,-64.96348 -47.9486,-90.58793 -14.9398,-14.77637 -26.51234,-23.05288 -45.28744,-32.38915 -28.5339,-14.18894 -48.596,-19.32138 -79.0574,-20.22504 -20.4922,-0.60791 -32.5668,0.35012 -47.0882,3.73606 -4.7517,1.10794 -8.7824,1.87141 -8.9573,1.69658 -1.0718,-1.07185 1.3188,-5.04939 3.8087,-6.33699 1.6235,-0.8395 3.5836,-3.03873 4.3559,-4.88717 0.7724,-1.84844 2.1994,-3.60149 3.1713,-3.89567 9.9492,-3.01163 54.6962,-3.70072 69.886,-1.07622 63.6959,11.00544 116.84874,48.59382 143.32664,101.35711 40.452,80.61001 14.5322,174.65535 -62.3629,226.27226 -38.35774,25.74823 -86.22664,37.95005 -132.58274,33.7955 z" id="front_rim" inkscape:label="front_rim" />
    <path style="fill:#d8d8d8;stroke:#bcbcbc;stroke-width:0.969463" d="m 217.97781,575.59805 c -15.87792,-2.03884 -26.13356,-4.33888 -41,-9.19511 -49.89475,-16.29845 -91.220219,-51.37514 -112.970299,-95.88815 -10.74604,-21.99251 -15.27801,-38.51705 -17.22868,-62.81952 -5.84478,-72.81766 34.7538,-140.72881 104.747219,-175.21556 22.48217,-11.07728 48.52382,-17.87009 74.16786,-19.34623 26.64705,-1.53388 49.26625,0.84787 72.24378,7.6071 9.13522,2.68728 9.48312,2.89639 10.13688,6.09292 0.45791,2.23896 2.49344,5.00063 6.29012,8.53404 3.08721,2.87315 5.61312,5.53759 5.61312,5.92098 0,0.3834 -2.3625,-0.24691 -5.25,-1.40069 -24.30109,-9.71013 -43.35846,-13.75039 -68.75,-14.57533 -20.37779,-0.66205 -32.63176,0.50126 -50.0284,4.74936 -76.3267,18.6383 -129.577599,78.00674 -136.140069,151.78003 -4.20044,47.22006 14.56415,95.27992 50.824979,130.1729 28.98446,27.89108 65.26829,45.05902 106.64471,50.45965 57.43427,7.49658 116.68566,-12.23016 158.33919,-52.71632 l 6.14041,-5.96832 7.10959,0.71398 c 3.91028,0.3927 7.10959,1.12174 7.10959,1.6201 0,1.51956 -20.98828,21.71361 -29.53911,28.42129 -25.95021,20.35662 -59.98088,34.82117 -94.02025,39.96281 -14.41742,2.17775 -41.71369,2.72431 -54.44064,1.09007 z" id="back_rim" inkscape:label="back_rim" />
    <path style="fill:#d8d8d8;stroke:#bcbcbc;stroke-width:0.969463" d="m 867.97786,596.01334 c -40.2137,-2.02299 -79.9399,-16.87491 -116,-43.36746 -10.9739,-8.06221 -30.4749,-26.74728 -39.2744,-37.63109 -19.805,-24.49623 -33.583,-53.7654 -40.4831,-86 -2.4752,-11.56278 -2.6744,-14.26197 -2.6568,-36 0.018,-21.76004 0.2221,-24.46253 2.7636,-36.5 10.8138,-51.2176 37.2499,-92.42913 79.9125,-124.5764 4.3237,-3.25798 8.501,-5.9236 9.2829,-5.9236 1.5891,0 6.4812,8.94404 6.4085,11.71676 -0.027,1.03319 -3.8526,4.72752 -9.0953,8.78324 -50.459,39.03501 -77.8173,99.21472 -72.8703,160.29161 6.7397,83.21054 71.9236,152.97852 159.4301,170.64206 85.9895,17.3573 171.26794,-17.11166 217.55364,-87.93367 10.939,-16.73779 19.8052,-38.03366 24.4419,-58.70713 11.8546,-52.85587 -2.1594,-110.24186 -37.4352,-153.29287 -6.9885,-8.52894 -24.3066,-25.40156 -32.478,-31.64258 -23.34904,-17.83318 -53.16524,-31.77608 -80.71654,-37.74529 -23.7758,-5.15123 -54.339,-6.62069 -74.2835,-3.57151 -5.5,0.84086 -13.15,1.9389 -17,2.44008 -3.85,0.50118 -8.816,1.20263 -11.0355,1.55878 l -4.0355,0.64753 0.1436,-6.8435 0.1437,-6.84351 3.734,-1.25438 c 6.9283,-2.32746 25.9596,-5.28146 40.2997,-6.25522 29.3991,-1.99636 60.294,2.13288 90.48,12.09307 11.8943,3.92463 36.70204,16.07998 48.27004,23.65144 35.2725,23.08651 61.9698,54.49384 78.1937,91.98891 16.0874,37.17974 20.2114,76.25189 12.2201,115.77618 -16.5412,81.81162 -88.8996,148.79093 -175.91384,162.83656 -11.8754,1.91689 -39.6433,2.68606 -60,1.66199 z" id="front_tire" inkscape:label="front_tire" />
    <path style="fill:#d8d8d8;stroke:#bcbcbc;stroke-width:0.969463" d="M 210.62402,599.02781 C 180.0329,595.15426 142.61856,581.01108 116.47781,563.43915 76.452371,536.53386 47.753121,499.6363 33.479421,456.7312 c -7.86578,-23.64364 -8.98499,-31.301 -8.94748,-61.21641 0.0309,-24.63707 0.17631,-26.64163 2.77416,-38.24014 5.58084,-24.91649 15.46332,-48.68592 28.38,-68.25986 29.29005,-44.3861 75.337339,-77.07408 127.353819,-90.40572 22.28821,-5.71238 33.59942,-7.09554 57.93789,-7.08475 26.32843,0.0117 44.02224,2.41191 65.7709,8.92207 9.99178,2.99091 29.02884,10.43535 29.7757,11.6438 0.61447,0.99424 -1.34312,7.5757 -2.87762,9.6746 -1.50802,2.06269 -5.77708,1.45258 -18.79159,-2.68557 -43.58557,-13.85866 -76.72657,-16.28923 -115.71474,-8.48655 -62.25106,12.45826 -116.475639,53.9929 -142.200739,108.92212 -12.70581,27.12994 -17.59556,51.36109 -16.64816,82.5 0.64123,21.07597 2.44074,31.42386 8.77295,50.44784 20.28786,60.95131 74.353549,109.64725 140.413299,126.4676 16.21056,4.12758 25.81808,5.31452 47.12439,5.82186 30.85341,0.73467 50.46633,-2.06071 76.22389,-10.864 31.84222,-10.88287 59.12563,-28.52471 83.60466,-54.05995 l 12.28334,-12.81335 h 5.50686 c 6.10389,0 11.75686,0.90672 11.75686,1.88576 0,0.34967 -3.25093,4.68092 -7.22428,9.625 -31.37354,39.03841 -78.41004,67.52693 -128.77572,77.99538 -11.48051,2.38621 -14.94678,2.62978 -42.5,2.98642 -16.5,0.21357 -33.08421,-0.002 -36.85379,-0.47954 z" id="back_tire" inkscape:label="back_tire" />
  </g>
</svg>