<svg xmlns="http://www.w3.org/2000/svg" width="1600" height="1000" viewBox="0 0 1600 1000">
<rect width="1600" height="1000" fill="rgb(243, 242, 240)" />
<text x="70" y="70" font-size="34" font-family="Arial" fill="rgb(45, 45, 45)" font-weight="700">merida NINETY-SIX 400 Exploded Heatmap</text>
<text x="70" y="105" font-size="18" font-family="Arial" fill="rgb(45, 45, 45)">Exploded heatmap rendered from normalized Price Score values.</text>
<circle cx="260" cy="640" r="185" fill="none" stroke="rgb(77, 149, 181)" stroke-width="18" opacity="0.9"/>
<circle cx="960" cy="640" r="185" fill="none" stroke="rgb(77, 149, 181)" stroke-width="18" opacity="0.9"/>
<polygon points="470.0,350.0 845.0,320.0 955.0,525.0 720.0,770.0 425.0,725.0 360.0,595.0 470.0,350.0" fill="rgb(165, 0, 38)" stroke="rgb(95, 95, 95)" stroke-width="2" opacity="0.96" />
<line x1="410" y1="585" x2="580" y2="420" stroke="rgb(95, 95, 95)" stroke-width="16" stroke-linecap="round" opacity="0.9"/>
<line x1="425" y1="725" x2="960" y2="640" stroke="rgb(95, 95, 95)" stroke-width="16" stroke-linecap="round" opacity="0.9"/>
<polygon points="432.3,182.7 465.5,175.7 497.7,327.3 464.5,334.3" fill="rgb(190, 190, 190)" stroke="rgb(95, 95, 95)" stroke-width="2" opacity="0.96" />
<ellipse cx="420" cy="155" rx="76" ry="23" fill="rgb(43, 131, 186)" stroke="rgb(95, 95, 95)" stroke-width="2" opacity="0.96"/>
<circle cx="705" cy="705" r="82" fill="none" stroke="rgb(47, 133, 185)" stroke-width="16" opacity="0.9"/>
<circle cx="705" cy="705" r="28" fill="none" stroke="rgb(47, 133, 185)" stroke-width="8" opacity="0.9"/>
<line x1="705" y1="705" x2="810" y2="735" stroke="rgb(95, 95, 95)" stroke-width="12" stroke-linecap="round" opacity="0.9"/>
<line x1="705" y1="705" x2="620" y2="770" stroke="rgb(95, 95, 95)" stroke-width="12" stroke-linecap="round" opacity="0.9"/>
<polygon points="805.0,736.0 875.0,736.0 875.0,760.0 805.0,760.0" fill="rgb(43, 131, 186)" stroke="rgb(95, 95, 95)" stroke-width="2" opacity="0.96" />
<polygon points="565.0,778.0 635.0,778.0 635.0,802.0 565.0,802.0" fill="rgb(43, 131, 186)" stroke="rgb(95, 95, 95)" stroke-width="2" opacity="0.96" />
<circle cx="355" cy="710" r="46" fill="none" stroke="rgb(43, 131, 186)" stroke-width="10" opacity="0.9"/>
<polygon points="300.0,785.0 360.0,760.0 385.0,820.0 325.0,860.0 280.0,830.0" fill="rgb(43, 131, 186)" stroke="rgb(95, 95, 95)" stroke-width="2" opacity="0.96" />
<polygon points="1085.0,190.0 1165.0,160.0 1210.0,225.0 1120.0,270.0 1060.0,240.0" fill="rgb(43, 131, 186)" stroke="rgb(95, 95, 95)" stroke-width="2" opacity="0.96" />
<polygon points="1085.0,275.0 1125.0,255.0 1135.0,305.0 1090.0,320.0" fill="rgb(43, 131, 186)" stroke="rgb(95, 95, 95)" stroke-width="2" opacity="0.96" />
<polygon points="1170.0,280.0 1210.0,265.0 1225.0,315.0 1180.0,330.0" fill="rgb(43, 131, 186)" stroke="rgb(95, 95, 95)" stroke-width="2" opacity="0.96" />
<polygon points="1015.0,300.0 1038.0,355.0 1068.0,330.0 1050.0,285.0" fill="rgb(43, 131, 186)" stroke="rgb(95, 95, 95)" stroke-width="2" opacity="0.96" />
<polygon points="1160.0,295.0 1188.0,345.0 1215.0,325.0 1198.0,282.0" fill="rgb(43, 131, 186)" stroke="rgb(95, 95, 95)" stroke-width="2" opacity="0.96" />
<polygon points="1265.0,825.0 1292.0,875.0 1320.0,855.0 1298.0,812.0" fill="rgb(43, 131, 186)" stroke="rgb(95, 95, 95)" stroke-width="2" opacity="0.96" />
<polygon points="1330.0,350.0 1370.0,332.0 1405.0,820.0 1375.0,870.0 1335.0,860.0 1348.0,735.0 1325.0,735.0" fill="rgb(190, 190, 190)" stroke="rgb(95, 95, 95)" stroke-width="2" opacity="0.96" />
<line x1="75" y1="640" x2="445" y2="640" stroke="rgb(95, 95, 95)" stroke-width="2" stroke-linecap="round" opacity="0.9"/>
<line x1="775" y1="640" x2="1145" y2="640" stroke="rgb(95, 95, 95)" stroke-width="2" stroke-linecap="round" opacity="0.9"/>
<rect x="1190" y="140" width="330" height="620" rx="24" fill="white" opacity="0.85" stroke="rgb(95, 95, 95)" stroke-width="1"/>
<text x="1214" y="178" font-size="24" font-family="Arial" fill="rgb(45, 45, 45)" font-weight="700">Part Metrics</text>
<circle cx="1212" cy="210" r="11" fill="rgb(77, 149, 181)" stroke="rgb(95, 95, 95)" stroke-width="1"/>
<text x="1235" y="216" font-size="18" font-family="Arial" fill="rgb(45, 45, 45)">tire</text>
<text x="1445" y="216" font-size="16" font-family="Arial" fill="rgb(45, 45, 45)" text-anchor="end">0.08</text>
<circle cx="1212" cy="250" r="11" fill="rgb(43, 131, 186)" stroke="rgb(95, 95, 95)" stroke-width="1"/>
<text x="1235" y="256" font-size="18" font-family="Arial" fill="rgb(45, 45, 45)">brake</text>
<text x="1445" y="256" font-size="16" font-family="Arial" fill="rgb(45, 45, 45)" text-anchor="end">0.00</text>
<circle cx="1212" cy="290" r="11" fill="rgb(47, 133, 185)" stroke="rgb(95, 95, 95)" stroke-width="1"/>
<text x="1235" y="296" font-size="18" font-family="Arial" fill="rgb(45, 45, 45)">chainwheel</text>
<text x="1445" y="296" font-size="16" font-family="Arial" fill="rgb(45, 45, 45)" text-anchor="end">0.01</text>
<circle cx="1212" cy="330" r="11" fill="rgb(190, 190, 190)" stroke="rgb(95, 95, 95)" stroke-width="1"/>
<text x="1235" y="336" font-size="18" font-family="Arial" fill="rgb(45, 45, 45)">seatpost</text>
<text x="1445" y="336" font-size="16" font-family="Arial" fill="rgb(45, 45, 45)" text-anchor="end">N/A</text>
<circle cx="1212" cy="370" r="11" fill="rgb(43, 131, 186)" stroke="rgb(95, 95, 95)" stroke-width="1"/>
<text x="1235" y="376" font-size="18" font-family="Arial" fill="rgb(45, 45, 45)">rearderailleur</text>
<text x="1445" y="376" font-size="16" font-family="Arial" fill="rgb(45, 45, 45)" text-anchor="end">0.00</text>
<circle cx="1212" cy="410" r="11" fill="rgb(165, 0, 38)" stroke="rgb(95, 95, 95)" stroke-width="1"/>
<text x="1235" y="416" font-size="18" font-family="Arial" fill="rgb(45, 45, 45)">frame</text>
<text x="1445" y="416" font-size="16" font-family="Arial" fill="rgb(45, 45, 45)" text-anchor="end">1.00</text>
<circle cx="1212" cy="450" r="11" fill="rgb(43, 131, 186)" stroke="rgb(95, 95, 95)" stroke-width="1"/>
<text x="1235" y="456" font-size="18" font-family="Arial" fill="rgb(45, 45, 45)">saddle</text>
<text x="1445" y="456" font-size="16" font-family="Arial" fill="rgb(45, 45, 45)" text-anchor="end">0.00</text>
<circle cx="1212" cy="490" r="11" fill="rgb(190, 190, 190)" stroke="rgb(95, 95, 95)" stroke-width="1"/>
<text x="1235" y="496" font-size="18" font-family="Arial" fill="rgb(45, 45, 45)">fork</text>
<text x="1445" y="496" font-size="16" font-family="Arial" fill="rgb(45, 45, 45)" text-anchor="end">N/A</text>
<circle cx="1212" cy="530" r="11" fill="rgb(43, 131, 186)" stroke="rgb(95, 95, 95)" stroke-width="1"/>
<text x="1235" y="536" font-size="18" font-family="Arial" fill="rgb(45, 45, 45)">freewhile</text>
<text x="1445" y="536" font-size="16" font-family="Arial" fill="rgb(45, 45, 45)" text-anchor="end">0.00</text>
<circle cx="1212" cy="570" r="11" fill="rgb(43, 131, 186)" stroke="rgb(95, 95, 95)" stroke-width="1"/>
<text x="1235" y="576" font-size="18" font-family="Arial" fill="rgb(45, 45, 45)">crank</text>
<text x="1445" y="576" font-size="16" font-family="Arial" fill="rgb(45, 45, 45)" text-anchor="end">0.00</text>
<circle cx="1212" cy="610" r="11" fill="rgb(43, 131, 186)" stroke="rgb(95, 95, 95)" stroke-width="1"/>
<text x="1235" y="616" font-size="18" font-family="Arial" fill="rgb(45, 45, 45)">handlebar</text>
<text x="1445" y="616" font-size="16" font-family="Arial" fill="rgb(45, 45, 45)" text-anchor="end">0.00</text>
<circle cx="1212" cy="650" r="11" fill="rgb(43, 131, 186)" stroke="rgb(95, 95, 95)" stroke-width="1"/>
<text x="1235" y="656" font-size="18" font-family="Arial" fill="rgb(45, 45, 45)">shiftlever</text>
<text x="1445" y="656" font-size="16" font-family="Arial" fill="rgb(45, 45, 45)" text-anchor="end">0.00</text>
<circle cx="1212" cy="690" r="11" fill="rgb(43, 131, 186)" stroke="rgb(95, 95, 95)" stroke-width="1"/>
<text x="1235" y="696" font-size="18" font-family="Arial" fill="rgb(45, 45, 45)">pedal</text>
<text x="1445" y="696" font-size="16" font-family="Arial" fill="rgb(45, 45, 45)" text-anchor="end">0.00</text>
<rect x="360.0" y="900" width="10.00" height="32" fill="rgb(43, 131, 186)" stroke="none"/>
<rect x="369.0" y="900" width="10.00" height="32" fill="rgb(47, 133, 185)" stroke="none"/>
<rect x="378.0" y="900" width="10.00" height="32" fill="rgb(52, 135, 185)" stroke="none"/>
<rect x="387.0" y="900" width="10.00" height="32" fill="rgb(56, 138, 184)" stroke="none"/>
<rect x="396.0" y="900" width="10.00" height="32" fill="rgb(60, 140, 183)" stroke="none"/>
<rect x="405.0" y="900" width="10.00" height="32" fill="rgb(64, 142, 183)" stroke="none"/>
<rect x="414.0" y="900" width="10.00" height="32" fill="rgb(69, 144, 182)" stroke="none"/>
<rect x="423.0" y="900" width="10.00" height="32" fill="rgb(73, 147, 181)" stroke="none"/>
<rect x="432.0" y="900" width="10.00" height="32" fill="rgb(77, 149, 181)" stroke="none"/>
<rect x="441.0" y="900" width="10.00" height="32" fill="rgb(82, 151, 180)" stroke="none"/>
<rect x="450.0" y="900" width="10.00" height="32" fill="rgb(86, 153, 179)" stroke="none"/>
<rect x="459.0" y="900" width="10.00" height="32" fill="rgb(90, 156, 179)" stroke="none"/>
<rect x="468.0" y="900" width="10.00" height="32" fill="rgb(94, 158, 178)" stroke="none"/>
<rect x="477.0" y="900" width="10.00" height="32" fill="rgb(99, 160, 177)" stroke="none"/>
<rect x="486.0" y="900" width="10.00" height="32" fill="rgb(103, 162, 177)" stroke="none"/>
<rect x="495.0" y="900" width="10.00" height="32" fill="rgb(107, 165, 176)" stroke="none"/>
<rect x="504.0" y="900" width="10.00" height="32" fill="rgb(112, 167, 175)" stroke="none"/>
<rect x="513.0" y="900" width="10.00" height="32" fill="rgb(116, 169, 175)" stroke="none"/>
<rect x="522.0" y="900" width="10.00" height="32" fill="rgb(120, 171, 174)" stroke="none"/>
<rect x="531.0" y="900" width="10.00" height="32" fill="rgb(124, 174, 173)" stroke="none"/>
<rect x="540.0" y="900" width="10.00" height="32" fill="rgb(129, 176, 173)" stroke="none"/>
<rect x="549.0" y="900" width="10.00" height="32" fill="rgb(133, 178, 172)" stroke="none"/>
<rect x="558.0" y="900" width="10.00" height="32" fill="rgb(137, 180, 171)" stroke="none"/>
<rect x="567.0" y="900" width="10.00" height="32" fill="rgb(142, 183, 171)" stroke="none"/>
<rect x="576.0" y="900" width="10.00" height="32" fill="rgb(146, 185, 170)" stroke="none"/>
<rect x="585.0" y="900" width="10.00" height="32" fill="rgb(150, 187, 169)" stroke="none"/>
<rect x="594.0" y="900" width="10.00" height="32" fill="rgb(154, 189, 169)" stroke="none"/>
<rect x="603.0" y="900" width="10.00" height="32" fill="rgb(159, 192, 168)" stroke="none"/>
<rect x="612.0" y="900" width="10.00" height="32" fill="rgb(163, 194, 167)" stroke="none"/>
<rect x="621.0" y="900" width="10.00" height="32" fill="rgb(167, 196, 167)" stroke="none"/>
<rect x="630.0" y="900" width="10.00" height="32" fill="rgb(171, 198, 166)" stroke="none"/>
<rect x="639.0" y="900" width="10.00" height="32" fill="rgb(176, 201, 165)" stroke="none"/>
<rect x="648.0" y="900" width="10.00" height="32" fill="rgb(180, 203, 165)" stroke="none"/>
<rect x="657.0" y="900" width="10.00" height="32" fill="rgb(184, 205, 164)" stroke="none"/>
<rect x="666.0" y="900" width="10.00" height="32" fill="rgb(189, 207, 163)" stroke="none"/>
<rect x="675.0" y="900" width="10.00" height="32" fill="rgb(193, 209, 163)" stroke="none"/>
<rect x="684.0" y="900" width="10.00" height="32" fill="rgb(197, 212, 162)" stroke="none"/>
<rect x="693.0" y="900" width="10.00" height="32" fill="rgb(201, 214, 161)" stroke="none"/>
<rect x="702.0" y="900" width="10.00" height="32" fill="rgb(206, 216, 161)" stroke="none"/>
<rect x="711.0" y="900" width="10.00" height="32" fill="rgb(210, 218, 160)" stroke="none"/>
<rect x="720.0" y="900" width="10.00" height="32" fill="rgb(214, 221, 159)" stroke="none"/>
<rect x="729.0" y="900" width="10.00" height="32" fill="rgb(219, 223, 159)" stroke="none"/>
<rect x="738.0" y="900" width="10.00" height="32" fill="rgb(223, 225, 158)" stroke="none"/>
<rect x="747.0" y="900" width="10.00" height="32" fill="rgb(227, 227, 157)" stroke="none"/>
<rect x="756.0" y="900" width="10.00" height="32" fill="rgb(231, 230, 157)" stroke="none"/>
<rect x="765.0" y="900" width="10.00" height="32" fill="rgb(236, 232, 156)" stroke="none"/>
<rect x="774.0" y="900" width="10.00" height="32" fill="rgb(240, 234, 155)" stroke="none"/>
<rect x="783.0" y="900" width="10.00" height="32" fill="rgb(244, 236, 155)" stroke="none"/>
<rect x="792.0" y="900" width="10.00" height="32" fill="rgb(249, 239, 154)" stroke="none"/>
<rect x="801.0" y="900" width="10.00" height="32" fill="rgb(253, 241, 153)" stroke="none"/>
<rect x="810.0" y="900" width="10.00" height="32" fill="rgb(254, 240, 152)" stroke="none"/>
<rect x="819.0" y="900" width="10.00" height="32" fill="rgb(252, 235, 150)" stroke="none"/>
<rect x="828.0" y="900" width="10.00" height="32" fill="rgb(250, 230, 147)" stroke="none"/>
<rect x="837.0" y="900" width="10.00" height="32" fill="rgb(249, 225, 145)" stroke="none"/>
<rect x="846.0" y="900" width="10.00" height="32" fill="rgb(247, 220, 143)" stroke="none"/>
<rect x="855.0" y="900" width="10.00" height="32" fill="rgb(245, 215, 140)" stroke="none"/>
<rect x="864.0" y="900" width="10.00" height="32" fill="rgb(243, 210, 138)" stroke="none"/>
<rect x="873.0" y="900" width="10.00" height="32" fill="rgb(241, 205, 136)" stroke="none"/>
<rect x="882.0" y="900" width="10.00" height="32" fill="rgb(240, 200, 133)" stroke="none"/>
<rect x="891.0" y="900" width="10.00" height="32" fill="rgb(238, 196, 131)" stroke="none"/>
<rect x="900.0" y="900" width="10.00" height="32" fill="rgb(236, 191, 129)" stroke="none"/>
<rect x="909.0" y="900" width="10.00" height="32" fill="rgb(234, 186, 126)" stroke="none"/>
<rect x="918.0" y="900" width="10.00" height="32" fill="rgb(232, 181, 124)" stroke="none"/>
<rect x="927.0" y="900" width="10.00" height="32" fill="rgb(230, 176, 122)" stroke="none"/>
<rect x="936.0" y="900" width="10.00" height="32" fill="rgb(229, 171, 119)" stroke="none"/>
<rect x="945.0" y="900" width="10.00" height="32" fill="rgb(227, 166, 117)" stroke="none"/>
<rect x="954.0" y="900" width="10.00" height="32" fill="rgb(225, 161, 115)" stroke="none"/>
<rect x="963.0" y="900" width="10.00" height="32" fill="rgb(223, 156, 112)" stroke="none"/>
<rect x="972.0" y="900" width="10.00" height="32" fill="rgb(221, 152, 110)" stroke="none"/>
<rect x="981.0" y="900" width="10.00" height="32" fill="rgb(220, 147, 108)" stroke="none"/>
<rect x="990.0" y="900" width="10.00" height="32" fill="rgb(218, 142, 105)" stroke="none"/>
<rect x="999.0" y="900" width="10.00" height="32" fill="rgb(216, 137, 103)" stroke="none"/>
<rect x="1008.0" y="900" width="10.00" height="32" fill="rgb(214, 132, 101)" stroke="none"/>
<rect x="1017.0" y="900" width="10.00" height="32" fill="rgb(212, 127, 98)" stroke="none"/>
<rect x="1026.0" y="900" width="10.00" height="32" fill="rgb(210, 122, 96)" stroke="none"/>
<rect x="1035.0" y="900" width="10.00" height="32" fill="rgb(209, 117, 94)" stroke="none"/>
<rect x="1044.0" y="900" width="10.00" height="32" fill="rgb(207, 112, 91)" stroke="none"/>
<rect x="1053.0" y="900" width="10.00" height="32" fill="rgb(205, 108, 89)" stroke="none"/>
<rect x="1062.0" y="900" width="10.00" height="32" fill="rgb(203, 103, 87)" stroke="none"/>
<rect x="1071.0" y="900" width="10.00" height="32" fill="rgb(201, 98, 84)" stroke="none"/>
<rect x="1080.0" y="900" width="10.00" height="32" fill="rgb(200, 93, 82)" stroke="none"/>
<rect x="1089.0" y="900" width="10.00" height="32" fill="rgb(198, 88, 80)" stroke="none"/>
<rect x="1098.0" y="900" width="10.00" height="32" fill="rgb(196, 83, 77)" stroke="none"/>
<rect x="1107.0" y="900" width="10.00" height="32" fill="rgb(194, 78, 75)" stroke="none"/>
<rect x="1116.0" y="900" width="10.00" height="32" fill="rgb(192, 73, 73)" stroke="none"/>
<rect x="1125.0" y="900" width="10.00" height="32" fill="rgb(190, 68, 71)" stroke="none"/>
<rect x="1134.0" y="900" width="10.00" height="32" fill="rgb(189, 64, 68)" stroke="none"/>
<rect x="1143.0" y="900" width="10.00" height="32" fill="rgb(187, 59, 66)" stroke="none"/>
<rect x="1152.0" y="900" width="10.00" height="32" fill="rgb(185, 54, 64)" stroke="none"/>
<rect x="1161.0" y="900" width="10.00" height="32" fill="rgb(183, 49, 61)" stroke="none"/>
<rect x="1170.0" y="900" width="10.00" height="32" fill="rgb(181, 44, 59)" stroke="none"/>
<rect x="1179.0" y="900" width="10.00" height="32" fill="rgb(180, 39, 57)" stroke="none"/>
<rect x="1188.0" y="900" width="10.00" height="32" fill="rgb(178, 34, 54)" stroke="none"/>
<rect x="1197.0" y="900" width="10.00" height="32" fill="rgb(176, 29, 52)" stroke="none"/>
<rect x="1206.0" y="900" width="10.00" height="32" fill="rgb(174, 24, 50)" stroke="none"/>
<rect x="1215.0" y="900" width="10.00" height="32" fill="rgb(172, 20, 47)" stroke="none"/>
<rect x="1224.0" y="900" width="10.00" height="32" fill="rgb(170, 15, 45)" stroke="none"/>
<rect x="1233.0" y="900" width="10.00" height="32" fill="rgb(169, 10, 43)" stroke="none"/>
<rect x="1242.0" y="900" width="10.00" height="32" fill="rgb(167, 5, 40)" stroke="none"/>
<rect x="1251.0" y="900" width="10.00" height="32" fill="rgb(165, 0, 38)" stroke="none"/>
<rect x="360" y="900" width="900" height="32" fill="none" stroke="rgb(95, 95, 95)" stroke-width="1"/>
<text x="360" y="888" font-size="18" font-family="Arial" fill="rgb(45, 45, 45)">Low</text>
<text x="810.0" y="888" font-size="20" font-family="Arial" fill="rgb(45, 45, 45)" text-anchor="middle">Price Score Heatmap</text>
<text x="1260" y="888" font-size="18" font-family="Arial" fill="rgb(45, 45, 45)" text-anchor="end">High</text>
</svg>