<?xml version="1.0" encoding="UTF-8" standalone="no"?>
<!-- Created with Inkscape (http://www.inkscape.org/) -->

<svg
   version="1.1"
   id="svg1"
   width="1441"
   height="736"
   viewBox="0 0 1441 736"
   sodipodi:docname="透明剪影_公路车.svg"
   inkscape:version="1.4.4 (dcaf3e7, 2026-05-05)"
   xmlns:inkscape="http://www.inkscape.org/namespaces/inkscape"
   xmlns:sodipodi="http://sodipodi.sourceforge.net/DTD/sodipodi-0.dtd"
   xmlns="http://www.w3.org/2000/svg"
   xmlns:svg="http://www.w3.org/2000/svg">
  <defs
     id="defs1" />
  <sodipodi:namedview
     id="namedview1"
     pagecolor="#ffffff"
     bordercolor="#000000"
     borderopacity="0.25"
     inkscape:showpageshadow="2"
     inkscape:pageopacity="0.0"
     inkscape:pagecheckerboard="0"
     inkscape:deskcolor="#d1d1d1"
     inkscape:zoom="1.1692241"
     inkscape:cx="743.65554"
     inkscape:cy="334.83743"
     inkscape:window-width="2560"
     inkscape:window-height="1494"
     inkscape:window-x="-11"
     inkscape:window-y="-11"
     inkscape:window-maximized="1"
     inkscape:current-layer="g1" />
  <g
     inkscape:groupmode="layer"
     inkscape:label="Image"
     id="g1">
    <path
       style="fill:#000000"
       d="m 1091.2024,167.27452 c -2.5259,-2.04643 -4.1628,-8.56697 -2.9508,-11.75484 1.078,-2.83537 2.9144,-3.82513 9.9726,-5.37497 22.156,-4.86502 32.4849,-11.46509 42.7317,-27.30494 3.8393,-5.93497 4.748,-8.23238 5.0819,-12.8477 0.5023,-6.94462 -0.4777,-8.8448 -7.0936,-13.754325 -6.5435,-4.85585 -8.5805,-5.34081 -16.9676,-4.03952 -10.8934,1.69017 -17.2491,-1.56689 -17.0459,-8.73534 0.1989,-7.016 6.177,-10.35524 18.5571,-10.36545 3.7199,-0.003 7.5449,-0.44608 8.5,-0.98448 0.955,-0.5384 7.2867,-2.31142 14.0704,-3.94005 16.6495,-3.9972 18.9234,-5.684456 21.6644,-16.074852 1.6854,-6.389095 2.7745,-7.708061 7.5453,-9.137409 3.2589,-0.97639 4.2652,-0.869171 6.9964,0.7454 5.1439,3.040833 8.9445,9.20232 9.9161,16.075849 0.4697,3.323376 2.1971,9.140182 3.8387,12.926232 3.7927,8.74763 5.6796,15.47182 7.6841,27.383755 2.4003,14.26341 4.2048,19.6443 7.9948,23.83933 2.3741,2.62787 3.1311,4.18195 2.5191,5.17205 -2.1858,3.53671 -13.0107,-6.02629 -14.6596,-12.95072 -0.9526,-3.99988 -1.204,-4.11023 -4.6196,-2.02763 -1.7675,1.07772 -3.9908,1.96117 -4.9407,1.96323 -2.6871,0.006 -5.1233,-4.66793 -5.202,-9.98 -0.057,-3.87325 0.5501,-5.65355 3.179,-9.315775 1.7875,-2.4901 3.25,-5.48084 3.25,-6.64609 0,-3.89546 -2.8021,-8.90073 -5.8716,-10.488 -4.0856,-2.11273 -5.0194,-1.9834 -6.0944,0.84404 -0.504,1.32575 -2.5812,3.68825 -4.6159,5.25 -2.0347,1.56176 -5.0768,4.02062 -6.7602,5.46415 l -3.0608,2.6246 -0.1538,11.444405 c -0.1537,11.44021 -0.1553,11.44745 -4.5165,19.83027 -5.8328,11.21121 -12.9421,19.85188 -21.8433,26.54812 -9.6444,7.25531 -14.7702,9.76167 -27.2435,13.32126 -13.979,3.98928 -17.2921,4.37118 -19.8618,2.2894 z"
       id="path681" />
    <path
       style="fill:#000000"
       d="m 1005.5553,238.77558 c -0.2668,-1.02012 -1.1232,-1.49566 -2.1907,-1.21648 -1.2283,0.32118 -2.2349,-0.53656 -3.3639,-2.86618 -1.36958,-2.8262 -1.40928,-3.63277 -0.26468,-5.38097 0.74038,-1.13104 1.50548,-4.6448 1.69998,-7.80836 l 0.3538,-5.75193 -1.99998,2.49521 c -1.1,1.37236 -3.2053,2.95027 -4.6786,3.50646 -1.8465,0.69712 -2.7784,1.85766 -3,3.73604 -0.4396,3.72713 -2.6168,4.18893 -3.3004,0.70006 -0.3041,-1.55157 -1.0095,-4.7915 -1.5675,-7.19984 -1.4304,-6.17263 0.3377,-8.53825 7.9853,-10.68406 7.02458,-1.971 8.51908,-3.38149 10.18588,-9.61343 1.4182,-5.30276 0.2704,-10.90061 -3.0709,-14.97654 -1.864,-2.27386 -1.9679,-2.28821 -3.32608,-0.45956 -2.5274,3.40262 -4.0277,1.45265 -4.4831,-5.82656 -0.5614,-8.97317 1.6797,-14.56104 5.83988,-14.56104 3.212,0 4.1226,1.86406 3.7764,7.73118 -0.2476,4.19518 2.8796,9.6703 9.5825,16.77745 4.2802,4.53836 6.857,4.36104 7.5566,-0.51999 0.3824,-2.66798 1.0293,-3.56382 2.75,-3.8082 1.9707,-0.27988 2.25,0.12099 2.25,3.22968 0,3.17052 0.4535,3.7794 4.25,5.7064 7.42,3.76614 12.2797,7.58923 14.0308,11.03768 0.964,1.89868 2.0792,7.57437 2.5782,13.12247 0.6394,7.10885 1.372,10.32113 2.6849,11.77188 1.7154,1.89547 1.7204,2.17405 0.099,5.57376 -1.437,3.01351 -2.0852,3.48352 -4.105,2.97659 -1.9492,-0.48922 -2.4584,-0.18025 -2.7183,1.64923 -0.2807,1.97609 -0.8086,2.20931 -4.3197,1.90835 -2.2,-0.18858 -4.0639,-0.41343 -4.1419,-0.49968 -0.078,-0.0862 -0.3031,-3.2836 -0.5,-7.10524 -0.3466,-6.72453 -0.2683,-6.99842 2.4309,-8.5 2.6612,-1.48048 2.8778,-1.43703 4.7277,0.94844 2.2053,2.84361 2.4181,2.10578 0.9339,-3.23824 -0.571,-2.05603 -1.94,-4.22089 -3.0423,-4.8108 -1.1022,-0.58991 -2.3952,-2.1012 -2.8732,-3.35841 -2.0986,-5.51989 -13.8811,-7.17269 -22.335,-3.13307 -4.2939,2.05181 -7.7001,7.61315 -7.7001,12.57211 0,2.82842 0.1428,2.96841 1.5714,1.53983 1.9374,-1.93742 1.9404,-1.93739 4.9788,0.0535 2.3538,1.54226 2.4467,1.96173 1.8281,8.25 -0.3585,3.64382 -0.8168,6.81416 -1.0185,7.0452 -0.2017,0.23104 -2.0068,0.4745 -4.0115,0.54101 -2.6354,0.0874 -3.7662,-0.34291 -4.0828,-1.5539 z"
       id="path680" />
    <path
       style="fill:#000000"
       d="m 1076.0631,246.1184 c -5.0754,-5.77983 -2.608,-9.23476 7.2976,-10.21809 7.4689,-0.74146 17.9291,-4.40877 17.9291,-6.2859 0,-0.62434 -1.4266,-0.73689 -3.75,-0.29585 -2.0625,0.39152 -7.35,1.07279 -11.75,1.51393 -4.4,0.44114 -9.8446,1.48575 -12.099,2.32135 -2.2544,0.8356 -4.6382,1.18599 -5.2973,0.77864 -1.6629,-1.02774 0.1524,-2.33205 6.3963,-4.59575 2.75,-0.997 5.45,-2.13091 6,-2.51981 1.2426,-0.87863 10.7241,-3.52249 15.7419,-4.38954 3.015,-0.52096 3.8602,-1.17237 4.3503,-3.35279 2.6025,-11.57733 4.0043,-13.66468 9.9223,-14.7749 1.9944,-0.37415 5.057,-0.27231 6.8058,0.2263 2.8638,0.8165 3.2107,1.33447 3.4916,5.21408 0.1715,2.36914 -0.099,6.23496 -0.6017,8.59073 l -0.9135,4.28322 4.3716,2.12387 c 5.8125,2.82397 7.4044,6.21396 4.6532,9.9094 -1.1142,1.49661 -3.1048,3.0285 -4.4237,3.40421 -14.6644,4.17761 -14.2974,4.13335 -20.1545,2.43065 -10.4416,-3.03545 -16.2856,-1.9033 -22.1804,4.29697 -3.4171,3.59413 -3.7433,3.6696 -5.7896,1.33928 z"
       id="path679" />
    <path
       style="fill:#000000"
       d="m 357.96363,514.39026 c -0.37528,-0.60723 -1.8927,-0.78653 -3.55901,-0.42055 -1.95173,0.42868 -2.9048,0.24282 -2.9048,-0.56645 0,-0.79528 -0.98362,-1.00773 -2.89538,-0.62538 -2.35788,0.47158 -2.99666,0.1918 -3.44092,-1.50708 -0.40896,-1.56384 -1.08876,-1.9441 -2.71517,-1.51879 -1.58904,0.41555 -2.30505,0.0495 -2.67571,-1.36792 -0.32187,-1.23082 -1.37366,-1.93528 -2.88946,-1.93528 -1.75222,0 -2.38336,-0.55442 -2.38336,-2.09362 0,-1.25262 -0.8034,-2.30372 -2,-2.61664 -1.25797,-0.32896 -2,-1.36401 -2,-2.78974 0,-1.40047 -0.7396,-2.46015 -1.93529,-2.77283 -1.43857,-0.37619 -1.78514,-1.08025 -1.3503,-2.7431 0.39104,-1.49533 0.0361,-2.54418 -1.07048,-3.16346 -1.1786,-0.65958 -1.47079,-1.66228 -1.01436,-3.48087 0.41065,-1.63616 0.16624,-2.84791 -0.67993,-3.37086 -1.05762,-0.65365 -1.07316,-1.11513 -0.0779,-2.31431 0.99319,-1.19673 0.98027,-1.92182 -0.0643,-3.60673 -1.08684,-1.75307 -1.07369,-2.25433 0.0779,-2.97102 0.89752,-0.55856 1.16413,-1.74358 0.75712,-3.36523 -0.4475,-1.78296 -0.16823,-2.6796 0.97072,-3.11665 1.11033,-0.42608 1.41668,-1.33983 1.00248,-2.99014 -0.45681,-1.82004 -0.13039,-2.49844 1.39393,-2.89706 1.3418,-0.35089 1.99041,-1.36568 1.99041,-3.11413 0,-1.42649 0.3375,-2.54033 0.75,-2.47519 2.21108,0.34912 3.25,-0.32807 3.25,-2.11842 0,-1.36315 0.66666,-2 2.09362,-2 1.25261,0 2.30371,-0.8034 2.61663,-2 0.34086,-1.30345 1.36401,-2 2.93776,-2 1.32812,0 2.68662,-0.70848 3.01891,-1.5744 0.41575,-1.08342 1.34149,-1.38933 2.96861,-0.98094 1.30046,0.32639 2.36447,0.18301 2.36447,-0.31862 0,-1.5474 3.29201,-2.27102 4.13953,-0.90991 0.64472,1.03539 1.19241,1.04031 2.82995,0.0254 1.5878,-0.98409 2.44887,-0.9972 3.94931,-0.0602 1.49953,0.93647 2.24667,0.9262 3.41928,-0.047 1.22252,-1.0146 1.67726,-0.92941 2.45473,0.45987 0.62746,1.1212 1.68697,1.51354 3.09381,1.14565 1.46689,-0.3836 2.45813,0.0358 3.15285,1.33383 0.6027,1.12616 1.90345,1.79871 3.21016,1.6598 1.38095,-0.1468 2.20681,0.32357 2.22363,1.26647 0.0158,0.88807 1.16001,1.63018 2.80471,1.81912 1.52788,0.17551 2.71206,0.85051 2.63152,1.5 -0.33823,2.72732 0.20333,3.68088 2.09052,3.68088 1.46666,0 2,0.66666 2,2.5 0,1.77124 0.54257,2.5 1.86132,2.5 1.44371,0 1.75464,0.55812 1.3858,2.48756 -0.32109,1.67969 0.0464,2.68784 1.13156,3.10426 1.1259,0.43204 1.42607,1.33791 1.00253,3.02542 -0.34414,1.37118 -0.0457,3.08208 0.69282,3.97196 1.07035,1.2897 1.04615,1.71953 -0.13834,2.4565 -1.18988,0.74033 -1.21608,1.24756 -0.15302,2.96254 1.07197,1.72934 1.02523,2.32671 -0.28452,3.63645 -1.21938,1.21939 -1.30697,1.88074 -0.39466,2.98001 0.91643,1.10423 0.78827,1.83741 -0.58676,3.35681 -0.96761,1.0692 -1.49648,2.62889 -1.17525,3.46599 0.35147,0.91593 -0.19753,1.94027 -1.37872,2.57242 -1.07952,0.57775 -1.96276,1.93461 -1.96276,3.01526 0,1.09401 -0.67577,1.96482 -1.52476,1.96482 -0.83861,0 -1.9492,1.1164 -2.46798,2.48089 -0.62243,1.63711 -1.45958,2.28277 -2.46135,1.89835 -1.01723,-0.39035 -1.8529,0.29799 -2.53279,2.08624 -0.79593,2.09345 -1.46081,2.5272 -3.08407,2.012 -1.56652,-0.4972 -2.20219,-0.149 -2.61586,1.43286 -0.6268,2.39687 -0.77839,2.44624 -3.32555,1.08304 -1.45172,-0.77693 -2.10855,-0.60581 -2.87878,0.75 -0.83566,1.47101 -1.32411,1.55699 -3.0042,0.52886 -1.63002,-0.99749 -2.28344,-0.95061 -3.48405,0.25 -1.75674,1.75673 -2.28667,1.82711 -3.1568,0.41921 z m 32.53619,-26.94145 c 0,-0.55 -0.19845,-1 -0.44099,-1 -0.24254,0 -0.7191,0.45 -1.05901,1 -0.33992,0.55 -0.14148,1 0.44098,1 0.58246,0 1.05902,-0.45 1.05902,-1 z m -27,-1.39994 c 0,1.41489 2.65103,-2.94762 3.25076,-5.34943 1.13329,-4.53861 -1.74769,-7.78107 -7.76779,-8.74242 -6.06243,-0.96811 -9.36009,9.05839 -4.33715,13.18706 1.8752,1.54135 6.09952,2.08514 7.60418,0.97887 0.6875,-0.50547 1.25,-0.53881 1.25,-0.0741 z m 28,-4.60006 c 0,-0.55 -0.19845,-1 -0.44099,-1 -0.24254,0 -0.7191,0.45 -1.05901,1 -0.33992,0.55 -0.14148,1 0.44098,1 0.58246,0 1.05902,-0.45 1.05902,-1 z m -59,-16 c 0,-0.55 -0.45,-1 -1,-1 -0.55,0 -1,0.45 -1,1 0,0.55 0.45,1 1,1 0.55,0 1,-0.45 1,-1 z"
       id="path678" />
    <path
       style="fill:#000000"
       d="m 1155.0427,285.3684 c 0.3356,-2.97782 0.1249,-4.5 -0.6229,-4.5 -0.6215,0 -1.13,0.675 -1.13,1.5 0,2.10196 -3.9385,1.88893 -4.6221,-0.25 -0.3076,-0.9625 -1.0336,-2.7421 -1.6133,-3.95467 -0.8004,-1.67407 -0.6883,-2.7629 0.4658,-4.5242 0.8359,-1.27575 1.8518,-4.78366 2.2575,-7.79534 l 0.7377,-5.47579 -2.3628,2.12503 c -1.2995,1.16877 -3.3387,2.62753 -4.5315,3.24169 -1.1928,0.61415 -2.4716,2.49543 -2.8417,4.18063 -0.4669,2.12552 -1.1809,2.96714 -2.3313,2.7478 -1.299,-0.24768 -1.8437,-2.11326 -2.5138,-8.61032 -0.997,-9.66566 0.067,-11.79523 6.3983,-12.80767 2.0379,-0.32588 5.4493,-1.57076 7.5808,-2.7664 3.2842,-1.84222 4.0931,-2.98799 5.302,-7.50964 1.5374,-5.7507 0.5942,-12.09399 -2.5056,-16.85112 -1.6602,-2.54783 -3.42,-2.96412 -3.42,-0.80902 0,1.91842 -1.4387,2.71164 -3.4903,1.92435 -1.0277,-0.39435 -1.4835,-1.35753 -1.1842,-2.50224 0.2677,-1.02361 0.024,-2.14701 -0.5413,-2.49645 -1.5342,-0.94818 -0.089,-10.84838 2.2535,-15.44066 2.1775,-4.26809 4.6989,-5.04654 7.4465,-2.29896 1.2064,1.20646 1.5533,3.11443 1.3418,7.38125 -0.2797,5.6446 -0.1735,5.90004 5.5782,13.40941 3.2249,4.21035 6.6736,8.08879 7.6639,8.61875 0.9902,0.52996 3.8729,0.96357 6.406,0.96357 5.257,0 10.9245,2.53662 17.396,7.78596 5.5915,4.5355 6.7284,7.50339 7.4741,19.51181 0.4382,7.05652 1.0598,10.24909 2.2216,11.41085 1.25,1.25001 1.4585,2.64598 0.9262,6.20223 -0.3777,2.52403 -0.8945,4.92665 -1.1484,5.33915 -0.8576,1.39334 -4.2366,0.76207 -5.3526,-1 -0.8751,-1.38165 -1.0167,-0.75019 -0.6726,3 0.4827,5.25948 -0.235,5.74734 -4.0455,2.75 -1.3985,-1.1 -3.1266,-2 -3.8404,-2 -1.6196,0 -2.1359,-1.76212 -2.9791,-10.16859 l -0.669,-6.66859 3.0438,-1.57399 c 2.7609,-1.42774 3.1891,-1.42866 4.6078,-0.01 0.8602,0.86021 1.564,1.98187 1.564,2.49258 0,0.51072 0.3896,0.92858 0.8657,0.92858 2.042,0 -0.7218,-8.06318 -3.7256,-10.86909 -1.727,-1.61333 -3.1401,-3.4344 -3.1401,-4.04682 0,-0.61242 -1.4625,-2.0052 -3.25,-3.09506 -4.4567,-2.7173 -14.9807,-2.75555 -19.3842,-0.0704 -5.031,3.06777 -8.5568,8.46642 -9.0372,13.83779 l -0.4243,4.74362 1.5798,-2.75 c 1.8335,-3.19168 1.3646,-3.04732 5.3667,-1.65218 2.9374,1.02398 3.1453,1.41075 3.0916,5.75 -0.1106,8.92783 -1.149,11.81973 -5.2368,14.58521 -2.0869,1.41183 -4.1692,2.56697 -4.6272,2.56697 -0.458,0 -0.6045,-2.025 -0.3255,-4.5 z"
       id="path677" />
    <path
       style="fill:#000000"
       d="m 1287.0946,600.1184 c -0.3478,-5.42012 -2.1455,-6.40906 -2.6224,-1.44267 -0.1747,1.81904 -0.9971,3.56808 -1.8276,3.88675 -2.8021,1.07526 -4.8073,-2.59709 -6.536,-11.96973 -1.7839,-9.67236 -10.8521,-49.89236 -20.2296,-89.72435 -19.408,-82.43765 -22.0342,-94.79298 -23.179,-109.04759 -0.7764,-9.6671 0.8682,-19.90255 3.5511,-22.102 4.4424,-3.64177 3.1135,-19.43289 -9.4544,-112.35041 -5.9843,-44.24358 -6.6429,-49.69737 -6.0701,-50.27013 1.2368,-1.23683 17.7611,-2.87904 18.1106,-1.79986 0.3229,0.9971 2.6704,18.61629 12.513,93.91715 4.0272,30.81027 4.8983,36.21474 8.1639,50.65284 1.0574,4.675 2.1602,10.17169 2.4508,12.21488 0.3434,2.41465 1.1688,3.91819 2.3584,4.29574 2.2607,0.71755 6.2997,7.47978 9.4219,15.77477 1.296,3.443 4.8772,17.72479 7.9583,31.73731 3.0811,14.01251 8.0741,36.5023 11.0955,49.9773 9.3633,41.75831 18.5046,82.91637 21.433,96.5 1.5414,7.15 3.6058,15.94991 4.5874,19.55535 2.1597,7.93203 1.5125,11.3544 -2.5441,13.45214 l -2.9855,1.54387 v -4.46667 c 0,-5.26807 -1.7565,-7.05205 -2.6323,-2.6734 -1.5338,7.66934 -6.6666,5.01896 -7.8481,-4.05249 -1.0871,-8.34729 -5.97,-27.19997 -13.6906,-52.8588 -8.0735,-26.83198 -14.0839,-45.66816 -13.4017,-42 0.2557,1.375 2.3001,14.425 4.5431,29 6.8652,44.6102 10.0854,62.83418 12.5691,71.13215 2.6132,8.73055 2.2863,11.47557 -1.6989,14.26693 -3.3521,2.34787 -3.7006,2.07594 -4.0358,-3.14908 z"
       id="path676" />
    <path
       style="fill:#000000"
       d="m 716.07132,641.91115 c -1.63485,-1.28597 -3.42579,-4.79397 -5.22184,-10.22826 -3.77764,-11.42997 -4.04111,-11.81449 -8.09483,-11.81449 -1.90565,0 -3.46481,-0.42535 -3.46481,-0.94521 0,-0.51987 -2.1375,-1.08237 -4.75,-1.25 l -4.75,-0.30479 v -4.49883 -4.49883 l 8.49968,-1.00117 8.49969,-1.00117 3.68069,-10.46251 c 2.02438,-5.75438 4.49952,-11.07799 5.50031,-11.83025 1.44949,-1.08953 6.29472,-1.28845 23.81963,-0.97791 26.27889,0.46566 28.03891,0.93872 31.23679,8.39573 3.79962,8.86023 5.50112,19.83435 4.28775,27.65471 -1.32793,8.55868 -4.42976,17.56989 -6.89726,20.03739 -3.01389,3.01388 -14.84677,4.68035 -33.24243,4.68166 -14.98101,10e-4 -16.85986,-0.19132 -19.10337,-1.95607 z m 36.21852,-11.8842 c 0,-1.90608 -6.23244,-9.29643 -8.59851,-10.196 -2.87962,-1.09484 -19.62208,-1.12919 -23.40149,-0.048 -2.09907,0.60048 -2.48311,1.29044 -2.39464,4.30221 0.1975,6.72394 -0.40982,6.49699 17.81106,6.65577 9.12097,0.0795 16.58358,-0.24179 16.58358,-0.71395 z m 14.2284,-3.26006 c 2.90393,-3.89339 3.48805,-16.66588 1.09294,-23.89849 -1.62775,-4.91539 -2.14408,-5.53162 -4.85758,-5.79742 -2.67168,-0.26171 -3.28935,0.20097 -5.14419,3.85332 -1.98209,3.90291 -2.01139,4.31899 -0.49078,6.96851 1.39034,2.42252 1.44956,3.61688 0.42222,8.51478 -1.24339,5.9279 -0.81919,7.87 2.56598,11.74783 2.00496,2.29675 3.98207,1.86857 6.41141,-1.38853 z m -19.8572,-22.13315 c 1.19869,-1.50405 2.99882,-4.12174 4.00028,-5.81707 l 1.82083,-3.08242 -16.84313,0.31707 -16.84313,0.31708 -1.28294,3.92008 c -0.837,2.55751 -0.94262,4.26041 -0.30387,4.89916 1.68523,1.68523 8.22695,2.54652 17.92663,2.36024 8.88633,-0.17066 9.45305,-0.31395 11.52533,-2.91414 z"
       id="path675" />
    <path
       style="fill:#000000"
       d="m 563.37397,685.38919 c -6.50574,-1.57256 -8.16791,-3.50009 -11.14062,-12.91917 -3.16633,-10.03255 -3.02689,-21.6406 0.38583,-32.11987 1.43618,-4.41004 3.20885,-8.83552 3.93925,-9.8344 2.37321,-3.24556 11.8421,-4.61496 32.02686,-4.63173 22.36074,-0.0186 21.79961,-0.29802 26.19222,13.0431 3.36651,10.22466 3.8884,10.94128 7.9681,10.94128 1.76599,0 3.53503,0.32413 3.9312,0.7203 0.39616,0.39617 2.19303,0.59342 3.99304,0.43834 4.18992,-0.36098 5.83834,1.61718 5.43451,6.52157 l -0.31452,3.81979 -8.5,1 -8.5,1 -3.25894,9.5 c -4.92639,14.36074 -4.24825,14.01818 -27.54683,13.91495 -12.1024,-0.0536 -21.19527,-0.56873 -24.6101,-1.39416 z m 43.01421,-12.08157 c 0.45518,-0.28132 1.2867,-2.17422 1.84783,-4.20644 0.79073,-2.86381 0.71145,-4.00373 -0.35246,-5.06764 -1.65168,-1.65169 -16.22133,-2.74799 -23.00361,-1.73093 -4.06664,0.60983 -5.11082,1.30338 -8.10431,5.38291 -1.88992,2.57558 -3.44737,5.00515 -3.461,5.39904 -0.0506,1.4614 30.73394,1.66901 33.07355,0.22306 z m -38.41057,-4.73347 c 1.81504,-3.73589 1.90596,-4.54088 0.69926,-6.19113 -1.6898,-2.31094 -1.79239,-7.75163 -0.22776,-12.07853 0.98683,-2.72904 0.86693,-3.70646 -0.80606,-6.571 -1.52609,-2.61304 -2.62325,-3.36509 -4.90927,-3.36509 -2.64342,0 -3.1144,0.5104 -4.61377,5 -1.99554,5.97526 -2.23167,12.49646 -0.71337,19.70077 1.36369,6.47071 2.35275,7.79923 5.80637,7.79923 2.1647,0 3.07837,-0.82347 4.7646,-4.29425 z m 39.94074,-19.9057 c 1.1956,-1.19559 1.2013,-1.9898 0.0384,-5.35199 l -1.36548,-3.94806 -16.65074,-0.31578 c -9.1579,-0.17367 -16.63958,0.0513 -16.62594,0.5 0.0136,0.44868 1.57001,2.92159 3.45861,5.49536 4.03565,5.49974 5.02564,5.77244 19.37889,5.33802 7.21367,-0.21833 10.78888,-0.74021 11.76622,-1.71755 z"
       id="path674" />
    <path
       style="fill:#000000"
       d="m 511.5768,97.117168 c 1.00136,4.246952 6.87348,27.334892 15.20636,55.251232 4.59682,15.4 9.09827,30.5875 10.00323,33.75 0.9909,3.46287 2.19978,5.75 3.03922,5.75 2.05078,0 3.39084,3.16001 3.22152,7.59668 -0.19092,5.00245 4.27321,14.96083 7.11026,15.86128 1.16953,0.37119 12.19199,-1.56636 25.35083,-4.45622 55.79179,-12.25263 85.3226,-18.64791 110.78162,-23.9912 10.725,-2.25095 25.35,-5.39579 32.5,-6.98855 26.57541,-5.92001 112.63594,-22.66261 136.22058,-26.50096 2.3213,-0.37778 5.2784,-1.51899 6.5713,-2.53602 5.1391,-4.04238 6.5567,-18.98501 1.8011,-18.98501 -4.1243,0 -5.4531,-4.93391 -1.9833,-7.36427 1.767,-1.2377 1.9566,-1.93715 1.1671,-4.30672 -0.5184,-1.55596 -1.8052,-2.98995 -2.8597,-3.18663 -5.1983,-0.96966 -5.759,-4.70073 -1.3796,-9.18072 4.7893,-4.89936 11.3641,-7.40544 18.9625,-7.22779 6.2327,0.14572 40.9818,-5.01605 45.6074,-6.774697 1.2271,-0.466563 2.6354,-1.570571 3.1294,-2.45335 0.977,-1.745814 13.3668,-4.787046 15.7603,-3.86857 0.7847,0.301129 1.6992,1.405936 2.0322,2.455126 0.4935,1.554819 1.6564,1.936754 6.2881,2.065153 6.3218,0.175256 6.2802,0.178506 14.6826,-1.146318 3.3,-0.520318 10.6992,-1.418717 16.4426,-1.996444 14.3433,-1.442786 17.4305,-3.316101 22.95038,-13.926014 4.7536,-9.136986 7.8882,-12.088758 12.8376,-12.088758 4.9803,0 8.5855,2.543 11.9776,8.448874 2.4674,4.295765 3.0734,6.688896 3.5736,14.112066 0.3312,4.916483 1.5195,11.57126 2.6405,14.788372 3.0131,8.64677 5.0567,20.51322 6.0627,35.20411 1.4097,20.58479 1.906,23.06371 5.7308,28.62395 5.451,7.92438 2.4706,10.69611 -4.6166,4.2933 -4.1789,-3.77539 -7.5208,-9.87081 -8.6178,-15.71817 l -0.6762,-3.60462 -3.1526,1.92232 c -1.7339,1.05728 -4.5662,1.924 -6.294,1.92606 -2.7356,0.003 -3.3493,-0.51571 -4.75,-4.0165 -0.8847,-2.21113 -1.6086,-6.10795 -1.6086,-8.65959 0,-4.25786 0.4523,-5.1135 5.5,-10.40552 6.1892,-6.48874 6.6888,-8.69905 3.5362,-15.64401 -1.7466,-3.84757 -6.8495,-8.25706 -9.567,-8.26692 -0.5669,-0.002 -1.5091,1.26365 -2.0938,2.81267 -0.6952,1.84168 -2.9964,3.90749 -6.6491,5.96896 -3.0723,1.73391 -7.1296,4.5079 -9.01628,6.16444 -3.3063,2.90297 -3.4502,3.32904 -3.9778,11.78105 -0.843,13.50664 -2.3273,18.49464 -8.0578,27.0782 -11.2521,16.85442 -29.398,31.83005 -44.4244,36.66309 -4.0493,1.30242 -5.25,2.15177 -5.25,3.71389 0,4.25111 3.0819,13.6202 6.92,21.03713 3.5812,6.92048 3.9316,8.2343 3.398,12.73968 -0.4201,3.54737 -0.089,6.34772 1.1262,9.5303 1.5573,4.07756 2.0339,4.50687 5.0037,4.50687 4.1716,0 8.2853,3.21027 9.3708,7.31291 0.9858,3.72593 0.3249,3.67919 16.6813,1.17954 16.1366,-2.46606 45.42848,-2.51795 61.94998,-0.10974 39.2396,5.71965 74.835,21.0676 107.05,46.15753 10.1231,7.88413 31.436,29.63237 38.712,39.50259 13.9886,18.97629 24.966,39.67299 32.0775,60.47902 5.2794,15.44556 6.9338,21.87823 9.8961,38.47815 3.0205,16.92621 3.2582,50.86244 0.4728,67.5 -3.8242,22.84244 -11.0671,45.3554 -20.8981,64.95688 -12.1943,24.31363 -33.8394,51.49644 -55.2603,69.3982 -43.2166,36.11664 -97.3706,54.99631 -151.5,52.81728 -94.03538,-3.7855 -173.65505,-63.49617 -202.91022,-152.17236 -12.66654,-38.39391 -14.48983,-76.22328 -5.58698,-115.91822 13.04028,-58.14239 51.64282,-111.58787 101.98062,-141.19279 4.4091,-2.59312 8.171,-4.83332 8.3596,-4.97821 0.1886,-0.14489 -0.7984,-4.90683 -2.1934,-10.5821 -2.6767,-10.8891 -4.6308,-13.82868 -9.193,-13.82868 -2.5018,0 -11.5815,9.63748 -40.0342,42.49379 -3.8073,4.39659 -14.28774,16.32159 -23.28984,26.5 -78.44388,88.69417 -143.11124,163.85526 -143.12349,166.34848 -0.005,1.01324 0.89095,2.98643 1.99095,4.38485 1.1,1.39843 2,3.32681 2,4.28529 0,0.95848 0.675,2.3029 1.5,2.98759 0.825,0.68468 1.5,2.51323 1.5,4.06342 0,1.5502 0.39031,3.05977 0.86736,3.3546 0.85019,0.52545 1.96462,6.7559 2.40868,13.46629 l 0.22396,3.38432 23.5,3.93458 c 25.52131,4.27301 27.69403,5.08287 29.70073,11.07069 2.26426,6.7564 -1.08535,12.94476 -8.01698,14.81125 -4.21531,1.13507 -8.92531,0.68436 -33.18375,-3.17543 -15.71976,-2.50119 -17.5,-2.48262 -17.5,0.18255 0,1.15074 -0.9,3.23643 -2,4.63485 -1.1,1.39843 -2,3.07576 -2,3.7274 0,0.65164 -1.125,2.16298 -2.5,3.35853 -1.375,1.19554 -2.5,2.79994 -2.5,3.56532 0,0.76538 -1.125,2.12873 -2.5,3.02967 -1.375,0.90093 -2.5,2.29113 -2.5,3.08933 0,0.79819 -1.35,2.14938 -3,3.00263 -1.65,0.85324 -3,2.00094 -3,2.55043 0,0.54949 -1.20996,1.45909 -2.68879,2.02134 -1.47884,0.56225 -3.30435,1.90112 -4.05671,2.97525 -0.75235,1.07414 -2.28392,1.95298 -3.40348,1.95298 -1.11956,0 -3.17973,0.9 -4.57815,2 -1.39843,1.1 -3.55181,2 -4.78529,2 -1.23348,0 -2.82886,0.70628 -3.54528,1.56952 -0.73929,0.89078 -2.15585,1.34639 -3.27567,1.05355 -1.08519,-0.28378 -3.14162,0.0608 -4.56985,0.76569 -1.9797,0.97708 -9.84469,1.21537 -33.09678,1.00274 -16.775,-0.1534 -31.4,-0.26561 -32.5,-0.24936 -1.1,0.0163 -2.7875,-0.009 -3.75,-0.0563 -0.9625,-0.0472 -2.65,-0.0858 -3.75,-0.0858 -1.1,0 -3.0125,-0.0109 -4.25,-0.0243 -19.46868,-0.2101 -18.10362,-0.38409 -20.25,2.58104 -13.69123,18.91377 -25.43918,31.92038 -39.2238,43.42619 -35.55938,29.68086 -77.60751,47.58058 -122.13216,51.99119 -9.62499,0.95346 -29.03946,1.14705 -37.14404,0.37039 v -3e-5 c -22.08423,-2.11633 -44.36821,-7.04656 -62.5,-13.82784 C 219.44277,658.0673 169.86287,606.61829 148.78723,543.3684 126.08691,475.24272 138.13906,400.41565 181.13821,342.51374 c 19.90828,-26.80814 48.32893,-50.24098 79.65163,-65.67282 45.05253,-22.19616 95.4597,-28.20405 146.53783,-17.46544 21.13979,4.4444 51.53628,17.0441 70.24335,29.11669 3.72965,2.40692 7.42296,4.37623 8.20737,4.37623 0.7844,0 2.68287,-1.57499 4.21881,-3.49998 2.2132,-2.77376 3.50251,-3.49997 6.21389,-3.5 1.8817,-1e-5 4.27883,0.77606 5.32696,1.72461 1.83191,1.65785 2.14475,1.47322 8.07874,-4.76776 3.39518,-3.57082 6.87811,-7.8344 7.73985,-9.47463 1.04335,-1.98589 3.73808,-4.06905 8.06578,-6.23524 3.57443,-1.78914 7.67802,-4.48914 9.11908,-6 l 2.62012,-2.747 -5.30128,-18 c -2.91571,-9.9 -6.35201,-21.4875 -7.63623,-25.75 l -2.33494,-7.75 h -3.59967 c -4.12853,0 -5.99966,-1.44103 -5.99966,-4.62055 0,-1.66505 0.76738,-2.38909 3.06757,-2.8943 1.68716,-0.37056 3.32539,-1.34562 3.64051,-2.16681 0.31511,-0.82118 -0.6387,-6.06625 -2.11958,-11.6557 -3.13051,-11.81579 -23.46937,-79.89326 -24.69791,-82.95864 M 386.9095,677.39294 c 23.73005,-3.37395 41.67966,-8.75289 61.88034,-18.54362 25.93552,-12.57026 48.55649,-30.18755 67.11432,-52.26888 4.06212,-4.83338 7.38568,-9.22088 7.38568,-9.75 0,-0.52913 -1.26538,-0.96204 -2.81195,-0.96204 -1.98915,0 -3.48722,0.91337 -5.11977,3.12151 -20.06566,27.14025 -55.49309,52.17223 -91.06711,64.34532 -21.41416,7.32773 -33.96093,9.55395 -57.50117,10.20267 -22.92093,0.63165 -36.4238,-0.72973 -55.66322,-5.61205 -24.50387,-6.21826 -50.48914,-18.29468 -69.50297,-32.30087 -14.36968,-10.58517 -36.74481,-33.22293 -45.71993,-46.25658 -18.59,-26.99638 -30.47546,-56.92552 -34.74799,-87.5 -1.88138,-13.46335 -1.62982,-42.90454 0.48275,-56.5 9.8259,-63.23411 46.40982,-115.18354 102.65136,-145.76563 36.16653,-19.66604 83.08372,-27.38251 125.86053,-20.70028 17.36264,2.71225 40.20435,10.27976 57.89276,19.18001 9.93924,5.00111 10.29773,5.09981 11.70387,3.22251 1.86343,-2.48782 1.04336,-3.15358 -10.95716,-8.8954 -30.64906,-14.66448 -57.79589,-20.93822 -90.5,-20.9149 -26.51639,0.0189 -48.42952,3.91577 -72.58158,12.90734 -42.57764,15.85124 -80.19349,47.30986 -103.09134,86.21662 -23.36387,39.6986 -32.63557,84.6392 -26.80968,129.94851 6.44578,50.1304 32.21805,97.51314 70.43495,129.49584 31.16325,26.07968 66.53856,41.85533 106.04765,47.29203 13.03677,1.79394 42.12684,1.81412 54.61966,0.0379 z m 657.8803,-1.4185 c 14.9103,-2.81638 27.393,-6.27117 38.6196,-10.68868 63.7842,-25.09821 109.7608,-76.30593 125.9265,-140.25415 4.9468,-19.56864 6.2322,-31.96574 5.6677,-54.66321 -0.5586,-22.45877 -2.4511,-34.92888 -8.1504,-53.70619 -13.6093,-44.83824 -43.7132,-85.13014 -83.1412,-111.27891 -24.9785,-16.56573 -54.6917,-27.82439 -84.3497,-31.96096 -16.5992,-2.31519 -58.17398,-1.7858 -60.73308,0.77333 -0.2758,0.27579 0.02,1.47488 0.6563,2.66464 0.7896,1.47548 1.6897,1.94565 2.831,1.4789 0.9203,-0.37637 10.8983,-0.91222 22.17328,-1.19077 15.8787,-0.3923 23.1611,-0.1333 32.3043,1.14889 66.9849,9.39347 124.1435,50.21888 152.7077,109.07107 25.9437,53.45293 27.3509,113.73842 3.9165,167.78468 -2.0949,4.83157 -6.5916,13.45599 -9.9926,19.16538 -27.947,46.91571 -71.4121,79.40883 -124.9359,93.39815 -19.1371,5.00179 -24.7889,5.65523 -48.5,5.60745 -18.33448,-0.037 -23.94538,-0.41102 -33.67578,-2.24513 -43.2527,-8.15273 -81.888,-28.65962 -110.8429,-58.83323 -15.0676,-15.70171 -25.46122,-30.82976 -35.43516,-51.57603 -20.58259,-42.81277 -24.87042,-89.95286 -12.44194,-136.78563 12.89976,-48.60868 44.4968,-90.91592 87.5485,-117.22404 7.7529,-4.73764 8.1441,-5.14353 7.1212,-7.38855 l -1.0824,-2.37552 -3.5957,2.14308 c -44.1953,26.34045 -75.99899,65.22121 -91.47417,111.82939 -29.21055,87.97646 3.28455,182.87129 80.00757,233.64454 26.1781,17.32399 55.3271,28.26542 87.3708,32.79574 15.1013,2.13501 46.77058,1.44795 61.49998,-1.33424 z m -662.51634,-12.95494 5.48362,-0.6511 -0.2572,-4.5 c -0.14146,-2.475 -1.63262,-18.45 -3.31369,-35.5 -3.37471,-34.22756 -3.28822,-33.9407 -9.9134,-32.88129 -4.70196,0.75188 -17.3284,-4.44705 -21.0303,-8.65921 l -2.54735,-2.89847 -4.81594,42.09045 c -4.00017,34.96084 -4.58501,42.23676 -3.45265,42.95417 1.56112,0.98906 31.61113,1.02333 39.84691,0.0454 z m 650.76634,-0.79958 c 5.2612,-0.76116 5.2142,0.15805 1.2443,-24.31918 -6.1309,-37.80152 -21.1212,-133.70576 -21.6795,-138.70008 -0.4616,-4.12962 -0.996,-5.27715 -2.6604,-5.7124 -1.1456,-0.29957 -2.3384,-0.13109 -2.6508,0.3744 -0.3124,0.50548 -2.7196,15.45106 -5.3493,33.2124 -2.62968,17.76133 -8.12768,54.30706 -12.21778,81.21272 -4.0901,26.90566 -7.4365,49.93234 -7.4365,51.17041 0,2.04919 0.6052,2.30837 6.75,2.89071 3.7125,0.35183 7.425,0.81888 8.25,1.03788 2.0125,0.53423 30.39528,-0.39217 35.74998,-1.16686 z M 339.18895,655.1184 c 1.03148,-6.99009 4.02902,-33.13912 11.54925,-100.75 1.40703,-12.65 2.55676,-24.0125 2.55494,-25.25 -0.003,-2.11515 -0.41595,-2.25 -6.88829,-2.25 -6.32118,0 -7.0253,0.21413 -8.59833,2.61488 -1.4377,2.1942 -2.24617,2.52842 -5.02524,2.07744 -3.91154,-0.63475 -2.48502,-4.19075 -14.36452,35.80768 -4.41044,14.85 -11.57593,38.7 -15.92332,53 -10.52447,34.61846 -9.93013,30.99214 -5.37801,32.81353 7.62781,3.05205 32.29376,8.99927 39.80216,9.59673 0.65924,0.0525 1.60284,-3.12985 2.27136,-7.66026 z m 67.10089,3.22428 c 10.43378,-2.55832 26.6976,-8.17598 27.51921,-9.50537 0.70926,-1.14762 -1.42608,-6.55428 -13.50569,-34.19618 -9.67706,-22.14413 -10.51747,-23.68436 -12.63327,-23.15332 -1.24662,0.31288 -2.85466,0.1959 -3.57342,-0.25996 -0.71876,-0.45586 -4.68183,-0.90661 -8.80683,-1.00168 -4.125,-0.0951 -8.4,-0.32695 -9.5,-0.51531 -1.72088,-0.29467 -1.96459,0.146 -1.74623,3.15754 0.77342,10.6668 6.34379,64.84542 6.86191,66.7404 0.68572,2.50797 -0.35826,2.59389 15.38432,-1.26612 z m 573.23938,-1.96379 c 0.4391,-2.11337 5.7341,-36.73029 11.7668,-76.92649 6.0326,-40.1962 11.41628,-75.75439 11.96358,-79.0182 0.5473,-3.2638 0.8592,-6.07015 0.693,-6.23632 -0.1661,-0.16617 -6.30588,11.27921 -13.64388,25.43419 -7.338,14.15498 -16.2581,31.36133 -19.8224,38.23633 -3.5643,6.875 -10.4005,19.925 -15.1916,29 -27.301,51.71216 -29.4433,56.20626 -27.4782,57.64314 5.9489,4.34997 45.6844,17.04604 49.9438,15.9578 0.5338,-0.13637 1.3298,-1.97707 1.7689,-4.09045 z m 73.76058,1.96885 c 16.9976,-4.07627 40,-12.91336 40,-15.36722 0,-1.75867 -1.7747,-5.33678 -29.8148,-60.11212 -42.0123,-82.06979 -46.2854,-90.13418 -47.533,-89.70628 -1.5809,0.54222 -1.2511,3.48786 4.3892,39.20628 2.6924,17.05 7.3967,47.2 10.454,67 8.8781,57.4973 9.616,61.502 11.3321,61.4987 0.3699,-7.1e-4 5.3975,-1.13442 11.1725,-2.51936 z M 297.0937,628.8684 c 3.30322,-10.725 8.33426,-27.375 11.18009,-37 2.84583,-9.625 8.28864,-27.68047 12.09514,-40.12327 3.8065,-12.44279 6.92091,-23.35529 6.92091,-24.25 0,-2.83904 -2.39674,-1.70501 -5.60954,2.65419 -1.71024,2.32049 -15.41714,20.86908 -30.45977,41.21908 -35.36671,47.84484 -40.93069,55.54426 -40.93069,56.63973 0,3.10572 38.80703,23.97504 40.12674,21.57902 0.3692,-0.67031 3.37391,-9.99375 6.67712,-20.71875 z m 150.07012,14.06336 c 7.43971,-3.74062 28.48939,-17.22426 29.538,-18.92095 0.87447,-1.41492 -25.95878,-29.50505 -29.05125,-30.41202 -1.57341,-0.46146 -8.11616,-0.99907 -14.53945,-1.19469 -6.42329,-0.19562 -12.54557,-0.63081 -13.60507,-0.96708 -1.05949,-0.33627 -2.83849,-0.26428 -3.95331,0.15999 -1.9147,0.72866 -1.48868,2.01752 7.69212,23.27139 13.83502,32.02854 13.82163,32 15.01094,32 0.59314,0 4.60175,-1.77149 8.90802,-3.93664 z m 478.2713,-5.31515 c 4.2217,-6.77971 75.85468,-144.10009 75.85468,-145.41331 0,-0.3883 -0.972,-1.74063 -2.15998,-3.00518 l -2.1599,-2.29918 -6.6101,6.73473 c -18.783,19.13722 -104.2885,107.4057 -108.1208,111.61457 l -4.4433,4.87985 5.4971,4.94824 c 8.2962,7.46799 18.4338,14.86145 28.9904,21.14309 5.2213,3.10694 9.7213,5.64817 10,5.64719 0.2786,-9.9e-4 1.697,-1.91349 3.1519,-4.25 z m 194.90268,-9.66735 c 4.9985,-3.53053 12.046,-9.16682 15.6611,-12.5251 l 6.573,-6.10596 -50.8911,-50.00934 c -65.9088,-64.767 -70.0407,-68.72631 -71.2761,-68.29939 -0.5712,0.19741 10.9042,23.53393 25.501,51.85893 14.5968,28.325 31.0366,60.44705 36.5329,71.38234 5.4962,10.93529 11.11,21.65146 12.475,23.81371 l 2.4817,3.93137 6.9272,-3.81371 c 3.8099,-2.09754 11.0168,-6.70233 16.0153,-10.23285 z m -870.88686,-4.86372 c 1.75888,-2.09275 42.4287,-56.70608 66.31144,-89.0461 1.40501,-1.90256 1.49915,-2.29461 0.32718,-1.36266 -1.15454,0.91809 -3.38364,1.12685 -7.47254,0.69982 l -5.82718,-0.60858 -18,12.36013 c -21.89539,15.03499 -66.164,45.60228 -69.40932,47.92684 l -2.35466,1.6866 6.38199,7.20004 c 6.31836,7.12824 25.15856,23.92677 26.83482,23.92677 0.47816,0 1.92188,-1.25229 3.20827,-2.78286 z m 244.08084,-14.29373 c 10.19117,-10.05864 11.95833,-12.23183 10.57568,-13.0056 -0.91302,-0.51095 -3.158,-0.90077 -4.98883,-0.86625 -9.46058,0.17835 -28.47699,-0.67468 -29.49488,-1.32308 -0.64134,-0.40853 -2.24003,-0.33448 -3.55262,0.16457 -1.44805,0.55054 -3.0439,0.53949 -4.05815,-0.0281 -0.95395,-0.53385 -3.0286,-0.58384 -4.83238,-0.11644 l -3.16077,0.81904 12.29593,13.21623 c 6.76277,7.26893 12.89991,13.21624 13.63811,13.21624 0.7382,0 6.84826,-5.43447 13.57791,-12.07659 z m 383.25804,-2.68879 c 0.9583,-0.70408 28.2196,-28.48895 65.4772,-66.73462 9.6442,-9.9 24.9572,-25.56991 34.0289,-34.82201 l 16.4939,-16.82201 -74.2828,37.07572 c -40.8555,20.39164 -74.51922,37.6918 -74.80817,38.4448 -1.04096,2.71271 11.56957,21.99269 22.97337,35.1235 7.6961,8.86165 8.1311,9.19419 10.1176,7.73462 z m 276.03978,-7.4872 c 3.8718,-4.53608 8.4868,-10.11527 10.2554,-12.39819 5.0922,-6.57296 14.2054,-21.49709 14.1985,-23.25183 -0.01,-1.99567 1.2892,-1.27357 -40.5663,-22.58272 -19.2101,-9.78008 -38.5274,-19.68501 -42.9274,-22.01096 -4.4,-2.32595 -21.4552,-11.11042 -37.9003,-19.52105 -28.3668,-14.50776 -29.971,-15.19535 -31.2789,-13.4067 -0.7582,1.03694 -1.2531,2.36478 -1.0997,2.95076 0.1534,0.58599 10.2297,10.71969 22.3919,22.51935 12.1621,11.79965 39.2307,38.21642 60.1525,58.70392 20.9217,20.4875 38.4208,37.24884 38.887,37.24742 0.4661,-10e-4 4.0154,-3.71391 7.8873,-8.25 z m -589.53976,-6.91847 c 0.825,0.0649 11.25762,0.26956 23.1836,0.45474 20.67134,0.32096 21.63837,0.25218 20.71481,-1.47351 -1.07437,-2.00747 -2.45502,-2.33662 -3.39841,-0.81018 -1.11607,1.80583 -3.35441,1.04566 -3.68067,-1.25 -0.27351,-1.92457 -0.86212,-2.21817 -4.06955,-2.02991 -3.3804,0.19842 -3.74978,-0.0232 -3.74978,-2.25 0,-2.16519 -0.44036,-2.47009 -3.56739,-2.47009 -3.06008,0 -3.48092,-0.27245 -2.95932,-1.91585 0.67606,-2.13008 -0.91932,-3.58415 -3.93246,-3.58415 -1.5011,0 -1.96871,-0.70141 -2,-3 -0.0344,-2.52444 -0.48105,-3.05058 -2.81786,-3.31904 -2.33386,-0.26811 -2.73282,-0.73624 -2.5,-2.93346 0.21883,-2.06523 -0.24814,-2.74741 -2.22297,-3.2475 -2.03954,-0.51648 -2.44258,-1.15548 -2.1882,-3.46933 0.29751,-2.70632 -1.04082,-4.48221 -3.40282,-4.51536 -0.60005,-0.008 -2.39775,3.2307 -3.99488,7.19805 -1.59713,3.96735 -5.49367,11.87043 -8.65899,17.56239 -3.16531,5.69196 -5.75511,10.60346 -5.75511,10.91444 0,0.31098 1.6875,0.29717 3.75,-0.0307 2.0625,-0.32785 4.425,-0.16509 5.25,0.36169 0.825,0.52679 2.175,0.67248 3,0.32375 0.825,-0.34873 2.175,-0.58092 3,-0.51599 z m 50.72916,0.56688 c -0.33229,-0.33229 -1.19479,-0.36782 -1.91666,-0.0789 -0.79774,0.31923 -0.56078,0.55618 0.60416,0.60417 1.05417,0.0434 1.64479,-0.19293 1.3125,-0.52522 z M 248.00592,567.34784 c 19.68115,-13.4863 39.04642,-26.76545 43.03392,-29.50921 3.9875,-2.74377 7.25,-5.43004 7.25,-5.96949 0,-0.53946 -2.8125,-2.28557 -6.25,-3.88024 -6.8582,-3.18155 -10.34554,-6.11196 -13.66466,-11.48242 l -2.17957,-3.52662 -4.20289,1.83215 c -2.31159,1.00768 -19.72788,8.69207 -38.70288,17.07643 -18.975,8.38435 -37.0875,16.38348 -40.25,17.77584 -3.1625,1.39236 -5.75,2.98295 -5.75,3.53466 0,3.70634 21.71319,38.66946 24.01495,38.66946 0.50446,0 17.01997,-11.03425 36.70113,-24.52056 z m 287.46861,11.27742 c 7.16588,-12.10965 14.80406,-29.36785 18.60503,-42.03744 1.10903,-3.69666 1.72253,-6.87642 1.36334,-7.06612 -3.61505,-1.90929 -3.91722,-1.52751 -7.6548,9.67177 -4.77373,14.30402 -11.53006,28.65898 -19.32868,41.06704 -6.16094,9.80243 -6.87441,11.16153 -5.37184,10.23289 0.43876,-0.27117 1.42978,-0.10242 2.20226,0.375 0.77248,0.47741 1.76691,0.64405 2.20986,0.37029 0.44295,-0.27375 4.03162,-5.9498 7.97483,-12.61343 z m -36.18469,11.24314 c 1.15822,0.61986 2.76966,0.65787 4.23715,0.0999 1.38288,-0.52577 3.02777,-0.53118 3.9537,-0.013 1.05629,0.59113 1.97735,0.41532 2.7591,-0.52664 1.30232,-1.56919 5.45937,1.69085 -68.44995,-53.67983 -52.1922,-39.10084 -48.38679,-36.44422 -50.38166,-35.17227 -0.89009,0.56753 -1.47756,1.99036 -1.30549,3.16184 0.23043,1.56875 -0.21513,2.12997 -1.69098,2.12997 -1.10211,0 -2.32513,0.51986 -2.71782,1.15524 -1.42799,2.31054 -1.38679,7.64906 0.0808,10.46303 0.82658,1.58495 1.50565,3.86091 1.50903,5.05768 0.004,1.48356 9.58426,12.2117 30.10646,33.71445 16.55517,17.34617 30.84267,31.72733 31.75,31.95814 0.90734,0.23082 4.57471,0.33752 8.14971,0.23711 3.575,-0.1004 7.54196,0.17682 8.81547,0.61604 1.34941,0.4654 3.14927,0.35236 4.31392,-0.27095 1.29664,-0.69393 2.41498,-0.72991 3.18453,-0.10243 0.65234,0.53191 4.64226,0.85473 8.86649,0.71737 4.22422,-0.13735 8.23666,0.094 8.91652,0.51423 0.67987,0.42017 2.31565,0.35352 3.63507,-0.14812 1.50116,-0.57074 3.09842,-0.53773 4.268,0.0882 z m -59.06788,-5.75 c -9.38226,-10.30996 -50.21248,-52.76984 -51.04593,-53.08334 -1.84825,-0.6952 -0.48856,3.06959 10.41348,28.83334 l 11.21358,26.5 6.99337,0.27 c 3.84636,0.14851 10.67614,0.38128 15.17731,0.51727 4.50116,0.13599 8.51366,0.57698 8.91666,0.97999 0.40301,0.403 1.16505,0.73274 1.69343,0.73274 0.52838,0 -0.98447,-2.1375 -3.3619,-4.75 z m -34.18212,1.46422 c 0.6875,-0.0262 1.25,-0.29926 1.25,-0.6069 0,-1.29294 -20.33035,-48.11031 -20.72182,-47.71885 -0.23598,0.23599 -1.24573,5.98262 -2.24388,12.7703 -1.55296,10.56063 -1.61422,12.56901 -0.42455,13.91997 0.76463,0.8683 1.39025,2.6908 1.39025,4.05 0,1.35919 0.52936,3.00062 1.17637,3.64763 0.90183,0.90182 0.81054,1.5903 -0.39113,2.95 -0.86213,0.97549 -1.88227,3.69334 -2.26698,6.03967 l -0.69948,4.26604 4.84061,-0.0585 c 10.40144,-0.12578 12.22255,0.0264 12.87103,1.07568 0.36953,0.59792 1.41386,0.77785 2.32073,0.39984 0.90686,-0.37801 2.21135,-0.70868 2.89885,-0.73484 z M 519.2672,577.1184 c 4.92068,-7.48899 14.22445,-25.46218 15.49454,-29.93262 0.71902,-2.53082 3.23851,-1.22701 -47.4719,-24.56624 -38.2635,-17.61059 -36.64226,-16.96844 -49.88389,-19.75815 -8.58346,-1.80834 -10.7859,-1.9725 -12.70252,-0.94675 -1.95513,1.04635 -3.1032,0.90338 -7.32309,-0.91197 -13.07445,-5.62447 -21.41876,-8.22085 -22.24339,-6.92114 -0.44907,0.70778 -0.82338,1.61521 -0.8318,2.01651 -0.023,1.09774 117.0919,88.77036 118.58132,88.77036 0.70871,0 3.58004,-3.4875 6.38073,-7.75 z m 121.83522,0.31213 c 9.17499,-2.44224 12.03191,-5.20344 10.67197,-10.31437 -0.46973,-1.76532 -0.89416,-2.21145 -1.18708,-1.24776 -0.25076,0.825 -0.63717,2.07818 -0.85869,2.78485 -0.31439,1.00293 -0.92429,0.94314 -2.77963,-0.27253 -2.55366,-1.67322 -3.61181,-1.06803 -5.02477,2.87379 -0.62858,1.7536 -0.80311,1.77117 -2.48397,0.25 -2.53388,-2.29312 -3.63743,-2.05203 -5.09858,1.11389 l -1.2692,2.75 -1.51329,-2.25 c -1.90296,-2.82938 -2.97907,-2.83004 -5.26807,-0.003 l -1.8193,2.24675 -1.2515,-2.74675 c -1.3926,-3.05642 -1.97806,-3.29916 -3.73047,-1.54674 -1.76836,1.76835 -1.45885,5.54985 0.55,6.7199 2.55595,1.4887 14.91439,1.27878 21.06258,-0.35777 z m -286.56258,-6.95418 c 0.97459,-0.73983 1.75,-2.64239 1.75,-4.29388 0,-1.87018 0.92336,-3.8329 2.5,-5.31407 1.375,-1.29175 2.5,-3.32545 2.5,-4.51933 0,-1.19389 0.9,-2.98519 2,-3.98067 1.1,-0.99549 2,-2.39702 2,-3.11452 0,-0.7175 1.15702,-2.3774 2.57116,-3.68867 2.939,-2.72519 5.13374,-10.39191 3.45535,-12.0703 -0.58031,-0.58031 -2.95329,-1.07117 -5.2733,-1.09081 -3.59759,-0.0304 -4.4127,-0.4403 -5.54027,-2.7857 -2.86815,-5.96594 -3.83285,-3.43159 -6.0904,16 -1.19809,10.3125 -2.43035,20.4375 -2.73835,22.5 -0.59451,3.98118 0.0399,4.50314 2.86581,2.35795 z m 284.91997,-7.5778 c 2.01849,-0.59398 4.71849,-1.93013 6,-2.96921 l 2.33003,-1.88923 -4.13694,-3.93825 c -7.47309,-7.11417 -15.47051,-6.30656 -21.11306,2.13208 -1.7875,2.67326 -3.25,5.22213 -3.25,5.66414 0,2.80211 12.02132,3.3984 20.16997,1.00047 z m -39.33893,-1.36343 c 0.28178,-1.4858 -0.19048,-1.77011 -2.49168,-1.5 -2.5589,0.30036 -2.83936,0.0387 -2.83936,-2.64884 0,-2.20663 -0.52009,-3.067 -2,-3.30855 -4.24493,-0.69285 -4.81043,-1.13037 -3.50075,-2.70843 1.7963,-2.16441 0.45548,-4.5009 -2.58288,-4.5009 -2.55906,0 -2.59482,-0.0787 -1.08343,-2.38539 1.78467,-2.72375 1.46093,-3.24928 -3.20507,-5.2028 -4.47858,-1.87506 -4.47118,-1.87836 -3.75906,1.68226 1.01281,5.06403 6.25906,15.13356 10.01352,19.21967 3.05305,3.32276 3.9932,3.77336 7.30261,3.5 2.73966,-0.22629 3.89533,-0.82475 4.1461,-2.14702 z m 319.83244,-40.29055 75.1635,-37.37618 -0.7354,-2.75 c -0.4045,-1.5125 -1.4453,-2.88678 -2.313,-3.05396 -1.7309,-0.33351 -158.97271,27.14115 -165.02858,28.83522 -2.0625,0.57697 -3.75,1.25967 -3.75,1.51712 0,0.25744 1.09145,5.07688 2.42545,10.70985 2.76345,11.66898 6.23922,21.7871 11.34028,33.01205 3.09372,6.80777 3.79145,7.69049 5.6327,7.12618 1.15586,-0.35426 35.92515,-17.46338 77.26505,-38.02028 z m 262.95878,31.87383 c 4.5638,-10.10414 8.4684,-21.4324 11.4605,-33.25 1.6015,-6.325 2.913,-12.02522 2.9145,-12.66714 0,-0.64193 -2.1467,-1.62809 -4.7737,-2.19149 -7.7277,-1.65728 -162.3795,-23.31883 -162.8838,-22.81456 -0.1022,0.10221 21.2478,11.208 47.4445,24.67952 81.8763,42.10451 101.3341,51.99367 102.3024,51.99367 0.5162,0 2.1072,-2.5875 3.5356,-5.75 z m -812.64331,1.80081 c 1.93181,-4.6638 0.74489,-5.39946 -1.64588,-1.02012 -1.52945,2.80161 -1.78577,3.96931 -0.87132,3.96931 0.71258,0 1.84532,-1.32714 2.5172,-2.94919 z m 237.28815,-0.80081 c 0.86739,-0.9625 1.87589,-2.94755 2.24111,-4.41123 0.64094,-2.56867 0.46107,-2.70199 -5.17209,-3.83362 -3.20987,-0.64481 -6.89707,-1.42071 -8.19379,-1.7242 -2.17043,-0.50799 -2.26315,-0.37521 -1.16746,1.67209 1.81343,3.38844 8.10052,10.04696 9.4865,10.04696 0.67576,0 1.93833,-0.7875 2.80573,-1.75 z m 65.4879,-4 c 0.26963,-0.81874 -0.65212,-1.25 -2.67167,-1.25 -2.97091,0 -3.86026,0.88974 -2.37449,2.37551 1.07414,1.07414 4.57922,0.29235 5.04616,-1.12551 z M 214.02045,537.55785 c 15.27316,-6.7708 35.21424,-15.59618 44.3135,-19.61196 l 16.54412,-7.30141 0.0221,-6.63804 c 0.0263,-7.91424 2.41572,-13.94735 7.94975,-20.07286 3.483,-3.85526 3.59186,-4.14612 1.36267,-3.64077 -1.33251,0.30208 -12.54774,2.77787 -24.92274,5.50175 -45.70826,10.06091 -80.5894,18.02982 -83.74495,19.13227 -2.58725,0.90391 -3.14814,1.57026 -2.76735,3.28763 0.26268,1.18466 1.12997,5.07894 1.92732,8.65394 2.52335,11.31366 9.87615,33 11.18873,33 0.19661,0 12.85369,-5.53975 28.12686,-12.31055 z m 528.21633,10.87447 c 1.60196,-1.93025 -0.32263,-5.56392 -2.94694,-5.56392 -2.26813,0 -4.2527,3.17792 -3.38943,5.42755 0.75481,1.967 4.7458,2.05289 6.33637,0.13637 z M 659.019,547.26423 c -0.33229,-0.33229 -1.19479,-0.36782 -1.91666,-0.0789 -0.79774,0.31923 -0.56078,0.55618 0.60416,0.60417 1.05417,0.0434 1.64479,-0.19293 1.3125,-0.52522 z m -47.72916,-5.26098 c 0,-2.77322 -4.26944,-5.87303 -9.68618,-7.03262 -3.1976,-0.68452 -6.60132,-1.46788 -7.56382,-1.7408 -1.39693,-0.3961 -1.75,0.12898 -1.75,2.60256 0,3.44926 0.48899,3.7565 8.92508,5.60771 6.89526,1.51309 10.07492,1.69082 10.07492,0.56315 z m -71.3656,-8.6051 c 1.51715,-4.65863 2.4916,-8.73708 2.16546,-9.06322 -1.13517,-1.13517 -11.3332,-3.59651 -16.29986,-3.93404 -2.75,-0.18689 -17.31052,-2.85816 -32.35672,-5.93615 -15.04619,-3.07799 -27.87119,-5.59144 -28.5,-5.58545 -0.6288,0.006 8.98172,4.66141 21.35672,10.34535 12.375,5.68395 28.35,13.0995 35.5,16.479 7.15,3.3795 13.53458,6.14909 14.18797,6.15465 0.65339,0.006 2.42928,-3.8015 3.94643,-8.46014 z m 44.8656,1.47025 c 1.14099,-1.84617 -0.48952,-3.07598 -2.5887,-1.95254 -1.08203,0.57909 -1.70316,1.4803 -1.3803,2.00271 0.77112,1.24769 3.18574,1.21716 3.969,-0.0502 z M 315.0664,521.04536 c 2.23631,-1.77119 5.06937,-5.34809 6.29568,-7.94866 1.22632,-2.60057 3.05978,-5.65523 4.07437,-6.78814 1.58589,-1.77083 1.66994,-2.43747 0.59905,-4.7515 -0.68512,-1.48042 -2.03316,-2.94632 -2.99566,-3.25756 -0.9625,-0.31123 -1.75,-1.43556 -1.75,-2.49849 0,-1.06294 -0.51683,-1.93261 -1.14851,-1.93261 -2.45537,0 -39.85149,17.37933 -39.85149,18.52042 0,1.86022 3.89643,6.39201 8.13708,9.46392 3.5865,2.59805 4.40162,2.75807 13.19802,2.59102 8.9288,-0.16956 9.56913,-0.33146 13.44146,-3.3984 z m 363.22344,1.97802 c 0,-1.76035 -1.86525,-3.91193 -4.90451,-5.65739 -0.9704,-0.5573 -1.17193,-0.43029 -0.65204,0.41091 0.42228,0.68326 -0.008,2.05834 -0.98161,3.13366 -1.40055,1.54759 -1.46748,2.00506 -0.34796,2.37844 1.34482,0.44852 4.61141,1.22757 6.13612,1.46339 0.4125,0.0638 0.75,-0.71425 0.75,-1.72901 z m -334.58179,-0.76197 c 2.2344,-0.85742 1.96603,-2.39301 -0.41821,-2.39301 -1.11112,0 -2,0.66666 -2,1.5 0,1.68305 0.18314,1.75068 2.41821,0.89301 z m 319.47273,-2.02442 c -0.86645,-1.04401 -1.51151,-1.14803 -2.2902,-0.36934 -0.7787,0.7787 -0.67734,1.33537 0.35987,1.9764 2.03285,1.25637 3.37761,0.13681 1.93033,-1.60706 z m -137.9882,-0.79918 c -0.88813,-0.88813 -37.07686,-9.57369 -54.40274,-13.05705 -9.9,-1.99039 -18.9,-3.82064 -20,-4.06724 -1.1,-0.24659 -0.0269,0.45968 2.38476,1.5695 2.41163,1.10981 13.21163,3.82457 24,6.0328 10.78838,2.20823 25.46524,5.29239 32.61524,6.85368 13.44674,2.93626 16.13669,3.40226 15.40274,2.66831 z m -224.97369,-19.9955 c 10.68599,-4.72928 19.67926,-8.8489 19.98506,-9.1547 0.3058,-0.3058 -0.4993,-1.35202 -1.78912,-2.32493 -2.10563,-1.58828 -2.20623,-1.99602 -0.98506,-3.99251 1.20222,-1.96552 1.13085,-2.39348 -0.61499,-3.68749 -1.67786,-1.24362 -1.78731,-1.76453 -0.72735,-3.46179 1.70846,-2.73568 -0.67861,-3.60433 -5.73868,-2.08829 -2.08503,0.62469 -5.08874,1.14568 -6.67493,1.15776 -7.21517,0.0549 -19.39585,9.21703 -23.30224,17.52752 -2.39419,5.09342 -2.9957,16.04519 -0.83174,15.14381 0.6875,-0.28637 9.99307,-4.39009 20.67905,-9.11938 z m 310.06537,7.17609 c -0.0116,-2.5967 -2.12595,-8.75 -3.00663,-8.75 -1.2158,0 -7.98779,5.97248 -7.98779,7.04474 0,0.46066 1.9125,1.26585 4.25,1.78931 5.98266,1.33978 6.75073,1.33021 6.74442,-0.084 z m 30.91403,-5.15673 c 2.37868,-2.4237 4.02804,-4.887 3.66525,-5.47402 -0.67515,-1.09241 -9.77646,-4.11925 -12.38605,-4.11925 -1.08145,0 -1.30955,0.82494 -0.89862,3.25 0.69498,4.10128 3.48817,10.75 4.51618,10.75 0.4281,0 2.72456,-1.98303 5.10324,-4.40673 z m -48.09512,-0.84799 c -0.22357,-2.31562 0.0744,-3.16378 1.04022,-2.96077 3.00188,0.631 5.01157,-0.8592 4.82844,-3.58032 -0.13156,-1.95477 0.23371,-2.60182 1.31801,-2.33479 3.62006,0.89153 4.50915,0.54228 4.75905,-1.8694 0.52158,-5.03363 -1.14492,-5.66754 -6.38412,-2.42838 -4.84839,2.99752 -13.37493,12.43377 -13.37493,14.8019 0,0.82563 1.47995,1.3566 4.06333,1.45783 4.00815,0.15705 4.05909,0.11513 3.75,-3.08607 z m 245.57557,1.20927 c 6.66108,-1.12499 33.48608,-5.82583 59.61108,-10.4463 26.125,-4.62048 55.825,-9.83416 66,-11.58597 10.175,-1.7518 19.3473,-3.49553 20.383,-3.87494 1.8575,-0.68053 -7.8347,-2.36995 -97.383,-16.97465 -62.6678,-10.22068 -63.9854,-10.42061 -64.60291,-9.8031 -0.31252,0.31252 -1.02449,5.66721 -1.58215,11.89931 -0.97389,10.88357 -0.61764,28.09402 0.78826,38.0811 0.79604,5.65486 0.0391,5.53289 16.78572,2.70455 z m -396.3889,0.0299 c -3.04777,-2.00127 -15,-4.53966 -15,-3.18567 0,0.52671 3.2625,1.63719 7.25,2.46773 9.03722,1.88234 9.60312,1.93476 7.75,0.71794 z m 757.02236,-10.69272 c 1.1969,-11.11138 0.9441,-26.3149 -0.6499,-39.08141 l -0.6605,-5.28969 -4.606,0.61439 c -6.1214,0.81651 -34.3593,5.0471 -86.106,12.90037 -23.375,3.54747 -51.1625,7.67608 -61.75,9.17468 l -19.25,2.72474 v 3.24469 c 0,2.9773 0.309,3.29359 3.75,3.83791 2.0625,0.32626 20.175,2.83908 40.25,5.58403 20.075,2.74495 56.525,7.87482 81,11.39972 24.475,3.52491 45.0088,6.45165 45.6306,6.50388 0.7172,0.0602 1.5918,-4.18631 2.3918,-11.61331 z m -994.7007,4.13362 c 62.73675,-14.13625 82.25567,-18.40737 84.17834,-18.41987 1.1,-0.007 4.7,-1.35962 8,-3.00548 3.3,-1.64587 6.6375,-2.99417 7.41666,-2.99624 0.77917,-0.002 1.18353,-0.2369 0.89859,-0.52185 -0.61179,-0.61178 -8.63553,-1.56162 -42.31525,-5.00919 -13.75,-1.4075 -39.75697,-4.12919 -57.79326,-6.04819 -18.03629,-1.91901 -33.22379,-3.22302 -33.75,-2.8978 -1.06934,0.66089 -1.3091,31.89505 -0.30876,40.22327 0.51703,4.30452 0.9786,5.25 2.56297,5.25 1.0628,0 15.06262,-2.9586 31.11071,-6.57465 z m 355.6669,4.8524 c 2.65416,-2.27255 2.54009,-3.27775 -0.37193,-3.27775 -2.25255,0 -4.21504,3.06826 -2.84121,4.44209 0.80561,0.80561 0.99079,0.7385 3.21314,-1.16434 z M 548.51552,486.3684 c 0.39913,-4.4 0.46934,-10.7179 0.15602,-14.03977 l -0.56967,-6.03977 -16.15602,-0.14969 c -8.88581,-0.0823 -16.94351,-0.16443 -17.90601,-0.18245 -2.09292,-0.0392 -13.92075,-0.0861 -16.75,-0.0665 -1.1,0.008 -3.125,0.0246 -4.5,0.0377 -1.375,0.0131 -3.0625,-0.0228 -3.75,-0.0798 -0.6875,-0.057 -2.15,-0.0837 -3.25,-0.0593 -1.1,0.0244 -4.925,0.019 -8.5,-0.0118 -4.4868,-0.0387 -12.94189,1.47885 -27.29878,4.89979 -11.43932,2.72576 -21.07682,5.23397 -21.41666,5.57381 -0.33985,0.33984 0.6946,0.61544 2.29877,0.61243 1.60417,-0.003 19.56667,2.92266 39.91667,6.50148 39.36609,6.92306 69.0767,11.40154 74,11.15451 l 3,-0.15052 z m 14.55986,-10.2245 c -0.15705,-5.28736 -0.73554,-9.75505 -1.28554,-9.92819 -2.55497,-0.80431 -3.25081,1.73255 -3.72853,13.59317 l -0.50106,12.44049 2.90033,-3.24604 c 2.82854,-3.16569 2.89327,-3.48403 2.6148,-12.85943 z m 89.65743,12.78751 c 0.96412,-1.06534 1.42626,-2.46558 1.02697,-3.11165 -1.04268,-1.68709 -10.24464,-5.57556 -15.14454,-6.39961 -3.65819,-0.61522 -4.3197,-0.43094 -5.34762,1.48975 -0.94807,1.77149 -0.87261,2.49224 0.39347,3.75832 1.42199,1.42199 1.73805,1.41123 3.42636,-0.11667 2.43842,-2.20674 3.20239,-2.12367 3.20239,0.34823 0,2.49416 2.51457,3.61637 4.46893,1.9944 1.8111,-1.50308 3.53107,-0.5127 3.53107,2.03323 0,2.48846 2.19278,2.49043 4.44297,0.004 z m -69.78805,-10.60614 c 0.93027,-2.42426 -0.36779,-2.86191 -1.60909,-0.54252 -0.77397,1.44619 -0.78919,2.08565 -0.0496,2.08565 0.58661,0 1.33303,-0.69441 1.65872,-1.54313 z m 7.7445,-7.34233 c -0.58555,-0.66974 -5.39942,2.88271 -5.39942,3.98457 0,0.57915 1.29069,0.006 2.86821,-1.27306 1.57752,-1.27933 2.71656,-2.49951 2.53121,-2.71151 z m -152.56153,-0.16468 c 9.63537,-2.22757 18.1762,-4.418 18.97961,-4.86761 0.82424,-0.46127 -3.93772,-0.85706 -10.92838,-0.9083 -6.81402,-0.05 -20.60162,-0.24634 -30.63912,-0.43641 -10.0375,-0.19008 -18.25,-0.14589 -18.25,0.0982 0,0.24408 0.7875,1.02559 1.75,1.7367 1.42992,1.05644 1.51427,1.53182 0.46121,2.59903 -1.05804,1.07226 0.46384,1.68746 8.5,3.43605 5.38383,1.17146 10.42307,2.18901 11.1983,2.26121 0.77523,0.0722 9.293,-1.69129 18.92838,-3.91886 z m 555.16209,0.14891 c 0,-2.29167 -0.7879,-3.36709 -3.75,-5.11854 -5.7296,-3.38782 -145.45148,-71.98103 -147.87384,-72.59522 -1.88776,-0.47865 -2.63016,0.66502 -6.67849,10.28824 -6.78491,16.12829 -12.9164,39.508 -10.89212,41.53228 0.54544,0.54544 14.64983,3.23769 31.34305,5.98277 16.6933,2.74508 53.9764,8.95399 82.8514,13.79758 28.875,4.84359 53.0625,8.85323 53.75,8.91032 0.7366,0.0612 1.25,-1.08776 1.25,-2.79743 z m -682.99998,0.90123 c 1.82796,-1.18133 0.24908,-1.18133 -2.5,0 -1.31874,0.56668 -1.48906,0.87815 -0.5,0.9144 0.825,0.0302 2.175,-0.38125 3,-0.9144 z m 362,-8.1478 c 3.575,-4.47101 14.3029,-17.6293 23.83979,-29.24065 9.53688,-11.61136 17.48679,-21.56155 17.66647,-22.11155 0.17968,-0.55 0.60511,-2.26643 0.9454,-3.81429 0.41685,-1.89612 1.53496,-3.13369 3.42712,-3.7933 3.4066,-1.18755 23.77017,-25.24576 23.30488,-27.53319 -0.36917,-1.81491 2.54523,-5.35922 4.40675,-5.35922 1.45266,0 2.91596,-1.64451 36.92721,-41.5 24.40288,-28.5961 54.04694,-63.10704 78.48236,-91.3674 16.3936,-18.95975 18.8085,-21.95375 19.5232,-24.20555 0.3294,-1.03805 -0.5778,-8.3088 -2.016,-16.15721 -3.4638,-18.90155 -3.7149,-19.15824 -17.8948,-18.29499 -33.06491,2.01294 -49.96057,4.31795 -91.61238,12.49831 -50.29744,9.87835 -92.52055,18.14304 -104.5,20.45469 -29.57602,5.70722 -80.81084,16.6659 -82.82997,17.7166 -2.27168,1.18212 -18.51823,12.46829 -22.44597,15.59278 l -2.27593,1.81049 5.5782,18.97614 c 3.068,10.43687 7.76385,26.17614 10.43521,34.97614 2.67136,8.8 7.62456,25.225 11.0071,36.5 8.19219,27.307 8.71836,28.68488 11.20183,29.33432 1.71966,0.44971 1.96574,1.03856 1.40223,3.35555 -1.15497,4.74899 -0.73859,6.99547 4.08415,22.03526 3.39256,10.57975 5.14712,14.67235 6.43462,15.00904 2.39943,0.62746 3.04145,2.70179 1.49204,4.82072 -1.05578,1.44387 -0.95105,2.814 0.59984,7.8472 1.03343,3.35385 2.44619,6.54791 3.13946,7.09791 2.04151,1.61961 4.67719,9.72298 4.67719,14.38 0,2.37223 0.99455,7.3776 2.21012,11.12304 l 2.21013,6.80988 7.53987,-0.19961 c 4.34724,-0.11509 8.54528,0.31444 9.9143,1.0144 1.30593,0.66772 2.9969,0.97516 3.75772,0.6832 0.76081,-0.29195 2.48899,0.19366 3.84039,1.07913 1.35141,0.88548 3.54283,1.60996 4.86984,1.60996 1.327,0 2.92793,0.62076 3.55761,1.37948 0.62968,0.75872 2.4954,1.64959 4.14604,1.97972 1.65065,0.33013 3.2637,1.28436 3.58457,2.12052 1.07287,2.79586 2.82617,1.55565 9.36941,-6.62752 z m 393.49996,0.17556 c 18.15,-2.71765 49.65,-7.43557 70,-10.48428 40.0744,-6.00369 60.6309,-9.3411 61.2308,-9.94096 0.7418,-0.74183 -4.0523,-19.26041 -7.7931,-30.10252 -4.6521,-13.48379 -8.7255,-22.5 -10.1651,-22.5 -0.5945,0 -5.624,2.31188 -11.1767,5.13751 -19.164,9.75199 -135.5722,71.53687 -136.5126,72.45546 -0.6917,0.67573 0.2409,0.55202 34.4167,-4.56521 z m -748.99792,2.97146 c 2.03746,-0.77464 2.48686,-1.45884 1.98884,-3.02796 -0.45169,-1.42313 0.0401,-2.58064 1.65042,-3.8846 1.95488,-1.58297 2.09785,-2.09357 0.96757,-3.45548 -1.14404,-1.37849 -0.96785,-1.7343 1.28244,-2.58986 1.43477,-0.5455 2.60869,-1.62525 2.60869,-2.39944 0,-0.77419 -3.7125,-4.07391 -8.25,-7.33272 -25.90354,-18.60378 -93.7069,-66.91676 -102.10126,-72.75179 -5.41819,-3.76626 -10.14591,-6.44491 -10.50605,-5.95256 -6.82581,9.33167 -21.14269,35.78601 -21.14269,39.06689 0,0.69153 5.0625,3.69156 11.25,6.66674 48.20344,23.17802 113.42173,55.02212 114.2,55.76039 1.25206,1.18771 4.78095,1.14405 8.05204,-0.0996 z M 1056.1229,452.0145 c 16.3168,-8.71964 39.3419,-20.93757 51.1669,-27.15096 45.2639,-23.78371 68.536,-36.21719 69.4839,-37.12285 1.2268,-1.17222 -2.5446,-8.13798 -11.03,-20.37229 -6.6199,-9.54463 -18.9969,-24.5 -20.276,-24.5 -0.6749,0 -33.875,31.89486 -102.5308,98.5 -11.9056,11.55 -21.6467,21.41456 -21.6468,21.92125 -4e-4,1.24705 3.0832,4.57875 4.2378,4.57875 0.5104,0 14.2782,-7.13426 30.595,-15.8539 z M 302.2065,466.469 c -0.58863,-0.56424 -109.48871,-53.44926 -114.74957,-55.7257 -2.3831,-1.0312 -4.7325,-1.8749 -5.22089,-1.8749 -1.88881,0 -10.9462,34.3349 -10.9462,41.49503 0,2.86842 -0.0843,2.85579 63,9.43771 26.125,2.72576 51.1,5.37088 55.5,5.87804 9.63206,1.11024 12.97262,1.32273 12.41666,0.78982 z m 687.81752,-5.8506 c -1.2859,-1.7875 -27.879,-28.675 -59.0959,-59.75 l -56.758,-56.5 -5.1902,5.5313 c -11.0315,11.75672 -27.5159,36.37426 -26.36507,39.37328 0.30445,0.79338 8.34337,5.25739 17.86427,9.92002 9.5209,4.66263 33.0607,16.23305 52.3107,25.71203 71.7341,35.32293 79.0065,38.89355 79.2861,38.92806 0.1573,0.0194 -0.7661,-1.42719 -2.0519,-3.21469 z m -489.23418,0.13358 c 0.55,0.067 11.50174,0.26057 24.33721,0.43017 l 23.33721,0.30837 -0.58721,-2.93606 c -0.32297,-1.61484 -0.58721,-4.45481 -0.58721,-6.31106 0,-2.82921 -0.36387,-3.37726 -2.25,-3.38894 -4.44877,-0.0276 -50.78321,11.37529 -49.51449,12.18546 0.69547,0.44411 1.93949,0.53359 2.76449,0.19886 0.825,-0.33473 1.95,-0.55379 2.5,-0.4868 z m 61.49467,-2.63358 c -0.003,-2.0625 -0.87991,-8.925 -1.94885,-15.25 -5.39338,-31.91313 -18.95395,-63.887 -37.55534,-88.55014 -6.98401,-9.25992 -19.50016,-23.44986 -20.6838,-23.44986 -0.40498,0 -1.24697,0.95416 -1.8711,2.12035 -1.00473,1.87736 -0.50794,2.76553 4.33482,7.75 26.71111,27.49269 46.71539,69.67956 51.74738,109.12965 1.53442,12.0296 1.52468,12 3.95083,12 1.68166,0 2.03047,-0.64561 2.02606,-3.75 z m -46.99467,-5.41618 30.5,-7.39528 -0.28889,-2.96927 c -0.74327,-7.63946 -10.27231,-38.8638 -12.55799,-41.14949 -0.5196,-0.51959 -3.22193,0.61053 -44.65312,18.67403 -14.025,6.11472 -39.675,17.2404 -57,24.72372 -17.325,7.48332 -31.815,13.87073 -32.19999,14.19425 -0.38499,0.32352 6.06337,0.58382 14.32969,0.57845 8.26633,-0.005 15.40144,0.21963 15.85582,0.5 0.45437,0.28037 13.13101,0.44881 28.1703,0.37432 l 27.34418,-0.13545 z m 70.75872,6.91618 c 1.59253,-1.98348 -3.85114,-19.14412 -6.21741,-19.59982 -1.70347,-0.32806 -1.79859,0.18574 -1.20265,6.49679 0.35591,3.76916 0.65032,8.54053 0.65423,10.60303 0.007,3.46289 0.22742,3.75 2.88466,3.75 1.58266,0 3.32918,-0.5625 3.88117,-1.25 z m 476.98534,-90.75 c 29.149,-58.92412 30.5008,-61.79475 29.7048,-63.08271 -1.2429,-2.01102 -23.3911,-10.18116 -36.1478,-13.33434 -17.2912,-4.27404 -15.8778,-4.32495 -17.1148,0.61646 -0.5921,2.36532 -3.3398,18.25059 -6.106,35.30059 -6.951,42.84386 -19.0051,118.09567 -19.7483,123.28566 -0.5126,3.57984 -0.2415,4.68178 1.6459,6.69086 l 2.2596,2.40521 10.0151,-20.19087 c 5.5084,-11.10497 21.4795,-43.36586 35.4915,-71.69086 z m -656.43055,83.60756 c 5.60257,-2.41584 19.18649,-8.30722 30.18649,-13.09196 11,-4.78474 31.25,-13.56884 45,-19.52022 35.94976,-15.56005 47.76871,-20.8641 48.80874,-21.90413 0.55518,-0.55518 -0.55398,-3.80853 -2.81397,-8.25382 -4.71788,-9.27986 -18.1956,-29.7854 -20.04308,-30.49434 -0.7964,-0.30561 -14.61014,8.66233 -32.17365,20.88728 -39.27967,27.34033 -72.51941,50.3264 -78.27804,54.13115 -6.30591,4.16632 -13,9.61882 -13,10.58879 0,0.44903 0.94034,1.06233 2.08966,1.36288 1.60238,0.41903 1.93238,1.04198 1.4152,2.67149 -0.54821,1.72726 -0.10936,2.33833 2.34454,3.26457 1.66046,0.62676 3.23149,1.95207 3.49118,2.94515 0.66103,2.52779 1.49923,2.36065 12.97293,-2.58684 z m 183.68649,1.86735 c 0,-0.77389 -0.64751,-2.88483 -1.43891,-4.69099 -0.7914,-1.80616 -1.69998,-4.52142 -2.01906,-6.03392 -0.33793,-1.6019 -1.24309,-2.75 -2.16808,-2.75 -0.87336,0 -1.38033,0.5625 -1.1266,1.25 0.25373,0.6875 1.2368,3.725 2.18459,6.75 0.94779,3.025 1.91016,6.09102 2.13859,6.81338 0.51601,1.63173 2.42947,0.57754 2.42947,-1.33847 z m 469.92366,-33.298 c 17.9169,-17.46909 43.0512,-41.86785 55.8538,-54.21945 12.8026,-12.35161 24.0094,-23.5598 24.9039,-24.9071 1.5904,-2.39557 1.5291,-2.53664 -2.7776,-6.39046 -10.6612,-9.54024 -37.589,-27.6599 -41.1056,-27.6599 -0.9107,0 -5.6772,9.42897 -45.3813,89.77317 -21.7361,43.9847 -28.6179,58.74346 -26.6804,57.21946 1.436,-1.12955 17.2702,-16.34662 35.1872,-33.81572 z m -77.21148,23.57309 c -5.2408,-11.97225 -65.71,-132.22586 -66.6537,-132.55259 -3.2731,-1.1332 -39.0585,26.5373 -39.0585,30.2014 0,0.84573 107.8508,109.60119 108.6895,109.60119 0.108,0 -1.2318,-3.2625 -2.9773,-7.25 z m 36.23978,-44.25 c 4.475,-28.05 9.9393,-62.025 12.1431,-75.5 2.2038,-13.475 4.2697,-27.26704 4.591,-30.64898 l 0.5842,-6.14897 -8.8851,-0.63017 c -4.8869,-0.3466 -11.0247,-0.76682 -13.6396,-0.93383 -5.0744,-0.32408 -25.13738,0.89743 -30.42738,1.85253 -3.0273,0.54656 -3.1564,0.75512 -2.6572,4.29194 0.2886,2.04461 5.8698,35.945 12.4026,75.3342 9.64828,58.17317 12.37928,72.77274 14.54878,77.77507 1.4689,3.3871 2.7906,6.03458 2.9371,5.88328 0.1465,-0.15129 3.9276,-23.22507 8.4025,-51.27507 z m -687.45581,43.92908 c 0.002,-1.24051 0.71774,-1.95109 2.00385,-1.99073 2.98157,-0.0919 5.5,-1.4743 5.5,-3.01903 0,-0.75169 -6.8625,-8.88483 -15.25,-18.07364 -17.39603,-19.05799 -68.07204,-74.15808 -78.4109,-85.25627 l -6.90356,-7.41058 -6.05131,5.41058 c -9.51439,8.507 -25.38423,26.15223 -25.38423,28.22402 0,0.34356 5.2875,4.35007 11.75,8.90337 6.4625,4.5533 33.257,23.6481 59.54335,42.43288 42.64498,30.47502 48.0845,34.07629 50.49615,33.43132 1.75089,-0.46826 2.70415,-1.40225 2.70665,-2.65192 z m 49.17794,-11.67908 c 5.16409,-5.38725 6.29754,-7.28532 8.21093,-13.75 1.22091,-4.125 4.19804,-13.8 6.61585,-21.5 2.41782,-7.7 6.84488,-22.1 9.83791,-32 2.99304,-9.9 8.47012,-27.675 12.1713,-39.5 8.75665,-27.9769 8.6743,-27.30895 3.61615,-29.33282 -7.58903,-3.03653 -39.78012,-10.34664 -40.85028,-9.27648 -0.56712,0.56713 -14.27595,142.04986 -14.27595,147.33576 0,2.57369 0.41496,3.27354 1.94098,3.27354 1.06754,0 2.2191,-0.45 2.55902,-1 0.93406,-1.51136 2.5,-1.19817 2.5,0.5 0,2.61044 1.52097,1.66901 7.67409,-4.75 z m -27.12466,2.51327 c 1.20576,-1.64897 1.3669,-1.64897 3.18899,0 5.64796,5.11133 5.91045,3.73506 12.82045,-67.21825 3.45725,-35.49976 6.60015,-68.21404 6.98422,-72.69839 l 0.6983,-8.15337 -7.80884,-0.73175 c -7.40435,-0.69385 -23.30827,-0.13163 -33.68255,1.1907 l -4.75,0.60545 v 5.36294 c 0,4.58139 7.13345,95.36345 9.90082,126.0002 1.03223,11.42759 3.09594,16.83239 6.06701,15.8894 1.02512,-0.32536 2.15328,-0.12325 2.50703,0.44912 0.95774,1.54966 2.64298,1.26177 4.07457,-0.69605 z m 228.75486,-3.40221 c 1.75764,-0.73513 3.53321,-1.22961 3.94571,-1.09883 1.66703,0.52849 0.27812,-4.76767 -10.68416,-40.74072 -6.28878,-20.63683 -15.59408,-51.37655 -20.67843,-68.31048 -6.36067,-21.18479 -9.64674,-30.69882 -10.53449,-30.5 -0.70961,0.15893 -7.61615,6.56395 -15.34788,14.23337 l -14.05768,13.94441 5.33415,5.55559 c 25.12205,26.16501 39.55849,52.45741 53.83966,98.0556 2.32548,7.425 4.39898,12.75697 4.60777,11.84883 0.2088,-0.90814 1.81771,-2.25264 3.57535,-2.98777 z M 339.3366,430.6184 c -0.40843,-1.7875 -2.10287,-5.95 -3.76541,-9.25 -1.66254,-3.3 -4.49192,-9.375 -6.28752,-13.5 -1.79559,-4.125 -11.56786,-25.5 -21.71613,-47.5 -10.14828,-22 -19.82255,-43.18275 -21.49839,-47.07278 -4.93254,-11.44968 -4.38207,-11.15601 -12.88499,-6.87401 -8.69683,4.37966 -21.08741,11.97549 -27.4106,16.8036 l -4.56257,3.48379 3.28942,3.82228 c 1.80918,2.10225 16.34967,18.00061 32.3122,35.3297 42.86708,46.53693 58.79989,63.93694 60.47723,66.04638 2.21566,2.78643 2.88208,2.36675 2.04676,-1.28896 z m 71.77838,-8.93376 c 6.42117,-4.50107 24.04986,-16.71219 39.17486,-27.13581 37.43651,-25.79996 52.60771,-36.50284 53.83006,-37.97567 0.75564,-0.9105 -0.57341,-3.03529 -4.98713,-7.97303 -3.30953,-3.70246 -6.44189,-6.73173 -6.9608,-6.73173 -0.5189,0 -19.71717,17.61099 -42.6628,39.13554 -47.88863,44.92275 -51.9931,48.86446 -50.88228,48.86446 0.44728,0 6.06692,-3.6827 12.48809,-8.18376 z m 579.68824,-53.43189 c -5.2531,-31.2864 -10.4822,-61.89773 -11.6201,-68.02519 l -2.0688,-11.14084 -6.1623,1.4235 c -14.0885,3.25451 -21.6622,5.6399 -21.6622,6.82264 0,0.68495 3.5576,10.19815 7.9057,21.14045 4.3482,10.9423 11.7939,29.79509 16.5462,41.89509 14.7243,37.49062 26.0028,65.37863 26.31448,65.06694 0.164,-0.16403 -3.99978,-25.8962 -9.25298,-57.18259 z m -568.71087,18.9368 c 51.08227,-69.56067 47.42358,-64.3438 46.17803,-65.8446 -3.61352,-4.35403 -36.88603,-22.27104 -38.96827,-20.98414 -1.06442,0.65785 -7.31345,19.97861 -20.54065,63.50759 -4.76317,15.675 -10.64286,34.9234 -13.06597,42.77422 -2.42311,7.85083 -4.40565,14.70124 -4.40565,15.22315 0,2.46303 20.36499,-20.46305 30.80251,-34.67622 z m -84.72055,16.9731 c -3.97187,-50.53101 -9.21981,-112.0606 -9.68698,-113.57509 -0.44878,-1.45485 -1.22164,-1.66055 -4.22216,-1.12371 -13.19811,2.36136 -39.17282,10.71687 -39.17282,12.60106 0,1.18772 6.95873,16.87739 20.98019,47.30349 5.57612,12.1 15.13175,32.91747 21.23472,46.26105 6.10297,13.34358 11.30637,24.05099 11.56311,23.79425 0.25674,-0.25674 -0.0565,-7.12421 -0.69606,-15.26105 z m 142.81415,-67.89555 3.39611,-2.82238 -5.35287,-4.7194 c -2.94408,-2.59567 -5.71672,-4.49452 -6.16144,-4.21967 -1.72006,1.06305 -47.77791,63.66411 -47.77791,64.93893 0,0.33003 11.8125,-10.86486 26.25,-24.87753 14.4375,-14.01266 27.77824,-26.74764 29.64611,-28.29995 z m 11.87181,-12.3987 c 1.00059,-1.6022 0.99871,-1.99696 -0.009,-1.98469 -2.11791,0.0258 -4.05408,1.69737 -3.32757,2.87288 1.00024,1.61843 1.92539,1.37218 3.33702,-0.88819 z m 15.66205,-15.8867 c 0.909,-1.4708 -2.33732,-3.60596 -3.58522,-2.35806 -0.58877,0.58877 -0.76814,1.5597 -0.39861,2.15762 0.80999,1.31059 3.22269,1.43198 3.98383,0.20044 z m 19.2358,-16.7903 c 5.74755,-5.32235 11.38551,-10.99066 12.52879,-12.59624 1.93528,-2.71785 1.98848,-3.29528 0.77117,-8.36961 -0.71914,-2.9977 -1.62628,-5.64736 -2.01588,-5.88814 -0.94466,-0.58384 -5.6163,4.12312 -8.72458,8.79053 -1.37702,2.06775 -6.26604,6.9278 -10.86448,10.80011 -4.59844,3.87231 -8.36079,7.47767 -8.36079,8.0119 0,1.11477 5.02395,8.92845 5.74072,8.92845 0.26122,0 5.17749,-4.35465 10.92505,-9.677 z m 412.33421,-26.823 c 0,-0.825 -0.6609,-1.5 -1.4686,-1.5 -0.8946,0 -1.2436,0.58628 -0.893,1.5 0.3166,0.825 0.9774,1.5 1.4686,1.5 0.4912,0 0.893,-0.675 0.893,-1.5 z m -0.7204,-14 c 2.5921,-1.1 4.7146,-2.60863 4.7167,-3.3525 0,-0.74387 -1.3463,-5.38198 -2.9963,-10.3069 -1.65,-4.92492 -2.9969,-10.84129 -2.9931,-13.1475 0.01,-3.54504 -3.685,-22.44449 -4.6002,-23.55579 -0.2593,-0.31478 -7.6101,1.14089 -12.5643,2.48807 -3.1571,0.85851 -2.835,3.64629 2.1061,18.22663 2.7303,8.05639 6.1439,18.61128 7.5858,23.45532 1.4419,4.84403 2.9391,8.66903 3.3271,8.5 0.3879,-0.16904 2.8261,-1.20733 5.4182,-2.30733 z M 561.60966,239.90466 c 6.2437,-4.42677 9.36682,-7.11792 7.68018,-6.61789 -0.825,0.24458 -4.0875,1.16308 -7.25,2.0411 -5.35213,1.48593 -5.75,1.80205 -5.75,4.56846 0,1.63464 0.25642,2.97207 0.56982,2.97207 0.3134,0 2.4509,-1.33369 4.75,-2.96374 z m 358.64246,-63.1429 c 6.3387,-8.75037 15.0748,-25.91604 18.9808,-37.2958 2.2469,-6.54634 3.9338,-12.05396 3.7486,-12.23916 -0.1852,-0.18521 -3.5077,3.40676 -7.3834,7.98213 -7.0939,8.3745 -19.1965,19.64062 -27.0426,25.17351 -2.4002,1.69256 -4.0269,3.55671 -3.7554,4.30362 0.2634,0.72472 1.4507,4.66222 2.6384,8.75 l 2.1596,7.43234 h 3.8396 c 3.3465,0 4.2216,-0.52735 6.8144,-4.10664 z m 11.179,0.22753 c 0.6351,-0.615 1.7647,-13.12089 1.1851,-13.12089 -0.3762,0 -7.3264,13.74977 -7.3264,14.49408 0,0.66517 5.248,-0.50829 6.1413,-1.37319 z m 11.5516,-4.32379 c 15.8142,-9.15038 28.1743,-24.15031 29.1002,-35.31526 0.5255,-6.33726 -1.0031,-9.57716 -7.224,-15.31139 -3.95,-3.641 -9.3549,-6.83316 -10.0717,-5.94844 -0.1239,0.15288 -1.4536,4.00602 -2.9549,8.56253 -1.5014,4.5565 -3.7461,9.5065 -4.9883,11 -3.0945,3.72045 -6.1182,12.26185 -8.5294,24.09378 -3.2629,16.01158 -2.8158,17.24907 4.6681,12.91878 z m -29.9808,-21.12458 c 8.3548,-6.96635 21.7432,-20.92516 27.6466,-28.82455 3.2026,-4.28549 1.9898,-5.41673 -3.1877,-2.97327 -3.0622,1.44515 -3.5697,1.43298 -6.3311,-0.15181 -1.6511,-0.9476 -4.0297,-1.7229 -5.2859,-1.7229 -5.2749,0 -34.976,5.99339 -36.3095,7.32692 -1.6764,1.6764 -0.7732,3.92981 3.8296,9.55457 1.6309,1.99301 4.1003,7.63888 6.014,13.75 1.7858,5.70268 3.6045,10.36852 4.0415,10.36852 0.4369,0 4.7491,-3.29737 9.5825,-7.32748 z"
       id="path672" />
    <path
       style="fill:#000000"
       d="m 493.03569,102.5724 c -0.91478,-2.28251 -12.649,-8.811526 -17.79364,-9.90052 -3.94717,-0.835519 -5.77908,-3.654484 -4.24168,-6.527142 0.5887,-1.1 0.71703,-2.003399 0.28518,-2.007554 -4.46486,-0.04296 -14.65618,-2.642731 -19.6981,-5.024924 -3.45442,-1.632137 -6.60728,-2.967522 -7.00635,-2.967522 -0.62566,0 -6.77719,-2.712313 -27.42557,-12.092397 -2.38966,-1.085567 -6.77716,-4.274149 -9.75,-7.085738 -4.43588,-4.19527 -5.40516,-5.709473 -5.40516,-8.443869 0,-2.487334 0.66107,-3.765041 2.60802,-5.040733 2.49626,-1.635612 3.72831,-1.542274 28.75,2.178062 l 26.14198,3.886906 49.5,0.675376 c 53.27291,0.726853 60.70168,1.414607 65.66718,6.079459 2.6722,2.510394 3.07906,6.97872 0.80713,8.86425 -1.0445,0.866855 -6.45289,1.37214 -17.14817,1.602087 -8.59237,0.184734 -16.56832,0.606338 -17.72432,0.936897 -1.64613,0.47071 -25.55583,11.951246 -27.56397,13.235179 -0.25418,0.162513 0.076,1.157223 0.73379,2.210467 1.31641,2.107909 0.79136,4.31494 -1.84513,7.755943 -1.0112,1.319756 -1.51325,3.194116 -1.20535,4.5 m 11.27884,-25.008744 11.5,-5.753145 -5,-0.328393 c -5.63044,-0.369799 -27.24659,2.609344 -28.02066,3.861813 -0.27657,0.447506 0.85243,1.778699 2.5089,2.958208 1.65646,1.179508 3.01176,2.788918 3.01176,3.576466 0,2.666855 4.4346,1.470912 16,-4.314949 z m -26.2,1.546855 c 3.14666,-3.146664 0.59975,-3.531103 -5.3,-0.8 l -4,1.851673 4.05,0.07416 c 2.2275,0.04079 4.59,-0.465837 5.25,-1.125837 z"
       id="path1" />
  </g>
</svg>
